<svg xmlns="http://www.w3.org/2000/svg" xmlns:xlink="http://www.w3.org/1999/xlink" width="200" zoomAndPan="magnify" viewBox="0 0 150 149.999998" height="200" preserveAspectRatio="xMidYMid meet" version="1.2"><defs><clipPath id="8318a5c0cd"><path d="M 0.761719 0 L 94.601562 0 L 94.601562 32 L 0.761719 32 Z M 0.761719 0 "/></clipPath><clipPath id="e0be5775cd"><path d="M 80 8 L 94.601562 8 L 94.601562 26 L 80 26 Z M 80 8 "/></clipPath><clipPath id="ce640b9adc"><rect x="0" width="95" y="0" height="32"/></clipPath><clipPath id="94772a3f47"><path d="M 19 6 L 24.558594 6 L 24.558594 12 L 19 12 Z M 19 6 "/></clipPath><clipPath id="046adbec72"><rect x="0" width="25" y="0" height="14"/></clipPath><clipPath id="76749b4be6"><rect x="0" width="95" y="0" height="42"/></clipPath><clipPath id="1e542bd86e"><path d="M 18.167969 5.628906 L 129.167969 5.628906 L 129.167969 116.628906 L 18.167969 116.628906 Z M 18.167969 5.628906 "/></clipPath><clipPath id="adc712c495"><path d="M 97.488281 5.628906 L 18.167969 5.628906 L 18.167969 84.949219 C 18.167969 102.445312 32.351562 116.628906 49.847656 116.628906 L 129.167969 116.628906 L 129.167969 37.308594 C 129.167969 19.816406 114.980469 5.628906 97.488281 5.628906 Z M 97.488281 5.628906 "/></clipPath><linearGradient x1="-0.000468503" gradientTransform="matrix(0.222,0,0,0.222,18.167008,5.629793)" y1="499.99948" x2="499.999511" gradientUnits="userSpaceOnUse" y2="-0.000499664" id="fe021afdbe"><stop style="stop-color:#4c489e;stop-opacity:1;" offset="0"/><stop style="stop-color:#4c489e;stop-opacity:1;" offset="0.0625"/><stop style="stop-color:#4c489e;stop-opacity:1;" offset="0.078125"/><stop style="stop-color:#4c489e;stop-opacity:1;" offset="0.0859375"/><stop style="stop-color:#4d489e;stop-opacity:1;" offset="0.0898438"/><stop style="stop-color:#4e489e;stop-opacity:1;" offset="0.09375"/><stop style="stop-color:#4f499e;stop-opacity:1;" offset="0.0976563"/><stop style="stop-color:#50499e;stop-opacity:1;" offset="0.101563"/><stop style="stop-color:#51499e;stop-opacity:1;" offset="0.105469"/><stop style="stop-color:#52499e;stop-opacity:1;" offset="0.109375"/><stop style="stop-color:#52499e;stop-opacity:1;" offset="0.113281"/><stop style="stop-color:#53499e;stop-opacity:1;" offset="0.117188"/><stop style="stop-color:#544a9e;stop-opacity:1;" offset="0.121094"/><stop style="stop-color:#554a9e;stop-opacity:1;" offset="0.125"/><stop style="stop-color:#564a9f;stop-opacity:1;" offset="0.128906"/><stop style="stop-color:#574a9f;stop-opacity:1;" offset="0.132813"/><stop style="stop-color:#574a9f;stop-opacity:1;" offset="0.136719"/><stop style="stop-color:#584a9f;stop-opacity:1;" offset="0.140625"/><stop style="stop-color:#594b9f;stop-opacity:1;" offset="0.144531"/><stop style="stop-color:#5a4b9f;stop-opacity:1;" offset="0.148438"/><stop style="stop-color:#5b4b9f;stop-opacity:1;" offset="0.152344"/><stop style="stop-color:#5c4b9f;stop-opacity:1;" offset="0.15625"/><stop style="stop-color:#5c4b9f;stop-opacity:1;" offset="0.160156"/><stop style="stop-color:#5d4b9f;stop-opacity:1;" offset="0.164063"/><stop style="stop-color:#5e4b9f;stop-opacity:1;" offset="0.167969"/><stop style="stop-color:#5f4c9f;stop-opacity:1;" offset="0.171875"/><stop style="stop-color:#604c9f;stop-opacity:1;" offset="0.175781"/><stop style="stop-color:#614c9f;stop-opacity:1;" offset="0.179688"/><stop style="stop-color:#614c9f;stop-opacity:1;" offset="0.183594"/><stop style="stop-color:#624c9f;stop-opacity:1;" offset="0.1875"/><stop style="stop-color:#634c9f;stop-opacity:1;" offset="0.191406"/><stop style="stop-color:#644d9f;stop-opacity:1;" offset="0.195313"/><stop style="stop-color:#654d9f;stop-opacity:1;" offset="0.199219"/><stop style="stop-color:#664d9f;stop-opacity:1;" offset="0.203125"/><stop style="stop-color:#664d9f;stop-opacity:1;" offset="0.207031"/><stop style="stop-color:#674da0;stop-opacity:1;" offset="0.210938"/><stop style="stop-color:#684da0;stop-opacity:1;" offset="0.214844"/><stop style="stop-color:#694ea0;stop-opacity:1;" offset="0.21875"/><stop style="stop-color:#6a4ea0;stop-opacity:1;" offset="0.222656"/><stop style="stop-color:#6b4ea0;stop-opacity:1;" offset="0.226563"/><stop style="stop-color:#6b4ea0;stop-opacity:1;" offset="0.230469"/><stop style="stop-color:#6c4ea0;stop-opacity:1;" offset="0.234375"/><stop style="stop-color:#6d4ea0;stop-opacity:1;" offset="0.238281"/><stop style="stop-color:#6e4ea0;stop-opacity:1;" offset="0.242188"/><stop style="stop-color:#6f4fa0;stop-opacity:1;" offset="0.246094"/><stop style="stop-color:#704fa0;stop-opacity:1;" offset="0.25"/><stop style="stop-color:#704fa0;stop-opacity:1;" offset="0.253906"/><stop style="stop-color:#714fa0;stop-opacity:1;" offset="0.257813"/><stop style="stop-color:#724fa0;stop-opacity:1;" offset="0.261719"/><stop style="stop-color:#734fa0;stop-opacity:1;" offset="0.265625"/><stop style="stop-color:#7450a0;stop-opacity:1;" offset="0.269531"/><stop style="stop-color:#7550a0;stop-opacity:1;" offset="0.273438"/><stop style="stop-color:#7550a0;stop-opacity:1;" offset="0.277344"/><stop style="stop-color:#7650a0;stop-opacity:1;" offset="0.28125"/><stop style="stop-color:#7750a0;stop-opacity:1;" offset="0.285156"/><stop style="stop-color:#7850a0;stop-opacity:1;" offset="0.289063"/><stop style="stop-color:#7951a1;stop-opacity:1;" offset="0.292969"/><stop style="stop-color:#7a51a1;stop-opacity:1;" offset="0.296875"/><stop style="stop-color:#7b51a1;stop-opacity:1;" offset="0.300781"/><stop style="stop-color:#7b51a1;stop-opacity:1;" offset="0.304688"/><stop style="stop-color:#7c51a1;stop-opacity:1;" offset="0.308594"/><stop style="stop-color:#7d51a1;stop-opacity:1;" offset="0.3125"/><stop style="stop-color:#7e52a1;stop-opacity:1;" offset="0.316406"/><stop style="stop-color:#7f52a1;stop-opacity:1;" offset="0.320313"/><stop style="stop-color:#8052a1;stop-opacity:1;" offset="0.324219"/><stop style="stop-color:#8052a1;stop-opacity:1;" offset="0.328125"/><stop style="stop-color:#8152a1;stop-opacity:1;" offset="0.332031"/><stop style="stop-color:#8252a1;stop-opacity:1;" offset="0.335938"/><stop style="stop-color:#8352a1;stop-opacity:1;" offset="0.339844"/><stop style="stop-color:#8453a1;stop-opacity:1;" offset="0.34375"/><stop style="stop-color:#8553a1;stop-opacity:1;" offset="0.347656"/><stop style="stop-color:#8553a1;stop-opacity:1;" offset="0.351563"/><stop style="stop-color:#8653a1;stop-opacity:1;" offset="0.355469"/><stop style="stop-color:#8753a1;stop-opacity:1;" offset="0.359375"/><stop style="stop-color:#8853a1;stop-opacity:1;" offset="0.363281"/><stop style="stop-color:#8954a1;stop-opacity:1;" offset="0.367188"/><stop style="stop-color:#8a54a1;stop-opacity:1;" offset="0.371094"/><stop style="stop-color:#8a54a1;stop-opacity:1;" offset="0.375"/><stop style="stop-color:#8b54a2;stop-opacity:1;" offset="0.378906"/><stop style="stop-color:#8c54a2;stop-opacity:1;" offset="0.382813"/><stop style="stop-color:#8d54a2;stop-opacity:1;" offset="0.386719"/><stop style="stop-color:#8e55a2;stop-opacity:1;" offset="0.390625"/><stop style="stop-color:#8f55a2;stop-opacity:1;" offset="0.394531"/><stop style="stop-color:#8f55a2;stop-opacity:1;" offset="0.398438"/><stop style="stop-color:#9055a2;stop-opacity:1;" offset="0.402344"/><stop style="stop-color:#9155a2;stop-opacity:1;" offset="0.40625"/><stop style="stop-color:#9255a2;stop-opacity:1;" offset="0.410156"/><stop style="stop-color:#9356a2;stop-opacity:1;" offset="0.414063"/><stop style="stop-color:#9456a2;stop-opacity:1;" offset="0.417969"/><stop style="stop-color:#9456a2;stop-opacity:1;" offset="0.421875"/><stop style="stop-color:#9556a2;stop-opacity:1;" offset="0.425781"/><stop style="stop-color:#9656a2;stop-opacity:1;" offset="0.429688"/><stop style="stop-color:#9756a2;stop-opacity:1;" offset="0.433594"/><stop style="stop-color:#9856a2;stop-opacity:1;" offset="0.4375"/><stop style="stop-color:#9957a2;stop-opacity:1;" offset="0.441406"/><stop style="stop-color:#9957a2;stop-opacity:1;" offset="0.445313"/><stop style="stop-color:#9a57a2;stop-opacity:1;" offset="0.449219"/><stop style="stop-color:#9b57a2;stop-opacity:1;" offset="0.453125"/><stop style="stop-color:#9c57a2;stop-opacity:1;" offset="0.457031"/><stop style="stop-color:#9d57a3;stop-opacity:1;" offset="0.460938"/><stop style="stop-color:#9e58a3;stop-opacity:1;" offset="0.464844"/><stop style="stop-color:#9e58a3;stop-opacity:1;" offset="0.46875"/><stop style="stop-color:#9f58a3;stop-opacity:1;" offset="0.472656"/><stop style="stop-color:#a058a3;stop-opacity:1;" offset="0.476563"/><stop style="stop-color:#a158a3;stop-opacity:1;" offset="0.480469"/><stop style="stop-color:#a258a3;stop-opacity:1;" offset="0.484375"/><stop style="stop-color:#a359a3;stop-opacity:1;" offset="0.488281"/><stop style="stop-color:#a459a3;stop-opacity:1;" offset="0.492188"/><stop style="stop-color:#a459a3;stop-opacity:1;" offset="0.496094"/><stop style="stop-color:#a559a3;stop-opacity:1;" offset="0.5"/><stop style="stop-color:#a65aa2;stop-opacity:1;" offset="0.503906"/><stop style="stop-color:#a75aa2;stop-opacity:1;" offset="0.507812"/><stop style="stop-color:#a75ba1;stop-opacity:1;" offset="0.511719"/><stop style="stop-color:#a85ba0;stop-opacity:1;" offset="0.515625"/><stop style="stop-color:#a95ca0;stop-opacity:1;" offset="0.519531"/><stop style="stop-color:#aa5d9f;stop-opacity:1;" offset="0.523438"/><stop style="stop-color:#aa5d9e;stop-opacity:1;" offset="0.527344"/><stop style="stop-color:#ab5e9e;stop-opacity:1;" offset="0.53125"/><stop style="stop-color:#ac5e9d;stop-opacity:1;" offset="0.535156"/><stop style="stop-color:#ac5f9c;stop-opacity:1;" offset="0.539063"/><stop style="stop-color:#ad5f9c;stop-opacity:1;" offset="0.542969"/><stop style="stop-color:#ae609b;stop-opacity:1;" offset="0.546875"/><stop style="stop-color:#af619a;stop-opacity:1;" offset="0.550781"/><stop style="stop-color:#af619a;stop-opacity:1;" offset="0.554688"/><stop style="stop-color:#b06299;stop-opacity:1;" offset="0.558594"/><stop style="stop-color:#b16298;stop-opacity:1;" offset="0.5625"/><stop style="stop-color:#b26398;stop-opacity:1;" offset="0.566406"/><stop style="stop-color:#b26397;stop-opacity:1;" offset="0.570313"/><stop style="stop-color:#b36496;stop-opacity:1;" offset="0.574219"/><stop style="stop-color:#b46596;stop-opacity:1;" offset="0.578125"/><stop style="stop-color:#b46595;stop-opacity:1;" offset="0.582031"/><stop style="stop-color:#b56694;stop-opacity:1;" offset="0.585938"/><stop style="stop-color:#b66694;stop-opacity:1;" offset="0.589844"/><stop style="stop-color:#b76793;stop-opacity:1;" offset="0.59375"/><stop style="stop-color:#b76792;stop-opacity:1;" offset="0.597656"/><stop style="stop-color:#b86892;stop-opacity:1;" offset="0.601563"/><stop style="stop-color:#b96991;stop-opacity:1;" offset="0.605469"/><stop style="stop-color:#ba6990;stop-opacity:1;" offset="0.609375"/><stop style="stop-color:#ba6a90;stop-opacity:1;" offset="0.613281"/><stop style="stop-color:#bb6a8f;stop-opacity:1;" offset="0.617188"/><stop style="stop-color:#bc6b8e;stop-opacity:1;" offset="0.621094"/><stop style="stop-color:#bd6b8e;stop-opacity:1;" offset="0.625"/><stop style="stop-color:#bd6c8d;stop-opacity:1;" offset="0.628906"/><stop style="stop-color:#be6d8c;stop-opacity:1;" offset="0.632813"/><stop style="stop-color:#bf6d8c;stop-opacity:1;" offset="0.636719"/><stop style="stop-color:#bf6e8b;stop-opacity:1;" offset="0.640625"/><stop style="stop-color:#c06e8a;stop-opacity:1;" offset="0.644531"/><stop style="stop-color:#c16f8a;stop-opacity:1;" offset="0.648438"/><stop style="stop-color:#c26f89;stop-opacity:1;" offset="0.652344"/><stop style="stop-color:#c27088;stop-opacity:1;" offset="0.65625"/><stop style="stop-color:#c37188;stop-opacity:1;" offset="0.660156"/><stop style="stop-color:#c47187;stop-opacity:1;" offset="0.664062"/><stop style="stop-color:#c57286;stop-opacity:1;" offset="0.667969"/><stop style="stop-color:#c57286;stop-opacity:1;" offset="0.671875"/><stop style="stop-color:#c67385;stop-opacity:1;" offset="0.675781"/><stop style="stop-color:#c77384;stop-opacity:1;" offset="0.679688"/><stop style="stop-color:#c77484;stop-opacity:1;" offset="0.683594"/><stop style="stop-color:#c87583;stop-opacity:1;" offset="0.6875"/><stop style="stop-color:#c97582;stop-opacity:1;" offset="0.691406"/><stop style="stop-color:#ca7682;stop-opacity:1;" offset="0.695312"/><stop style="stop-color:#ca7681;stop-opacity:1;" offset="0.699219"/><stop style="stop-color:#cb7780;stop-opacity:1;" offset="0.703125"/><stop style="stop-color:#cc7780;stop-opacity:1;" offset="0.707031"/><stop style="stop-color:#cd787f;stop-opacity:1;" offset="0.710938"/><stop style="stop-color:#cd797e;stop-opacity:1;" offset="0.714844"/><stop style="stop-color:#ce797e;stop-opacity:1;" offset="0.71875"/><stop style="stop-color:#cf7a7d;stop-opacity:1;" offset="0.722656"/><stop style="stop-color:#d07a7c;stop-opacity:1;" offset="0.726562"/><stop style="stop-color:#d07b7c;stop-opacity:1;" offset="0.730469"/><stop style="stop-color:#d17b7b;stop-opacity:1;" offset="0.734375"/><stop style="stop-color:#d27c7a;stop-opacity:1;" offset="0.738281"/><stop style="stop-color:#d27d7a;stop-opacity:1;" offset="0.742188"/><stop style="stop-color:#d37d79;stop-opacity:1;" offset="0.746094"/><stop style="stop-color:#d47e78;stop-opacity:1;" offset="0.75"/><stop style="stop-color:#d57e78;stop-opacity:1;" offset="0.753906"/><stop style="stop-color:#d57f77;stop-opacity:1;" offset="0.757812"/><stop style="stop-color:#d67f76;stop-opacity:1;" offset="0.761719"/><stop style="stop-color:#d78076;stop-opacity:1;" offset="0.765625"/><stop style="stop-color:#d88175;stop-opacity:1;" offset="0.769531"/><stop style="stop-color:#d88174;stop-opacity:1;" offset="0.773438"/><stop style="stop-color:#d98274;stop-opacity:1;" offset="0.777344"/><stop style="stop-color:#da8273;stop-opacity:1;" offset="0.78125"/><stop style="stop-color:#da8372;stop-opacity:1;" offset="0.785156"/><stop style="stop-color:#db8372;stop-opacity:1;" offset="0.789063"/><stop style="stop-color:#dc8471;stop-opacity:1;" offset="0.792969"/><stop style="stop-color:#dd8570;stop-opacity:1;" offset="0.796875"/><stop style="stop-color:#dd8570;stop-opacity:1;" offset="0.800781"/><stop style="stop-color:#de866f;stop-opacity:1;" offset="0.804688"/><stop style="stop-color:#df866e;stop-opacity:1;" offset="0.808594"/><stop style="stop-color:#e0876e;stop-opacity:1;" offset="0.8125"/><stop style="stop-color:#e0876d;stop-opacity:1;" offset="0.816406"/><stop style="stop-color:#e1886c;stop-opacity:1;" offset="0.820313"/><stop style="stop-color:#e2896c;stop-opacity:1;" offset="0.824219"/><stop style="stop-color:#e2896b;stop-opacity:1;" offset="0.828125"/><stop style="stop-color:#e38a6a;stop-opacity:1;" offset="0.832031"/><stop style="stop-color:#e48a6a;stop-opacity:1;" offset="0.835938"/><stop style="stop-color:#e58b69;stop-opacity:1;" offset="0.839844"/><stop style="stop-color:#e58b68;stop-opacity:1;" offset="0.84375"/><stop style="stop-color:#e68c68;stop-opacity:1;" offset="0.847656"/><stop style="stop-color:#e78d67;stop-opacity:1;" offset="0.851563"/><stop style="stop-color:#e88d66;stop-opacity:1;" offset="0.855469"/><stop style="stop-color:#e88e66;stop-opacity:1;" offset="0.859375"/><stop style="stop-color:#e98e65;stop-opacity:1;" offset="0.863281"/><stop style="stop-color:#ea8f64;stop-opacity:1;" offset="0.867188"/><stop style="stop-color:#eb8f64;stop-opacity:1;" offset="0.871094"/><stop style="stop-color:#eb9063;stop-opacity:1;" offset="0.875"/><stop style="stop-color:#ec9162;stop-opacity:1;" offset="0.878906"/><stop style="stop-color:#ed9162;stop-opacity:1;" offset="0.882812"/><stop style="stop-color:#ed9261;stop-opacity:1;" offset="0.886719"/><stop style="stop-color:#ee9260;stop-opacity:1;" offset="0.890625"/><stop style="stop-color:#ef9360;stop-opacity:1;" offset="0.894531"/><stop style="stop-color:#f0935f;stop-opacity:1;" offset="0.898438"/><stop style="stop-color:#f0945e;stop-opacity:1;" offset="0.902344"/><stop style="stop-color:#f1945e;stop-opacity:1;" offset="0.90625"/><stop style="stop-color:#f2955d;stop-opacity:1;" offset="0.910156"/><stop style="stop-color:#f3965c;stop-opacity:1;" offset="0.914063"/><stop style="stop-color:#f3965c;stop-opacity:1;" offset="0.921875"/><stop style="stop-color:#f3965c;stop-opacity:1;" offset="0.9375"/><stop style="stop-color:#f3965c;stop-opacity:1;" offset="1"/></linearGradient><clipPath id="b8b548b263"><rect x="0" width="50" y="0" height="109"/></clipPath><clipPath id="b12e4c9b27"><rect x="0" width="56" y="0" height="98"/></clipPath></defs><g id="ecf7f3d505"><g transform="matrix(1,0,0,1,29,108)"><g clip-path="url(#76749b4be6)"><g clip-rule="nonzero" clip-path="url(#8318a5c0cd)"><g transform="matrix(1,0,0,1,-0.000000000000003553,-0.000000000000014211)"><g id="dd64a61915" clip-path="url(#ce640b9adc)"><g style="fill:#4c489e;fill-opacity:1;"><g transform="translate(0.984922, 25.119446)"><path style="stroke:none" d="M 18.125 -7.96875 C 18.125 -6.21875 17.773438 -4.71875 17.078125 -3.46875 C 16.390625 -2.226562 15.394531 -1.273438 14.09375 -0.609375 C 12.789062 0.0546875 11.21875 0.390625 9.375 0.390625 C 6.726562 0.390625 4.679688 -0.3125 3.234375 -1.71875 C 1.796875 -3.125 1.078125 -5.097656 1.078125 -7.640625 C 1.078125 -9.410156 1.425781 -10.914062 2.125 -12.15625 C 2.820312 -13.40625 3.828125 -14.359375 5.140625 -15.015625 C 6.453125 -15.671875 8.039062 -16 9.90625 -16 C 12.507812 -16 14.53125 -15.289062 15.96875 -13.875 C 17.40625 -12.46875 18.125 -10.5 18.125 -7.96875 Z M 14.671875 -7.484375 C 14.671875 -8.785156 14.5 -9.96875 14.15625 -11.03125 C 13.8125 -12.09375 13.320312 -12.929688 12.6875 -13.546875 C 11.894531 -14.328125 10.898438 -14.71875 9.703125 -14.71875 C 8.242188 -14.71875 7.0625 -14.28125 6.15625 -13.40625 C 5.070312 -12.332031 4.53125 -10.585938 4.53125 -8.171875 C 4.53125 -6.859375 4.703125 -5.671875 5.046875 -4.609375 C 5.398438 -3.546875 5.882812 -2.707031 6.5 -2.09375 C 7.289062 -1.289062 8.300781 -0.890625 9.53125 -0.890625 C 11.21875 -0.890625 12.492188 -1.445312 13.359375 -2.5625 C 14.234375 -3.675781 14.671875 -5.316406 14.671875 -7.484375 Z M 14.671875 -7.484375 "/></g></g><g style="fill:#4c489e;fill-opacity:1;"><g transform="translate(20.173315, 25.119446)"><path style="stroke:none" d="M 19.90625 0.0625 C 19.144531 0.0195312 18.390625 0 17.640625 0 C 16.929688 0 16.21875 0.0195312 15.5 0.0625 L 15.5 -6.203125 C 15.5 -7.972656 14.835938 -8.859375 13.515625 -8.859375 C 13.210938 -8.859375 12.914062 -8.78125 12.625 -8.625 C 12.34375 -8.476562 12.109375 -8.285156 11.921875 -8.046875 C 11.742188 -7.804688 11.65625 -7.554688 11.65625 -7.296875 L 11.65625 -2.296875 C 11.65625 -1.679688 11.703125 -1.289062 11.796875 -1.125 C 11.898438 -0.957031 12.128906 -0.859375 12.484375 -0.828125 L 13.28125 -0.78125 L 13.28125 0.0625 C 12.269531 0.0195312 11.265625 0 10.265625 0 C 9.285156 0 8.296875 0.0195312 7.296875 0.0625 L 7.296875 -0.78125 L 8.015625 -0.828125 C 8.378906 -0.859375 8.609375 -0.957031 8.703125 -1.125 C 8.796875 -1.289062 8.84375 -1.679688 8.84375 -2.296875 L 8.84375 -6.203125 C 8.84375 -7.972656 8.179688 -8.859375 6.859375 -8.859375 C 6.554688 -8.859375 6.257812 -8.78125 5.96875 -8.625 C 5.6875 -8.476562 5.453125 -8.285156 5.265625 -8.046875 C 5.085938 -7.804688 5 -7.554688 5 -7.296875 L 5 -2.296875 C 5 -1.679688 5.046875 -1.289062 5.140625 -1.125 C 5.234375 -0.957031 5.460938 -0.859375 5.828125 -0.828125 L 6.453125 -0.78125 L 6.453125 0.0625 C 5.484375 0.0195312 4.507812 0 3.53125 0 C 2.539062 0 1.546875 0.0195312 0.546875 0.0625 L 0.546875 -0.78125 L 1.359375 -0.828125 C 1.710938 -0.859375 1.9375 -0.957031 2.03125 -1.125 C 2.132812 -1.289062 2.1875 -1.679688 2.1875 -2.296875 L 2.1875 -7.34375 C 2.1875 -8.019531 2.148438 -8.453125 2.078125 -8.640625 C 2.015625 -8.835938 1.851562 -8.941406 1.59375 -8.953125 L 0.546875 -9.03125 L 0.546875 -9.859375 C 0.984375 -9.890625 1.375 -9.929688 1.71875 -9.984375 C 2.0625 -10.035156 2.46875 -10.125 2.9375 -10.25 C 3.414062 -10.382812 4.054688 -10.582031 4.859375 -10.84375 L 5 -10.703125 L 5 -8.984375 L 6.84375 -10.40625 C 7.226562 -10.695312 7.769531 -10.84375 8.46875 -10.84375 C 9.269531 -10.84375 9.910156 -10.695312 10.390625 -10.40625 C 10.878906 -10.113281 11.253906 -9.640625 11.515625 -8.984375 L 13.359375 -10.40625 C 13.742188 -10.695312 14.296875 -10.84375 15.015625 -10.84375 C 15.847656 -10.84375 16.5 -10.707031 16.96875 -10.4375 C 17.445312 -10.175781 17.789062 -9.734375 18 -9.109375 C 18.207031 -8.484375 18.3125 -7.644531 18.3125 -6.59375 L 18.3125 -2.296875 C 18.3125 -1.679688 18.359375 -1.289062 18.453125 -1.125 C 18.554688 -0.957031 18.785156 -0.859375 19.140625 -0.828125 L 19.90625 -0.78125 Z M 19.90625 0.0625 "/></g></g><g style="fill:#4c489e;fill-opacity:1;"><g transform="translate(40.651689, 25.119446)"><path style="stroke:none" d="M 10.625 -5.59375 C 9.957031 -5.4375 9.347656 -5.320312 8.796875 -5.25 C 8.242188 -5.175781 7.640625 -5.140625 6.984375 -5.140625 L 3.96875 -5.140625 C 3.988281 -4.585938 4.035156 -4.144531 4.109375 -3.8125 C 4.191406 -3.476562 4.332031 -3.148438 4.53125 -2.828125 C 4.820312 -2.359375 5.226562 -1.976562 5.75 -1.6875 C 6.28125 -1.394531 6.828125 -1.25 7.390625 -1.25 C 7.867188 -1.25 8.304688 -1.304688 8.703125 -1.421875 C 9.097656 -1.546875 9.566406 -1.753906 10.109375 -2.046875 L 10.390625 -1.703125 L 9.875 -0.59375 C 9.382812 -0.351562 8.945312 -0.160156 8.5625 -0.015625 C 8.175781 0.128906 7.800781 0.234375 7.4375 0.296875 C 7.082031 0.359375 6.679688 0.390625 6.234375 0.390625 C 4.515625 0.390625 3.207031 -0.0820312 2.3125 -1.03125 C 1.414062 -1.988281 0.96875 -3.378906 0.96875 -5.203125 C 0.96875 -6.304688 1.144531 -7.210938 1.5 -7.921875 C 1.851562 -8.640625 2.40625 -9.222656 3.15625 -9.671875 L 4.234375 -10.3125 C 4.835938 -10.664062 5.503906 -10.84375 6.234375 -10.84375 C 7.578125 -10.84375 8.644531 -10.472656 9.4375 -9.734375 C 10.226562 -9.003906 10.625 -8.023438 10.625 -6.796875 Z M 7.6875 -6.359375 C 7.6875 -7.492188 7.53125 -8.3125 7.21875 -8.8125 C 6.914062 -9.3125 6.4375 -9.5625 5.78125 -9.5625 C 5.125 -9.5625 4.632812 -9.3125 4.3125 -8.8125 C 3.988281 -8.3125 3.828125 -7.492188 3.828125 -6.359375 L 4.5625 -6.328125 C 5.007812 -6.316406 5.273438 -6.304688 5.359375 -6.296875 C 5.453125 -6.285156 5.503906 -6.28125 5.515625 -6.28125 C 5.523438 -6.28125 5.601562 -6.28125 5.75 -6.28125 C 6.019531 -6.28125 6.300781 -6.285156 6.59375 -6.296875 C 6.894531 -6.316406 7.148438 -6.332031 7.359375 -6.34375 C 7.578125 -6.351562 7.6875 -6.359375 7.6875 -6.359375 Z M 7.6875 -6.359375 "/></g></g><g style="fill:#4c489e;fill-opacity:1;"><g transform="translate(52.169334, 25.119446)"><path style="stroke:none" d="M 13.515625 0.0625 C 12.734375 0.0195312 11.957031 0 11.1875 0 C 10.5 0 9.8125 0.0195312 9.125 0.0625 L 9.125 -6.21875 C 9.125 -7.132812 8.953125 -7.800781 8.609375 -8.21875 C 8.273438 -8.644531 7.722656 -8.859375 6.953125 -8.859375 C 6.453125 -8.859375 6 -8.695312 5.59375 -8.375 C 5.195312 -8.0625 5 -7.703125 5 -7.296875 L 5 -2.296875 C 5 -1.679688 5.046875 -1.289062 5.140625 -1.125 C 5.242188 -0.957031 5.472656 -0.859375 5.828125 -0.828125 L 6.640625 -0.78125 L 6.640625 0.0625 C 5.609375 0.0195312 4.570312 0 3.53125 0 C 2.539062 0 1.546875 0.0195312 0.546875 0.0625 L 0.546875 -0.78125 L 1.359375 -0.828125 C 1.710938 -0.859375 1.9375 -0.957031 2.03125 -1.125 C 2.132812 -1.289062 2.1875 -1.679688 2.1875 -2.296875 L 2.1875 -7.34375 C 2.1875 -8.019531 2.148438 -8.453125 2.078125 -8.640625 C 2.015625 -8.835938 1.851562 -8.941406 1.59375 -8.953125 L 0.546875 -9.03125 L 0.546875 -9.859375 C 0.984375 -9.890625 1.375 -9.929688 1.71875 -9.984375 C 2.0625 -10.035156 2.46875 -10.125 2.9375 -10.25 C 3.414062 -10.382812 4.054688 -10.582031 4.859375 -10.84375 L 5 -10.703125 L 5 -8.984375 L 6.84375 -10.40625 C 7.195312 -10.695312 7.734375 -10.84375 8.453125 -10.84375 C 9.617188 -10.84375 10.507812 -10.519531 11.125 -9.875 C 11.425781 -9.550781 11.632812 -9.144531 11.75 -8.65625 C 11.875 -8.164062 11.9375 -7.476562 11.9375 -6.59375 L 11.9375 -2.296875 C 11.9375 -1.679688 11.984375 -1.289062 12.078125 -1.125 C 12.179688 -0.957031 12.410156 -0.859375 12.765625 -0.828125 L 13.515625 -0.78125 Z M 11.265625 -15.25 C 10.984375 -14.25 10.628906 -13.515625 10.203125 -13.046875 C 9.773438 -12.578125 9.222656 -12.34375 8.546875 -12.34375 C 8.285156 -12.34375 8.007812 -12.382812 7.71875 -12.46875 C 7.4375 -12.550781 7.066406 -12.703125 6.609375 -12.921875 C 6.179688 -13.140625 5.832031 -13.28125 5.5625 -13.34375 C 5.289062 -13.414062 5.050781 -13.453125 4.84375 -13.453125 C 4.363281 -13.453125 4.007812 -13.09375 3.78125 -12.375 L 2.859375 -12.375 C 2.953125 -13.226562 3.242188 -13.921875 3.734375 -14.453125 C 4.234375 -14.984375 4.832031 -15.25 5.53125 -15.25 C 5.789062 -15.25 6.050781 -15.207031 6.3125 -15.125 C 6.582031 -15.050781 6.9375 -14.90625 7.375 -14.6875 C 7.8125 -14.488281 8.15625 -14.347656 8.40625 -14.265625 C 8.65625 -14.179688 8.882812 -14.140625 9.09375 -14.140625 C 9.375 -14.140625 9.585938 -14.210938 9.734375 -14.359375 C 9.890625 -14.503906 10.066406 -14.800781 10.265625 -15.25 Z M 11.265625 -15.25 "/></g></g><g style="fill:#4c489e;fill-opacity:1;"><g transform="translate(66.243895, 25.119446)"><path style="stroke:none" d="M 13.421875 0.0625 C 12.640625 0.0195312 11.863281 0 11.09375 0 C 10.375 0 9.644531 0.0195312 8.90625 0.0625 L 9.03125 -1.84375 L 7.28125 -0.140625 C 6.925781 0.210938 6.394531 0.390625 5.6875 0.390625 C 4.5625 0.390625 3.703125 0.0820312 3.109375 -0.53125 C 2.515625 -1.15625 2.21875 -2.050781 2.21875 -3.21875 L 2.21875 -7.34375 C 2.21875 -8.019531 2.179688 -8.453125 2.109375 -8.640625 C 2.035156 -8.835938 1.867188 -8.941406 1.609375 -8.953125 L 0.578125 -9.03125 L 0.578125 -9.859375 C 1.066406 -9.921875 1.453125 -9.972656 1.734375 -10.015625 C 2.023438 -10.066406 2.273438 -10.113281 2.484375 -10.15625 C 2.703125 -10.195312 2.929688 -10.257812 3.171875 -10.34375 L 4.796875 -10.84375 L 5.015625 -10.703125 L 5.015625 -4.703125 C 5.015625 -3.597656 5.148438 -2.816406 5.421875 -2.359375 C 5.691406 -1.910156 6.15625 -1.6875 6.8125 -1.6875 C 7.425781 -1.6875 7.945312 -1.890625 8.375 -2.296875 C 8.8125 -2.703125 9.03125 -3.1875 9.03125 -3.75 L 9.03125 -7.34375 C 9.03125 -8.019531 8.992188 -8.453125 8.921875 -8.640625 C 8.859375 -8.835938 8.691406 -8.941406 8.421875 -8.953125 L 7.390625 -9.03125 L 7.390625 -9.859375 C 7.867188 -9.921875 8.253906 -9.972656 8.546875 -10.015625 C 8.835938 -10.066406 9.085938 -10.113281 9.296875 -10.15625 C 9.515625 -10.195312 9.75 -10.257812 10 -10.34375 L 11.609375 -10.84375 L 11.84375 -10.703125 L 11.84375 -2.296875 C 11.84375 -1.679688 11.882812 -1.289062 11.96875 -1.125 C 12.0625 -0.957031 12.296875 -0.859375 12.671875 -0.828125 L 13.421875 -0.78125 Z M 13.421875 0.0625 "/></g></g><g clip-rule="nonzero" clip-path="url(#e0be5775cd)"><g style="fill:#4c489e;fill-opacity:1;"><g transform="translate(80.318456, 25.119446)"><path style="stroke:none" d="M 13.75 0 L 9.78125 0 C 9.3125 -0.582031 8.945312 -1.035156 8.6875 -1.359375 C 8.425781 -1.679688 8.207031 -1.941406 8.03125 -2.140625 C 7.851562 -2.335938 7.664062 -2.546875 7.46875 -2.765625 C 7.28125 -2.992188 7.023438 -3.289062 6.703125 -3.65625 C 6.378906 -4.03125 5.925781 -4.546875 5.34375 -5.203125 L 5.109375 -5.203125 L 5.109375 -2.296875 C 5.109375 -1.679688 5.15625 -1.289062 5.25 -1.125 C 5.351562 -0.957031 5.582031 -0.859375 5.9375 -0.828125 L 6.75 -0.78125 L 6.75 0.0625 C 5.71875 0.0195312 4.679688 0 3.640625 0 C 2.660156 0 1.671875 0.0195312 0.671875 0.0625 L 0.671875 -0.78125 L 1.46875 -0.828125 C 1.820312 -0.859375 2.046875 -0.957031 2.140625 -1.125 C 2.242188 -1.289062 2.296875 -1.679688 2.296875 -2.296875 L 2.296875 -13.078125 C 2.296875 -13.753906 2.257812 -14.1875 2.1875 -14.375 C 2.125 -14.570312 1.960938 -14.675781 1.703125 -14.6875 L 0.484375 -14.765625 L 0.484375 -15.59375 C 1.160156 -15.664062 1.707031 -15.738281 2.125 -15.8125 C 2.550781 -15.882812 2.929688 -15.972656 3.265625 -16.078125 L 4.921875 -16.578125 L 5.109375 -16.4375 L 5.109375 -5.734375 C 5.753906 -6.285156 6.253906 -6.722656 6.609375 -7.046875 C 6.972656 -7.378906 7.285156 -7.6875 7.546875 -7.96875 L 10.015625 -10.578125 L 13.015625 -10.578125 L 13.015625 -9.703125 L 12.296875 -9.703125 C 11.929688 -9.703125 11.5625 -9.5625 11.1875 -9.28125 C 10.820312 -9.019531 10.453125 -8.734375 10.078125 -8.421875 C 9.703125 -8.109375 9.351562 -7.8125 9.03125 -7.53125 C 8.71875 -7.25 8.460938 -7.019531 8.265625 -6.84375 C 8.066406 -6.675781 7.96875 -6.59375 7.96875 -6.59375 L 12.484375 -1.515625 C 12.878906 -1.078125 13.300781 -0.832031 13.75 -0.78125 Z M 13.75 0 "/></g></g></g></g></g></g><g transform="matrix(1,0,0,1,35,28)"><g id="fe627ab50b" clip-path="url(#046adbec72)"><g style="fill:#4c489e;fill-opacity:1;"><g transform="translate(0.968678, 11.153304)"><path style="stroke:none" d="M 5.453125 -5.046875 C 5.453125 -4.671875 5.351562 -4.332031 5.15625 -4.03125 C 4.957031 -3.726562 4.6875 -3.488281 4.34375 -3.3125 C 4 -3.132812 3.609375 -3.046875 3.171875 -3.046875 C 3.078125 -3.046875 2.988281 -3.046875 2.90625 -3.046875 C 2.832031 -3.054688 2.742188 -3.078125 2.640625 -3.109375 L 2.546875 -3.4375 C 2.671875 -3.40625 2.769531 -3.378906 2.84375 -3.359375 C 2.925781 -3.347656 3.019531 -3.34375 3.125 -3.34375 C 3.53125 -3.34375 3.863281 -3.476562 4.125 -3.75 C 4.382812 -4.019531 4.515625 -4.363281 4.515625 -4.78125 C 4.515625 -5.226562 4.378906 -5.566406 4.109375 -5.796875 C 3.847656 -6.035156 3.460938 -6.15625 2.953125 -6.15625 C 2.796875 -6.15625 2.644531 -6.144531 2.5 -6.125 C 2.351562 -6.101562 2.195312 -6.070312 2.03125 -6.03125 L 2.03125 -1.125 C 2.03125 -0.882812 2.039062 -0.703125 2.0625 -0.578125 C 2.082031 -0.460938 2.125 -0.382812 2.1875 -0.34375 C 2.257812 -0.3125 2.367188 -0.289062 2.515625 -0.28125 L 2.96875 -0.25 L 2.96875 0.03125 C 2.507812 0.0078125 2.046875 0 1.578125 0 C 1.128906 0 0.671875 0.0078125 0.203125 0.03125 L 0.203125 -0.25 L 0.65625 -0.28125 C 0.800781 -0.289062 0.90625 -0.3125 0.96875 -0.34375 C 1.039062 -0.382812 1.085938 -0.460938 1.109375 -0.578125 C 1.128906 -0.703125 1.140625 -0.882812 1.140625 -1.125 L 1.140625 -5.359375 C 1.140625 -5.585938 1.125 -5.757812 1.09375 -5.875 C 1.070312 -6 1.023438 -6.082031 0.953125 -6.125 C 0.890625 -6.164062 0.785156 -6.191406 0.640625 -6.203125 L 0.21875 -6.234375 L 0.21875 -6.515625 C 0.789062 -6.492188 1.359375 -6.484375 1.921875 -6.484375 C 2.191406 -6.484375 2.457031 -6.488281 2.71875 -6.5 C 2.988281 -6.507812 3.257812 -6.515625 3.53125 -6.515625 C 4.125 -6.515625 4.59375 -6.382812 4.9375 -6.125 C 5.28125 -5.863281 5.453125 -5.503906 5.453125 -5.046875 Z M 5.453125 -5.046875 "/></g></g><g style="fill:#4c489e;fill-opacity:1;"><g transform="translate(6.645794, 11.153304)"><path style="stroke:none" d="M 4.4375 0.03125 C 4.195312 0.0078125 3.960938 0 3.734375 0 C 3.492188 0 3.25 0.0078125 3 0.03125 L 3.046875 -0.765625 L 1.875 0.03125 C 1.84375 0.0625 1.789062 0.0820312 1.71875 0.09375 C 1.65625 0.101562 1.578125 0.109375 1.484375 0.109375 C 1.117188 0.109375 0.828125 0.0078125 0.609375 -0.1875 C 0.398438 -0.394531 0.296875 -0.679688 0.296875 -1.046875 C 0.296875 -1.453125 0.4375 -1.769531 0.71875 -2 C 1.007812 -2.238281 1.472656 -2.421875 2.109375 -2.546875 L 3.046875 -2.703125 C 3.035156 -3.128906 2.929688 -3.4375 2.734375 -3.625 C 2.535156 -3.8125 2.210938 -3.90625 1.765625 -3.90625 C 1.617188 -3.90625 1.503906 -3.894531 1.421875 -3.875 C 1.347656 -3.851562 1.28125 -3.804688 1.21875 -3.734375 C 1.164062 -3.660156 1.109375 -3.550781 1.046875 -3.40625 L 0.921875 -3.109375 L 0.671875 -3.171875 L 0.671875 -3.796875 L 1.171875 -4.09375 C 1.523438 -4.300781 1.90625 -4.40625 2.3125 -4.40625 C 2.851562 -4.40625 3.234375 -4.265625 3.453125 -3.984375 C 3.679688 -3.710938 3.796875 -3.234375 3.796875 -2.546875 L 3.796875 -0.8125 C 3.796875 -0.582031 3.8125 -0.4375 3.84375 -0.375 C 3.875 -0.3125 3.945312 -0.273438 4.0625 -0.265625 L 4.4375 -0.25 Z M 3.046875 -1.171875 L 3.046875 -2.40625 C 2.691406 -2.351562 2.390625 -2.296875 2.140625 -2.234375 C 1.890625 -2.171875 1.703125 -2.101562 1.578125 -2.03125 C 1.441406 -1.945312 1.328125 -1.828125 1.234375 -1.671875 C 1.148438 -1.515625 1.109375 -1.347656 1.109375 -1.171875 C 1.109375 -0.972656 1.175781 -0.796875 1.3125 -0.640625 C 1.457031 -0.492188 1.625 -0.421875 1.8125 -0.421875 C 1.9375 -0.421875 2.078125 -0.453125 2.234375 -0.515625 C 2.390625 -0.585938 2.539062 -0.679688 2.6875 -0.796875 C 2.84375 -0.921875 2.960938 -1.046875 3.046875 -1.171875 Z M 3.046875 -1.171875 "/></g></g><g style="fill:#4c489e;fill-opacity:1;"><g transform="translate(11.345396, 11.153304)"><path style="stroke:none" d="M 4.78125 -2.546875 C 4.78125 -2.316406 4.742188 -2.082031 4.671875 -1.84375 C 4.609375 -1.613281 4.519531 -1.398438 4.40625 -1.203125 C 4.300781 -1.015625 4.175781 -0.867188 4.03125 -0.765625 L 3.09375 -0.09375 C 2.894531 0.0390625 2.625 0.109375 2.28125 0.109375 C 2.03125 0.109375 1.8125 0.0820312 1.625 0.03125 C 1.445312 -0.0195312 1.265625 -0.101562 1.078125 -0.21875 L 0.703125 0.109375 L 0.546875 0.0625 C 0.566406 -0.15625 0.582031 -0.335938 0.59375 -0.484375 C 0.601562 -0.640625 0.609375 -0.785156 0.609375 -0.921875 C 0.617188 -1.066406 0.625 -1.238281 0.625 -1.4375 L 0.625 -5.828125 C 0.625 -5.972656 0.601562 -6.070312 0.5625 -6.125 C 0.53125 -6.1875 0.472656 -6.21875 0.390625 -6.21875 L -0.140625 -6.21875 L -0.140625 -6.484375 C 0.109375 -6.515625 0.316406 -6.546875 0.484375 -6.578125 C 0.648438 -6.609375 0.796875 -6.644531 0.921875 -6.6875 C 1.054688 -6.726562 1.191406 -6.773438 1.328125 -6.828125 L 1.40625 -6.75 L 1.40625 -3.46875 L 1.921875 -4 C 2.046875 -4.125 2.210938 -4.222656 2.421875 -4.296875 C 2.640625 -4.367188 2.859375 -4.40625 3.078125 -4.40625 C 3.410156 -4.40625 3.703125 -4.328125 3.953125 -4.171875 C 4.210938 -4.015625 4.414062 -3.789062 4.5625 -3.5 C 4.707031 -3.21875 4.78125 -2.898438 4.78125 -2.546875 Z M 3.953125 -2.15625 C 3.953125 -2.65625 3.835938 -3.050781 3.609375 -3.34375 C 3.378906 -3.644531 3.066406 -3.796875 2.671875 -3.796875 C 2.265625 -3.796875 1.925781 -3.65625 1.65625 -3.375 C 1.488281 -3.1875 1.40625 -3.023438 1.40625 -2.890625 L 1.40625 -0.875 C 1.40625 -0.800781 1.46875 -0.722656 1.59375 -0.640625 C 1.726562 -0.566406 1.890625 -0.5 2.078125 -0.4375 C 2.265625 -0.382812 2.4375 -0.359375 2.59375 -0.359375 C 2.863281 -0.359375 3.097656 -0.429688 3.296875 -0.578125 C 3.503906 -0.734375 3.664062 -0.945312 3.78125 -1.21875 C 3.894531 -1.488281 3.953125 -1.800781 3.953125 -2.15625 Z M 3.953125 -2.15625 "/></g></g><g style="fill:#4c489e;fill-opacity:1;"><g transform="translate(16.543151, 11.153304)"><path style="stroke:none" d="M 2.546875 0.03125 C 2.148438 0.0078125 1.757812 0 1.375 0 C 0.988281 0 0.597656 0.0078125 0.203125 0.03125 L 0.203125 -0.25 L 0.625 -0.28125 C 0.738281 -0.289062 0.816406 -0.3125 0.859375 -0.34375 C 0.910156 -0.375 0.941406 -0.4375 0.953125 -0.53125 C 0.972656 -0.625 0.984375 -0.765625 0.984375 -0.953125 L 0.984375 -5.828125 C 0.984375 -5.972656 0.960938 -6.070312 0.921875 -6.125 C 0.890625 -6.1875 0.832031 -6.21875 0.75 -6.21875 L 0.21875 -6.21875 L 0.21875 -6.484375 C 0.46875 -6.515625 0.675781 -6.546875 0.84375 -6.578125 C 1.007812 -6.609375 1.15625 -6.644531 1.28125 -6.6875 C 1.414062 -6.726562 1.550781 -6.773438 1.6875 -6.828125 L 1.765625 -6.75 L 1.765625 -0.953125 C 1.765625 -0.765625 1.769531 -0.625 1.78125 -0.53125 C 1.800781 -0.4375 1.832031 -0.375 1.875 -0.34375 C 1.925781 -0.3125 2.003906 -0.289062 2.109375 -0.28125 L 2.546875 -0.25 Z M 2.546875 0.03125 "/></g></g><g clip-rule="nonzero" clip-path="url(#94772a3f47)"><g style="fill:#4c489e;fill-opacity:1;"><g transform="translate(19.27832, 11.153304)"><path style="stroke:none" d="M 4.828125 -2.234375 C 4.828125 -1.765625 4.71875 -1.347656 4.5 -0.984375 C 4.289062 -0.617188 4 -0.332031 3.625 -0.125 C 3.257812 0.0820312 2.835938 0.1875 2.359375 0.1875 C 1.953125 0.1875 1.59375 0.09375 1.28125 -0.09375 C 0.96875 -0.28125 0.722656 -0.539062 0.546875 -0.875 C 0.378906 -1.207031 0.296875 -1.597656 0.296875 -2.046875 C 0.296875 -2.515625 0.394531 -2.925781 0.59375 -3.28125 C 0.789062 -3.632812 1.0625 -3.910156 1.40625 -4.109375 C 1.757812 -4.304688 2.164062 -4.40625 2.625 -4.40625 C 3.050781 -4.40625 3.429688 -4.3125 3.765625 -4.125 C 4.097656 -3.9375 4.359375 -3.679688 4.546875 -3.359375 C 4.734375 -3.035156 4.828125 -2.660156 4.828125 -2.234375 Z M 3.953125 -1.875 C 3.953125 -2.300781 3.882812 -2.679688 3.75 -3.015625 C 3.625 -3.359375 3.445312 -3.625 3.21875 -3.8125 C 3 -4 2.742188 -4.09375 2.453125 -4.09375 C 2.035156 -4.09375 1.71875 -3.941406 1.5 -3.640625 C 1.28125 -3.347656 1.171875 -2.921875 1.171875 -2.359375 C 1.171875 -1.910156 1.234375 -1.519531 1.359375 -1.1875 C 1.492188 -0.851562 1.675781 -0.59375 1.90625 -0.40625 C 2.132812 -0.21875 2.40625 -0.125 2.71875 -0.125 C 3.101562 -0.125 3.40625 -0.28125 3.625 -0.59375 C 3.84375 -0.914062 3.953125 -1.34375 3.953125 -1.875 Z M 3.953125 -1.875 "/></g></g></g></g></g></g></g><g clip-rule="nonzero" clip-path="url(#1e542bd86e)"><g clip-rule="nonzero" clip-path="url(#adc712c495)"><path style=" stroke:none;fill-rule:nonzero;fill:url(#fe021afdbe);" d="M 18.167969 5.628906 L 18.167969 116.628906 L 129.167969 116.628906 L 129.167969 5.628906 Z M 18.167969 5.628906 "/></g></g><g transform="matrix(1,0,0,1,68,15)"><g clip-path="url(#b8b548b263)"><g style="fill:#ffffff;fill-opacity:1;"><g transform="translate(0.273838, 85.151977)"><path style="stroke:none" d="M 2.78125 0 L 2.78125 -0.796875 L 4.4375 -0.796875 C 6.289062 -0.796875 7.734375 -1.21875 8.765625 -2.0625 C 9.796875 -2.90625 10.3125 -4.332031 10.3125 -6.34375 L 10.3125 -50.59375 C 10.3125 -52.445312 9.796875 -53.785156 8.765625 -54.609375 C 7.734375 -55.429688 6.289062 -55.84375 4.4375 -55.84375 L 2.78125 -55.84375 L 2.78125 -56.625 L 25.625 -56.625 C 32.488281 -56.625 37.5625 -55.144531 40.84375 -52.1875 C 44.125 -49.226562 45.765625 -45.15625 45.765625 -39.96875 C 45.765625 -36.800781 45.0625 -33.851562 43.65625 -31.125 C 42.257812 -28.40625 39.945312 -26.195312 36.71875 -24.5 C 33.5 -22.8125 29.21875 -21.96875 23.875 -21.96875 L 19.515625 -21.96875 L 19.515625 -6.265625 C 19.515625 -4.304688 20.03125 -2.90625 21.0625 -2.0625 C 22.09375 -1.21875 23.53125 -0.796875 25.375 -0.796875 L 27.515625 -0.796875 L 27.515625 0 Z M 19.515625 -22.765625 L 23.078125 -22.765625 C 27.679688 -22.765625 30.957031 -24.046875 32.90625 -26.609375 C 34.863281 -29.171875 35.84375 -33.492188 35.84375 -39.578125 C 35.84375 -45.390625 34.96875 -49.550781 33.21875 -52.0625 C 31.476562 -54.582031 28.492188 -55.84375 24.265625 -55.84375 L 19.515625 -55.84375 Z M 19.515625 -22.765625 "/></g></g></g></g><g transform="matrix(1,0,0,1,30,-0.000000000000007527)"><g clip-path="url(#b12e4c9b27)"><g style="fill:#ffffff;fill-opacity:1;"><g transform="translate(1.181056, 76.252347)"><path style="stroke:none" d="M 26.828125 0.71875 C 21.703125 0.71875 17.441406 -0.367188 14.046875 -2.546875 C 10.660156 -4.734375 8.132812 -7.796875 6.46875 -11.734375 C 4.8125 -15.671875 3.984375 -20.273438 3.984375 -25.546875 C 3.984375 -30.804688 4.820312 -35.378906 6.5 -39.265625 C 8.1875 -43.160156 10.726562 -46.1875 14.125 -48.34375 C 17.519531 -50.507812 21.773438 -51.59375 26.890625 -51.59375 C 31.734375 -51.59375 35.847656 -50.507812 39.234375 -48.34375 C 42.628906 -46.1875 45.21875 -43.148438 47 -39.234375 C 48.78125 -35.328125 49.671875 -30.738281 49.671875 -25.46875 C 49.671875 -20.207031 48.78125 -15.617188 47 -11.703125 C 45.21875 -7.785156 42.628906 -4.734375 39.234375 -2.546875 C 35.847656 -0.367188 31.710938 0.71875 26.828125 0.71875 Z M 26.828125 0 C 31.660156 0 35.164062 -2.015625 37.34375 -6.046875 C 39.53125 -10.078125 40.625 -16.550781 40.625 -25.46875 C 40.625 -34.382812 39.53125 -40.847656 37.34375 -44.859375 C 35.164062 -48.867188 31.679688 -50.875 26.890625 -50.875 C 22.054688 -50.875 18.523438 -48.867188 16.296875 -44.859375 C 14.066406 -40.847656 12.953125 -34.382812 12.953125 -25.46875 C 12.953125 -16.550781 14.050781 -10.078125 16.25 -6.046875 C 18.457031 -2.015625 21.984375 0 26.828125 0 Z M 26.828125 0 "/></g></g></g></g></g></svg>