<svg xmlns="http://www.w3.org/2000/svg" xmlns:xlink="http://www.w3.org/1999/xlink" width="48" zoomAndPan="magnify" viewBox="0 0 36 36.000001" height="48" preserveAspectRatio="xMidYMid meet" version="1.2"><defs><clipPath id="5e42ee2efc"><path d="M 0.0234375 3 L 5 3 L 5 7 L 0.0234375 7 Z M 0.0234375 3 "/></clipPath><clipPath id="b793b6e31e"><path d="M 18 2 L 21.976562 2 L 21.976562 7 L 18 7 Z M 18 2 "/></clipPath><clipPath id="6cbc77c631"><rect x="0" width="22" y="0" height="9"/></clipPath><clipPath id="832004603a"><path d="M 0.199219 1 L 2 1 L 2 3.757812 L 0.199219 3.757812 Z M 0.199219 1 "/></clipPath><clipPath id="8ed2b5ac3b"><path d="M 1 2 L 3 2 L 3 3.757812 L 1 3.757812 Z M 1 2 "/></clipPath><clipPath id="6ff9607559"><path d="M 2 1 L 4 1 L 4 3.757812 L 2 3.757812 Z M 2 1 "/></clipPath><clipPath id="b65064681d"><path d="M 3 1 L 5 1 L 5 3.757812 L 3 3.757812 Z M 3 1 "/></clipPath><clipPath id="55d15d76ed"><path d="M 4 2 L 5.800781 2 L 5.800781 3.757812 L 4 3.757812 Z M 4 2 "/></clipPath><clipPath id="0fd0641cf5"><rect x="0" width="6" y="0" height="4"/></clipPath><clipPath id="0eeb9a68ea"><path d="M 8.527344 3.398438 L 28.230469 3.398438 L 28.230469 23.101562 L 8.527344 23.101562 Z M 8.527344 3.398438 "/></clipPath><clipPath id="001ac608b6"><path d="M 22.609375 3.398438 L 8.527344 3.398438 L 8.527344 17.476562 C 8.527344 20.582031 11.046875 23.101562 14.152344 23.101562 L 28.230469 23.101562 L 28.230469 9.023438 C 28.230469 5.917969 25.714844 3.398438 22.609375 3.398438 Z M 22.609375 3.398438 "/></clipPath><linearGradient x1="-0.000480464" gradientTransform="matrix(0.0394054,0,0,0.0394054,8.528285,3.398826)" y1="499.999491" x2="499.999518" gradientUnits="userSpaceOnUse" y2="-0.000507456" id="8d1922dbcc"><stop style="stop-color:#4c489e;stop-opacity:1;" offset="0"/><stop style="stop-color:#4c489e;stop-opacity:1;" offset="0.0625"/><stop style="stop-color:#4c489e;stop-opacity:1;" offset="0.078125"/><stop style="stop-color:#4c489e;stop-opacity:1;" offset="0.0859375"/><stop style="stop-color:#4d489e;stop-opacity:1;" offset="0.0898437"/><stop style="stop-color:#4e489e;stop-opacity:1;" offset="0.09375"/><stop style="stop-color:#4f499e;stop-opacity:1;" offset="0.0976562"/><stop style="stop-color:#50499e;stop-opacity:1;" offset="0.101562"/><stop style="stop-color:#51499e;stop-opacity:1;" offset="0.105469"/><stop style="stop-color:#52499e;stop-opacity:1;" offset="0.109375"/><stop style="stop-color:#52499e;stop-opacity:1;" offset="0.113281"/><stop style="stop-color:#53499e;stop-opacity:1;" offset="0.117187"/><stop style="stop-color:#544a9e;stop-opacity:1;" offset="0.121094"/><stop style="stop-color:#554a9e;stop-opacity:1;" offset="0.125"/><stop style="stop-color:#564a9f;stop-opacity:1;" offset="0.128906"/><stop style="stop-color:#574a9f;stop-opacity:1;" offset="0.132812"/><stop style="stop-color:#574a9f;stop-opacity:1;" offset="0.136719"/><stop style="stop-color:#584a9f;stop-opacity:1;" offset="0.140625"/><stop style="stop-color:#594b9f;stop-opacity:1;" offset="0.144531"/><stop style="stop-color:#5a4b9f;stop-opacity:1;" offset="0.148437"/><stop style="stop-color:#5b4b9f;stop-opacity:1;" offset="0.152344"/><stop style="stop-color:#5c4b9f;stop-opacity:1;" offset="0.15625"/><stop style="stop-color:#5c4b9f;stop-opacity:1;" offset="0.160156"/><stop style="stop-color:#5d4b9f;stop-opacity:1;" offset="0.164062"/><stop style="stop-color:#5e4b9f;stop-opacity:1;" offset="0.167969"/><stop style="stop-color:#5f4c9f;stop-opacity:1;" offset="0.171875"/><stop style="stop-color:#604c9f;stop-opacity:1;" offset="0.175781"/><stop style="stop-color:#614c9f;stop-opacity:1;" offset="0.179687"/><stop style="stop-color:#614c9f;stop-opacity:1;" offset="0.183594"/><stop style="stop-color:#624c9f;stop-opacity:1;" offset="0.1875"/><stop style="stop-color:#634c9f;stop-opacity:1;" offset="0.191406"/><stop style="stop-color:#644d9f;stop-opacity:1;" offset="0.195312"/><stop style="stop-color:#654d9f;stop-opacity:1;" offset="0.199219"/><stop style="stop-color:#664d9f;stop-opacity:1;" offset="0.203125"/><stop style="stop-color:#664d9f;stop-opacity:1;" offset="0.207031"/><stop style="stop-color:#674da0;stop-opacity:1;" offset="0.210937"/><stop style="stop-color:#684da0;stop-opacity:1;" offset="0.214844"/><stop style="stop-color:#694ea0;stop-opacity:1;" offset="0.21875"/><stop style="stop-color:#6a4ea0;stop-opacity:1;" offset="0.222656"/><stop style="stop-color:#6b4ea0;stop-opacity:1;" offset="0.226562"/><stop style="stop-color:#6b4ea0;stop-opacity:1;" offset="0.230469"/><stop style="stop-color:#6c4ea0;stop-opacity:1;" offset="0.234375"/><stop style="stop-color:#6d4ea0;stop-opacity:1;" offset="0.238281"/><stop style="stop-color:#6e4ea0;stop-opacity:1;" offset="0.242187"/><stop style="stop-color:#6f4fa0;stop-opacity:1;" offset="0.246094"/><stop style="stop-color:#704fa0;stop-opacity:1;" offset="0.25"/><stop style="stop-color:#704fa0;stop-opacity:1;" offset="0.253906"/><stop style="stop-color:#714fa0;stop-opacity:1;" offset="0.257812"/><stop style="stop-color:#724fa0;stop-opacity:1;" offset="0.261719"/><stop style="stop-color:#734fa0;stop-opacity:1;" offset="0.265625"/><stop style="stop-color:#7450a0;stop-opacity:1;" offset="0.269531"/><stop style="stop-color:#7550a0;stop-opacity:1;" offset="0.273438"/><stop style="stop-color:#7550a0;stop-opacity:1;" offset="0.277344"/><stop style="stop-color:#7650a0;stop-opacity:1;" offset="0.28125"/><stop style="stop-color:#7750a0;stop-opacity:1;" offset="0.285156"/><stop style="stop-color:#7850a0;stop-opacity:1;" offset="0.289062"/><stop style="stop-color:#7951a1;stop-opacity:1;" offset="0.292969"/><stop style="stop-color:#7a51a1;stop-opacity:1;" offset="0.296875"/><stop style="stop-color:#7b51a1;stop-opacity:1;" offset="0.300781"/><stop style="stop-color:#7b51a1;stop-opacity:1;" offset="0.304688"/><stop style="stop-color:#7c51a1;stop-opacity:1;" offset="0.308594"/><stop style="stop-color:#7d51a1;stop-opacity:1;" offset="0.3125"/><stop style="stop-color:#7e52a1;stop-opacity:1;" offset="0.316406"/><stop style="stop-color:#7f52a1;stop-opacity:1;" offset="0.320312"/><stop style="stop-color:#8052a1;stop-opacity:1;" offset="0.324219"/><stop style="stop-color:#8052a1;stop-opacity:1;" offset="0.328125"/><stop style="stop-color:#8152a1;stop-opacity:1;" offset="0.332031"/><stop style="stop-color:#8252a1;stop-opacity:1;" offset="0.335938"/><stop style="stop-color:#8352a1;stop-opacity:1;" offset="0.339844"/><stop style="stop-color:#8453a1;stop-opacity:1;" offset="0.34375"/><stop style="stop-color:#8553a1;stop-opacity:1;" offset="0.347656"/><stop style="stop-color:#8553a1;stop-opacity:1;" offset="0.351562"/><stop style="stop-color:#8653a1;stop-opacity:1;" offset="0.355469"/><stop style="stop-color:#8753a1;stop-opacity:1;" offset="0.359375"/><stop style="stop-color:#8853a1;stop-opacity:1;" offset="0.363281"/><stop style="stop-color:#8954a1;stop-opacity:1;" offset="0.367188"/><stop style="stop-color:#8a54a1;stop-opacity:1;" offset="0.371094"/><stop style="stop-color:#8a54a1;stop-opacity:1;" offset="0.375"/><stop style="stop-color:#8b54a2;stop-opacity:1;" offset="0.378906"/><stop style="stop-color:#8c54a2;stop-opacity:1;" offset="0.382812"/><stop style="stop-color:#8d54a2;stop-opacity:1;" offset="0.386719"/><stop style="stop-color:#8e55a2;stop-opacity:1;" offset="0.390625"/><stop style="stop-color:#8f55a2;stop-opacity:1;" offset="0.394531"/><stop style="stop-color:#8f55a2;stop-opacity:1;" offset="0.398438"/><stop style="stop-color:#9055a2;stop-opacity:1;" offset="0.402344"/><stop style="stop-color:#9155a2;stop-opacity:1;" offset="0.40625"/><stop style="stop-color:#9255a2;stop-opacity:1;" offset="0.410156"/><stop style="stop-color:#9356a2;stop-opacity:1;" offset="0.414062"/><stop style="stop-color:#9456a2;stop-opacity:1;" offset="0.417969"/><stop style="stop-color:#9456a2;stop-opacity:1;" offset="0.421875"/><stop style="stop-color:#9556a2;stop-opacity:1;" offset="0.425781"/><stop style="stop-color:#9656a2;stop-opacity:1;" offset="0.429688"/><stop style="stop-color:#9756a2;stop-opacity:1;" offset="0.433594"/><stop style="stop-color:#9856a2;stop-opacity:1;" offset="0.4375"/><stop style="stop-color:#9957a2;stop-opacity:1;" offset="0.441406"/><stop style="stop-color:#9957a2;stop-opacity:1;" offset="0.445312"/><stop style="stop-color:#9a57a2;stop-opacity:1;" offset="0.449219"/><stop style="stop-color:#9b57a2;stop-opacity:1;" offset="0.453125"/><stop style="stop-color:#9c57a2;stop-opacity:1;" offset="0.457031"/><stop style="stop-color:#9d57a3;stop-opacity:1;" offset="0.460938"/><stop style="stop-color:#9e58a3;stop-opacity:1;" offset="0.464844"/><stop style="stop-color:#9e58a3;stop-opacity:1;" offset="0.46875"/><stop style="stop-color:#9f58a3;stop-opacity:1;" offset="0.472656"/><stop style="stop-color:#a058a3;stop-opacity:1;" offset="0.476562"/><stop style="stop-color:#a158a3;stop-opacity:1;" offset="0.480469"/><stop style="stop-color:#a258a3;stop-opacity:1;" offset="0.484375"/><stop style="stop-color:#a359a3;stop-opacity:1;" offset="0.488281"/><stop style="stop-color:#a459a3;stop-opacity:1;" offset="0.492188"/><stop style="stop-color:#a459a3;stop-opacity:1;" offset="0.496094"/><stop style="stop-color:#a559a3;stop-opacity:1;" offset="0.5"/><stop style="stop-color:#a65aa2;stop-opacity:1;" offset="0.503906"/><stop style="stop-color:#a75aa2;stop-opacity:1;" offset="0.507812"/><stop style="stop-color:#a75ba1;stop-opacity:1;" offset="0.511719"/><stop style="stop-color:#a85ba0;stop-opacity:1;" offset="0.515625"/><stop style="stop-color:#a95ca0;stop-opacity:1;" offset="0.519531"/><stop style="stop-color:#aa5d9f;stop-opacity:1;" offset="0.523437"/><stop style="stop-color:#aa5d9e;stop-opacity:1;" offset="0.527344"/><stop style="stop-color:#ab5e9e;stop-opacity:1;" offset="0.53125"/><stop style="stop-color:#ac5e9d;stop-opacity:1;" offset="0.535156"/><stop style="stop-color:#ac5f9c;stop-opacity:1;" offset="0.539063"/><stop style="stop-color:#ad5f9c;stop-opacity:1;" offset="0.542969"/><stop style="stop-color:#ae609b;stop-opacity:1;" offset="0.546875"/><stop style="stop-color:#af619a;stop-opacity:1;" offset="0.550781"/><stop style="stop-color:#af619a;stop-opacity:1;" offset="0.554688"/><stop style="stop-color:#b06299;stop-opacity:1;" offset="0.558594"/><stop style="stop-color:#b16298;stop-opacity:1;" offset="0.5625"/><stop style="stop-color:#b26398;stop-opacity:1;" offset="0.566406"/><stop style="stop-color:#b26397;stop-opacity:1;" offset="0.570312"/><stop style="stop-color:#b36496;stop-opacity:1;" offset="0.574219"/><stop style="stop-color:#b46596;stop-opacity:1;" offset="0.578125"/><stop style="stop-color:#b46595;stop-opacity:1;" offset="0.582031"/><stop style="stop-color:#b56694;stop-opacity:1;" offset="0.585938"/><stop style="stop-color:#b66694;stop-opacity:1;" offset="0.589844"/><stop style="stop-color:#b76793;stop-opacity:1;" offset="0.59375"/><stop style="stop-color:#b76792;stop-opacity:1;" offset="0.597656"/><stop style="stop-color:#b86892;stop-opacity:1;" offset="0.601563"/><stop style="stop-color:#b96991;stop-opacity:1;" offset="0.605469"/><stop style="stop-color:#ba6990;stop-opacity:1;" offset="0.609375"/><stop style="stop-color:#ba6a90;stop-opacity:1;" offset="0.613281"/><stop style="stop-color:#bb6a8f;stop-opacity:1;" offset="0.617188"/><stop style="stop-color:#bc6b8e;stop-opacity:1;" offset="0.621094"/><stop style="stop-color:#bd6b8e;stop-opacity:1;" offset="0.625"/><stop style="stop-color:#bd6c8d;stop-opacity:1;" offset="0.628906"/><stop style="stop-color:#be6d8c;stop-opacity:1;" offset="0.632812"/><stop style="stop-color:#bf6d8c;stop-opacity:1;" offset="0.636719"/><stop style="stop-color:#bf6e8b;stop-opacity:1;" offset="0.640625"/><stop style="stop-color:#c06e8a;stop-opacity:1;" offset="0.644531"/><stop style="stop-color:#c16f8a;stop-opacity:1;" offset="0.648438"/><stop style="stop-color:#c26f89;stop-opacity:1;" offset="0.652344"/><stop style="stop-color:#c27088;stop-opacity:1;" offset="0.65625"/><stop style="stop-color:#c37188;stop-opacity:1;" offset="0.660156"/><stop style="stop-color:#c47187;stop-opacity:1;" offset="0.664063"/><stop style="stop-color:#c57286;stop-opacity:1;" offset="0.667969"/><stop style="stop-color:#c57286;stop-opacity:1;" offset="0.671875"/><stop style="stop-color:#c67385;stop-opacity:1;" offset="0.675781"/><stop style="stop-color:#c77384;stop-opacity:1;" offset="0.679688"/><stop style="stop-color:#c77484;stop-opacity:1;" offset="0.683594"/><stop style="stop-color:#c87583;stop-opacity:1;" offset="0.6875"/><stop style="stop-color:#c97582;stop-opacity:1;" offset="0.691406"/><stop style="stop-color:#ca7682;stop-opacity:1;" offset="0.695312"/><stop style="stop-color:#ca7681;stop-opacity:1;" offset="0.699219"/><stop style="stop-color:#cb7780;stop-opacity:1;" offset="0.703125"/><stop style="stop-color:#cc7780;stop-opacity:1;" offset="0.707031"/><stop style="stop-color:#cd787f;stop-opacity:1;" offset="0.710938"/><stop style="stop-color:#cd797e;stop-opacity:1;" offset="0.714844"/><stop style="stop-color:#ce797e;stop-opacity:1;" offset="0.71875"/><stop style="stop-color:#cf7a7d;stop-opacity:1;" offset="0.722656"/><stop style="stop-color:#d07a7c;stop-opacity:1;" offset="0.726562"/><stop style="stop-color:#d07b7c;stop-opacity:1;" offset="0.730469"/><stop style="stop-color:#d17b7b;stop-opacity:1;" offset="0.734375"/><stop style="stop-color:#d27c7a;stop-opacity:1;" offset="0.738281"/><stop style="stop-color:#d27d7a;stop-opacity:1;" offset="0.742187"/><stop style="stop-color:#d37d79;stop-opacity:1;" offset="0.746094"/><stop style="stop-color:#d47e78;stop-opacity:1;" offset="0.75"/><stop style="stop-color:#d57e78;stop-opacity:1;" offset="0.753906"/><stop style="stop-color:#d57f77;stop-opacity:1;" offset="0.757813"/><stop style="stop-color:#d67f76;stop-opacity:1;" offset="0.761719"/><stop style="stop-color:#d78076;stop-opacity:1;" offset="0.765625"/><stop style="stop-color:#d88175;stop-opacity:1;" offset="0.769531"/><stop style="stop-color:#d88174;stop-opacity:1;" offset="0.773438"/><stop style="stop-color:#d98274;stop-opacity:1;" offset="0.777344"/><stop style="stop-color:#da8273;stop-opacity:1;" offset="0.78125"/><stop style="stop-color:#da8372;stop-opacity:1;" offset="0.785156"/><stop style="stop-color:#db8372;stop-opacity:1;" offset="0.789062"/><stop style="stop-color:#dc8471;stop-opacity:1;" offset="0.792969"/><stop style="stop-color:#dd8570;stop-opacity:1;" offset="0.796875"/><stop style="stop-color:#dd8570;stop-opacity:1;" offset="0.800781"/><stop style="stop-color:#de866f;stop-opacity:1;" offset="0.804688"/><stop style="stop-color:#df866e;stop-opacity:1;" offset="0.808594"/><stop style="stop-color:#e0876e;stop-opacity:1;" offset="0.8125"/><stop style="stop-color:#e0876d;stop-opacity:1;" offset="0.816406"/><stop style="stop-color:#e1886c;stop-opacity:1;" offset="0.820312"/><stop style="stop-color:#e2896c;stop-opacity:1;" offset="0.824219"/><stop style="stop-color:#e2896b;stop-opacity:1;" offset="0.828125"/><stop style="stop-color:#e38a6a;stop-opacity:1;" offset="0.832031"/><stop style="stop-color:#e48a6a;stop-opacity:1;" offset="0.835937"/><stop style="stop-color:#e58b69;stop-opacity:1;" offset="0.839844"/><stop style="stop-color:#e58b68;stop-opacity:1;" offset="0.84375"/><stop style="stop-color:#e68c68;stop-opacity:1;" offset="0.847656"/><stop style="stop-color:#e78d67;stop-opacity:1;" offset="0.851562"/><stop style="stop-color:#e88d66;stop-opacity:1;" offset="0.855469"/><stop style="stop-color:#e88e66;stop-opacity:1;" offset="0.859375"/><stop style="stop-color:#e98e65;stop-opacity:1;" offset="0.863281"/><stop style="stop-color:#ea8f64;stop-opacity:1;" offset="0.867188"/><stop style="stop-color:#eb8f64;stop-opacity:1;" offset="0.871094"/><stop style="stop-color:#eb9063;stop-opacity:1;" offset="0.875"/><stop style="stop-color:#ec9162;stop-opacity:1;" offset="0.878906"/><stop style="stop-color:#ed9162;stop-opacity:1;" offset="0.882812"/><stop style="stop-color:#ed9261;stop-opacity:1;" offset="0.886719"/><stop style="stop-color:#ee9260;stop-opacity:1;" offset="0.890625"/><stop style="stop-color:#ef9360;stop-opacity:1;" offset="0.894531"/><stop style="stop-color:#f0935f;stop-opacity:1;" offset="0.898437"/><stop style="stop-color:#f0945e;stop-opacity:1;" offset="0.902344"/><stop style="stop-color:#f1945e;stop-opacity:1;" offset="0.90625"/><stop style="stop-color:#f2955d;stop-opacity:1;" offset="0.910156"/><stop style="stop-color:#f3965c;stop-opacity:1;" offset="0.914062"/><stop style="stop-color:#f3965c;stop-opacity:1;" offset="0.921875"/><stop style="stop-color:#f3965c;stop-opacity:1;" offset="0.9375"/><stop style="stop-color:#f3965c;stop-opacity:1;" offset="1"/></linearGradient><clipPath id="bdfc4e8376"><rect x="0" width="10" y="0" height="20"/></clipPath><clipPath id="187f20b1ba"><rect x="0" width="11" y="0" height="19"/></clipPath></defs><g id="0a3a2b3bb0"><g transform="matrix(1,0,0,1,7,21)"><g clip-path="url(#6cbc77c631)"><g clip-rule="nonzero" clip-path="url(#5e42ee2efc)"><g style="fill:#4c489e;fill-opacity:1;"><g transform="translate(0.0929298, 6.808086)"><path style="stroke:none" d="M 4.234375 -1.859375 C 4.234375 -1.453125 4.148438 -1.101562 3.984375 -0.8125 C 3.828125 -0.519531 3.59375 -0.296875 3.28125 -0.140625 C 2.976562 0.015625 2.613281 0.09375 2.1875 0.09375 C 1.570312 0.09375 1.09375 -0.0664062 0.75 -0.390625 C 0.414062 -0.722656 0.25 -1.1875 0.25 -1.78125 C 0.25 -2.195312 0.328125 -2.546875 0.484375 -2.828125 C 0.648438 -3.117188 0.882812 -3.34375 1.1875 -3.5 C 1.5 -3.65625 1.875 -3.734375 2.3125 -3.734375 C 2.914062 -3.734375 3.382812 -3.566406 3.71875 -3.234375 C 4.0625 -2.910156 4.234375 -2.453125 4.234375 -1.859375 Z M 3.421875 -1.75 C 3.421875 -2.050781 3.378906 -2.328125 3.296875 -2.578125 C 3.222656 -2.828125 3.113281 -3.019531 2.96875 -3.15625 C 2.78125 -3.34375 2.546875 -3.4375 2.265625 -3.4375 C 1.921875 -3.4375 1.644531 -3.332031 1.4375 -3.125 C 1.1875 -2.875 1.0625 -2.46875 1.0625 -1.90625 C 1.0625 -1.601562 1.097656 -1.328125 1.171875 -1.078125 C 1.253906 -0.828125 1.367188 -0.628906 1.515625 -0.484375 C 1.703125 -0.296875 1.9375 -0.203125 2.21875 -0.203125 C 2.613281 -0.203125 2.910156 -0.332031 3.109375 -0.59375 C 3.316406 -0.851562 3.421875 -1.238281 3.421875 -1.75 Z M 3.421875 -1.75 "/></g></g></g><g style="fill:#4c489e;fill-opacity:1;"><g transform="translate(4.573679, 6.808086)"><path style="stroke:none" d="M 4.640625 0.015625 C 4.460938 0.00390625 4.285156 0 4.109375 0 C 3.953125 0 3.789062 0.00390625 3.625 0.015625 L 3.625 -1.453125 C 3.625 -1.859375 3.46875 -2.0625 3.15625 -2.0625 C 3.082031 -2.0625 3.007812 -2.046875 2.9375 -2.015625 C 2.875 -1.984375 2.820312 -1.9375 2.78125 -1.875 C 2.738281 -1.820312 2.71875 -1.765625 2.71875 -1.703125 L 2.71875 -0.53125 C 2.71875 -0.394531 2.726562 -0.304688 2.75 -0.265625 C 2.78125 -0.222656 2.832031 -0.195312 2.90625 -0.1875 L 3.09375 -0.1875 L 3.09375 0.015625 C 2.863281 0.00390625 2.628906 0 2.390625 0 C 2.160156 0 1.929688 0.00390625 1.703125 0.015625 L 1.703125 -0.1875 L 1.875 -0.1875 C 1.957031 -0.195312 2.007812 -0.222656 2.03125 -0.265625 C 2.050781 -0.304688 2.0625 -0.394531 2.0625 -0.53125 L 2.0625 -1.453125 C 2.0625 -1.859375 1.910156 -2.0625 1.609375 -2.0625 C 1.535156 -2.0625 1.460938 -2.046875 1.390625 -2.015625 C 1.328125 -1.984375 1.273438 -1.9375 1.234375 -1.875 C 1.191406 -1.820312 1.171875 -1.765625 1.171875 -1.703125 L 1.171875 -0.53125 C 1.171875 -0.394531 1.179688 -0.304688 1.203125 -0.265625 C 1.222656 -0.222656 1.273438 -0.195312 1.359375 -0.1875 L 1.5 -0.1875 L 1.5 0.015625 C 1.28125 0.00390625 1.054688 0 0.828125 0 C 0.597656 0 0.363281 0.00390625 0.125 0.015625 L 0.125 -0.1875 L 0.3125 -0.1875 C 0.394531 -0.195312 0.445312 -0.222656 0.46875 -0.265625 C 0.5 -0.304688 0.515625 -0.394531 0.515625 -0.53125 L 0.515625 -1.71875 C 0.515625 -1.875 0.503906 -1.972656 0.484375 -2.015625 C 0.472656 -2.054688 0.4375 -2.082031 0.375 -2.09375 L 0.125 -2.109375 L 0.125 -2.296875 C 0.226562 -2.304688 0.316406 -2.316406 0.390625 -2.328125 C 0.472656 -2.335938 0.570312 -2.359375 0.6875 -2.390625 C 0.800781 -2.421875 0.953125 -2.46875 1.140625 -2.53125 L 1.171875 -2.5 L 1.171875 -2.09375 L 1.59375 -2.421875 C 1.6875 -2.492188 1.816406 -2.53125 1.984375 -2.53125 C 2.160156 -2.53125 2.304688 -2.492188 2.421875 -2.421875 C 2.535156 -2.359375 2.625 -2.25 2.6875 -2.09375 L 3.125 -2.421875 C 3.207031 -2.492188 3.332031 -2.53125 3.5 -2.53125 C 3.695312 -2.53125 3.847656 -2.5 3.953125 -2.4375 C 4.066406 -2.375 4.144531 -2.269531 4.1875 -2.125 C 4.238281 -1.976562 4.265625 -1.78125 4.265625 -1.53125 L 4.265625 -0.53125 C 4.265625 -0.394531 4.273438 -0.304688 4.296875 -0.265625 C 4.328125 -0.222656 4.382812 -0.195312 4.46875 -0.1875 L 4.640625 -0.1875 Z M 4.640625 0.015625 "/></g></g><g style="fill:#4c489e;fill-opacity:1;"><g transform="translate(9.355656, 6.808086)"><path style="stroke:none" d="M 2.484375 -1.3125 C 2.328125 -1.269531 2.179688 -1.238281 2.046875 -1.21875 C 1.921875 -1.207031 1.78125 -1.203125 1.625 -1.203125 L 0.921875 -1.203125 C 0.929688 -1.066406 0.941406 -0.960938 0.953125 -0.890625 C 0.972656 -0.816406 1.007812 -0.738281 1.0625 -0.65625 C 1.125 -0.550781 1.21875 -0.460938 1.34375 -0.390625 C 1.46875 -0.328125 1.59375 -0.296875 1.71875 -0.296875 C 1.832031 -0.296875 1.9375 -0.304688 2.03125 -0.328125 C 2.125 -0.359375 2.234375 -0.410156 2.359375 -0.484375 L 2.421875 -0.390625 L 2.3125 -0.140625 C 2.195312 -0.078125 2.09375 -0.03125 2 0 C 1.90625 0.03125 1.816406 0.0507812 1.734375 0.0625 C 1.648438 0.0820312 1.554688 0.09375 1.453125 0.09375 C 1.054688 0.09375 0.75 -0.015625 0.53125 -0.234375 C 0.320312 -0.460938 0.21875 -0.789062 0.21875 -1.21875 C 0.21875 -1.476562 0.257812 -1.691406 0.34375 -1.859375 C 0.425781 -2.023438 0.554688 -2.15625 0.734375 -2.25 L 0.984375 -2.40625 C 1.128906 -2.488281 1.285156 -2.53125 1.453125 -2.53125 C 1.765625 -2.53125 2.015625 -2.441406 2.203125 -2.265625 C 2.390625 -2.097656 2.484375 -1.867188 2.484375 -1.578125 Z M 1.796875 -1.484375 C 1.796875 -1.742188 1.757812 -1.929688 1.6875 -2.046875 C 1.613281 -2.171875 1.5 -2.234375 1.34375 -2.234375 C 1.195312 -2.234375 1.082031 -2.171875 1 -2.046875 C 0.925781 -1.929688 0.890625 -1.742188 0.890625 -1.484375 L 1.0625 -1.484375 C 1.164062 -1.472656 1.226562 -1.46875 1.25 -1.46875 C 1.269531 -1.46875 1.28125 -1.46875 1.28125 -1.46875 C 1.289062 -1.46875 1.3125 -1.46875 1.34375 -1.46875 C 1.40625 -1.46875 1.46875 -1.46875 1.53125 -1.46875 C 1.601562 -1.476562 1.664062 -1.484375 1.71875 -1.484375 C 1.769531 -1.484375 1.796875 -1.484375 1.796875 -1.484375 Z M 1.796875 -1.484375 "/></g></g><g style="fill:#4c489e;fill-opacity:1;"><g transform="translate(12.045182, 6.808086)"><path style="stroke:none" d="M 3.15625 0.015625 C 2.96875 0.00390625 2.785156 0 2.609375 0 C 2.453125 0 2.289062 0.00390625 2.125 0.015625 L 2.125 -1.453125 C 2.125 -1.671875 2.082031 -1.828125 2 -1.921875 C 1.925781 -2.015625 1.800781 -2.0625 1.625 -2.0625 C 1.507812 -2.0625 1.40625 -2.023438 1.3125 -1.953125 C 1.21875 -1.878906 1.171875 -1.796875 1.171875 -1.703125 L 1.171875 -0.53125 C 1.171875 -0.394531 1.179688 -0.304688 1.203125 -0.265625 C 1.222656 -0.222656 1.273438 -0.195312 1.359375 -0.1875 L 1.546875 -0.1875 L 1.546875 0.015625 C 1.304688 0.00390625 1.066406 0 0.828125 0 C 0.597656 0 0.363281 0.00390625 0.125 0.015625 L 0.125 -0.1875 L 0.3125 -0.1875 C 0.394531 -0.195312 0.445312 -0.222656 0.46875 -0.265625 C 0.5 -0.304688 0.515625 -0.394531 0.515625 -0.53125 L 0.515625 -1.71875 C 0.515625 -1.875 0.503906 -1.972656 0.484375 -2.015625 C 0.472656 -2.054688 0.4375 -2.082031 0.375 -2.09375 L 0.125 -2.109375 L 0.125 -2.296875 C 0.226562 -2.304688 0.316406 -2.316406 0.390625 -2.328125 C 0.472656 -2.335938 0.570312 -2.359375 0.6875 -2.390625 C 0.800781 -2.421875 0.953125 -2.46875 1.140625 -2.53125 L 1.171875 -2.5 L 1.171875 -2.09375 L 1.59375 -2.421875 C 1.675781 -2.492188 1.800781 -2.53125 1.96875 -2.53125 C 2.238281 -2.53125 2.445312 -2.457031 2.59375 -2.3125 C 2.664062 -2.226562 2.710938 -2.128906 2.734375 -2.015625 C 2.765625 -1.898438 2.78125 -1.738281 2.78125 -1.53125 L 2.78125 -0.53125 C 2.78125 -0.394531 2.789062 -0.304688 2.8125 -0.265625 C 2.84375 -0.222656 2.898438 -0.195312 2.984375 -0.1875 L 3.15625 -0.1875 Z M 2.625 -3.5625 C 2.5625 -3.320312 2.476562 -3.144531 2.375 -3.03125 C 2.28125 -2.925781 2.15625 -2.875 2 -2.875 C 1.9375 -2.875 1.867188 -2.882812 1.796875 -2.90625 C 1.734375 -2.925781 1.648438 -2.960938 1.546875 -3.015625 C 1.441406 -3.066406 1.359375 -3.097656 1.296875 -3.109375 C 1.234375 -3.128906 1.175781 -3.140625 1.125 -3.140625 C 1.019531 -3.140625 0.9375 -3.054688 0.875 -2.890625 L 0.671875 -2.890625 C 0.691406 -3.085938 0.757812 -3.25 0.875 -3.375 C 0.988281 -3.5 1.128906 -3.5625 1.296875 -3.5625 C 1.347656 -3.5625 1.40625 -3.550781 1.46875 -3.53125 C 1.53125 -3.507812 1.613281 -3.472656 1.71875 -3.421875 C 1.820312 -3.378906 1.898438 -3.347656 1.953125 -3.328125 C 2.015625 -3.304688 2.070312 -3.296875 2.125 -3.296875 C 2.1875 -3.296875 2.234375 -3.3125 2.265625 -3.34375 C 2.304688 -3.382812 2.347656 -3.457031 2.390625 -3.5625 Z M 2.625 -3.5625 "/></g></g><g style="fill:#4c489e;fill-opacity:1;"><g transform="translate(15.331783, 6.808086)"><path style="stroke:none" d="M 3.140625 0.015625 C 2.953125 0.00390625 2.769531 0 2.59375 0 C 2.425781 0 2.253906 0.00390625 2.078125 0.015625 L 2.109375 -0.4375 L 1.703125 -0.03125 C 1.617188 0.0507812 1.492188 0.09375 1.328125 0.09375 C 1.066406 0.09375 0.863281 0.0195312 0.71875 -0.125 C 0.582031 -0.269531 0.515625 -0.476562 0.515625 -0.75 L 0.515625 -1.71875 C 0.515625 -1.875 0.503906 -1.972656 0.484375 -2.015625 C 0.472656 -2.054688 0.4375 -2.082031 0.375 -2.09375 L 0.140625 -2.109375 L 0.140625 -2.296875 C 0.253906 -2.316406 0.34375 -2.332031 0.40625 -2.34375 C 0.46875 -2.351562 0.523438 -2.363281 0.578125 -2.375 C 0.628906 -2.382812 0.679688 -2.394531 0.734375 -2.40625 L 1.125 -2.53125 L 1.171875 -2.5 L 1.171875 -1.09375 C 1.171875 -0.832031 1.203125 -0.648438 1.265625 -0.546875 C 1.328125 -0.441406 1.4375 -0.390625 1.59375 -0.390625 C 1.738281 -0.390625 1.859375 -0.4375 1.953125 -0.53125 C 2.054688 -0.625 2.109375 -0.738281 2.109375 -0.875 L 2.109375 -1.71875 C 2.109375 -1.875 2.097656 -1.972656 2.078125 -2.015625 C 2.066406 -2.054688 2.03125 -2.082031 1.96875 -2.09375 L 1.71875 -2.109375 L 1.71875 -2.296875 C 1.832031 -2.316406 1.921875 -2.332031 1.984375 -2.34375 C 2.054688 -2.351562 2.117188 -2.363281 2.171875 -2.375 C 2.222656 -2.382812 2.273438 -2.394531 2.328125 -2.40625 L 2.703125 -2.53125 L 2.765625 -2.5 L 2.765625 -0.53125 C 2.765625 -0.394531 2.773438 -0.304688 2.796875 -0.265625 C 2.816406 -0.222656 2.867188 -0.195312 2.953125 -0.1875 L 3.140625 -0.1875 Z M 3.140625 0.015625 "/></g></g><g clip-rule="nonzero" clip-path="url(#b793b6e31e)"><g style="fill:#4c489e;fill-opacity:1;"><g transform="translate(18.618383, 6.808086)"><path style="stroke:none" d="M 3.203125 0 L 2.28125 0 C 2.175781 -0.132812 2.09375 -0.238281 2.03125 -0.3125 C 1.96875 -0.394531 1.914062 -0.457031 1.875 -0.5 C 1.832031 -0.539062 1.785156 -0.585938 1.734375 -0.640625 C 1.691406 -0.691406 1.632812 -0.757812 1.5625 -0.84375 C 1.488281 -0.9375 1.382812 -1.0625 1.25 -1.21875 L 1.1875 -1.21875 L 1.1875 -0.53125 C 1.1875 -0.394531 1.195312 -0.304688 1.21875 -0.265625 C 1.25 -0.222656 1.304688 -0.195312 1.390625 -0.1875 L 1.578125 -0.1875 L 1.578125 0.015625 C 1.335938 0.00390625 1.09375 0 0.84375 0 C 0.613281 0 0.382812 0.00390625 0.15625 0.015625 L 0.15625 -0.1875 L 0.34375 -0.1875 C 0.425781 -0.195312 0.476562 -0.222656 0.5 -0.265625 C 0.519531 -0.304688 0.53125 -0.394531 0.53125 -0.53125 L 0.53125 -3.046875 C 0.53125 -3.210938 0.519531 -3.316406 0.5 -3.359375 C 0.488281 -3.398438 0.453125 -3.421875 0.390625 -3.421875 L 0.109375 -3.453125 L 0.109375 -3.640625 C 0.265625 -3.660156 0.390625 -3.675781 0.484375 -3.6875 C 0.585938 -3.707031 0.679688 -3.726562 0.765625 -3.75 L 1.15625 -3.875 L 1.1875 -3.84375 L 1.1875 -1.34375 C 1.34375 -1.46875 1.460938 -1.566406 1.546875 -1.640625 C 1.628906 -1.722656 1.703125 -1.796875 1.765625 -1.859375 L 2.34375 -2.46875 L 3.03125 -2.46875 L 3.03125 -2.265625 L 2.875 -2.265625 C 2.78125 -2.265625 2.691406 -2.234375 2.609375 -2.171875 C 2.523438 -2.109375 2.4375 -2.039062 2.34375 -1.96875 C 2.257812 -1.894531 2.179688 -1.820312 2.109375 -1.75 C 2.035156 -1.6875 1.972656 -1.632812 1.921875 -1.59375 C 1.878906 -1.550781 1.859375 -1.53125 1.859375 -1.53125 L 2.90625 -0.359375 C 3 -0.253906 3.097656 -0.195312 3.203125 -0.1875 Z M 3.203125 0 "/></g></g></g></g></g><g transform="matrix(1,0,0,1,15,28)"><g clip-path="url(#0fd0641cf5)"><g clip-rule="nonzero" clip-path="url(#832004603a)"><g style="fill:#4c489e;fill-opacity:1;"><g transform="translate(0.262111, 3.085184)"><path style="stroke:none" d="M 1.265625 -1.171875 C 1.265625 -1.085938 1.238281 -1.007812 1.1875 -0.9375 C 1.144531 -0.863281 1.082031 -0.804688 1 -0.765625 C 0.925781 -0.722656 0.835938 -0.703125 0.734375 -0.703125 C 0.710938 -0.703125 0.691406 -0.703125 0.671875 -0.703125 C 0.660156 -0.710938 0.640625 -0.71875 0.609375 -0.71875 L 0.59375 -0.796875 C 0.625 -0.785156 0.644531 -0.78125 0.65625 -0.78125 C 0.675781 -0.78125 0.695312 -0.78125 0.71875 -0.78125 C 0.820312 -0.78125 0.898438 -0.8125 0.953125 -0.875 C 1.015625 -0.9375 1.046875 -1.015625 1.046875 -1.109375 C 1.046875 -1.210938 1.015625 -1.289062 0.953125 -1.34375 C 0.890625 -1.40625 0.800781 -1.4375 0.6875 -1.4375 C 0.644531 -1.4375 0.609375 -1.429688 0.578125 -1.421875 C 0.546875 -1.421875 0.507812 -1.414062 0.46875 -1.40625 L 0.46875 -0.265625 C 0.46875 -0.203125 0.46875 -0.15625 0.46875 -0.125 C 0.476562 -0.101562 0.488281 -0.0859375 0.5 -0.078125 C 0.519531 -0.0664062 0.546875 -0.0625 0.578125 -0.0625 L 0.6875 -0.0625 L 0.6875 0 C 0.582031 0 0.476562 0 0.375 0 C 0.257812 0 0.148438 0 0.046875 0 L 0.046875 -0.0625 L 0.15625 -0.0625 C 0.1875 -0.0625 0.207031 -0.0664062 0.21875 -0.078125 C 0.238281 -0.0859375 0.25 -0.101562 0.25 -0.125 C 0.257812 -0.15625 0.265625 -0.203125 0.265625 -0.265625 L 0.265625 -1.25 C 0.265625 -1.300781 0.257812 -1.335938 0.25 -1.359375 C 0.25 -1.390625 0.238281 -1.410156 0.21875 -1.421875 C 0.207031 -1.429688 0.1875 -1.4375 0.15625 -1.4375 L 0.046875 -1.453125 L 0.046875 -1.515625 C 0.179688 -1.503906 0.316406 -1.5 0.453125 -1.5 C 0.515625 -1.5 0.570312 -1.5 0.625 -1.5 C 0.6875 -1.507812 0.75 -1.515625 0.8125 -1.515625 C 0.957031 -1.515625 1.066406 -1.484375 1.140625 -1.421875 C 1.222656 -1.359375 1.265625 -1.273438 1.265625 -1.171875 Z M 1.265625 -1.171875 "/></g></g></g><g clip-rule="nonzero" clip-path="url(#8ed2b5ac3b)"><g style="fill:#4c489e;fill-opacity:1;"><g transform="translate(1.587794, 3.085184)"><path style="stroke:none" d="M 1.03125 0 C 0.976562 0 0.925781 0 0.875 0 C 0.8125 0 0.753906 0 0.703125 0 L 0.703125 -0.171875 L 0.4375 0.015625 C 0.425781 0.015625 0.410156 0.015625 0.390625 0.015625 C 0.378906 0.0234375 0.363281 0.03125 0.34375 0.03125 C 0.257812 0.03125 0.191406 0.0078125 0.140625 -0.03125 C 0.0859375 -0.0820312 0.0625 -0.15625 0.0625 -0.25 C 0.0625 -0.34375 0.09375 -0.414062 0.15625 -0.46875 C 0.226562 -0.519531 0.335938 -0.5625 0.484375 -0.59375 L 0.703125 -0.625 C 0.703125 -0.726562 0.675781 -0.800781 0.625 -0.84375 C 0.582031 -0.882812 0.507812 -0.90625 0.40625 -0.90625 C 0.375 -0.90625 0.347656 -0.898438 0.328125 -0.890625 C 0.304688 -0.890625 0.289062 -0.878906 0.28125 -0.859375 C 0.269531 -0.847656 0.257812 -0.828125 0.25 -0.796875 L 0.21875 -0.71875 L 0.15625 -0.734375 L 0.15625 -0.875 L 0.265625 -0.953125 C 0.347656 -1.003906 0.4375 -1.03125 0.53125 -1.03125 C 0.664062 -1.03125 0.757812 -0.992188 0.8125 -0.921875 C 0.863281 -0.859375 0.890625 -0.75 0.890625 -0.59375 L 0.890625 -0.1875 C 0.890625 -0.132812 0.890625 -0.0976562 0.890625 -0.078125 C 0.898438 -0.0664062 0.914062 -0.0625 0.9375 -0.0625 L 1.03125 -0.0625 Z M 0.703125 -0.265625 L 0.703125 -0.5625 C 0.617188 -0.550781 0.546875 -0.535156 0.484375 -0.515625 C 0.429688 -0.503906 0.394531 -0.488281 0.375 -0.46875 C 0.332031 -0.445312 0.300781 -0.414062 0.28125 -0.375 C 0.269531 -0.34375 0.265625 -0.304688 0.265625 -0.265625 C 0.265625 -0.222656 0.28125 -0.179688 0.3125 -0.140625 C 0.34375 -0.109375 0.378906 -0.09375 0.421875 -0.09375 C 0.453125 -0.09375 0.484375 -0.0976562 0.515625 -0.109375 C 0.554688 -0.128906 0.59375 -0.15625 0.625 -0.1875 C 0.65625 -0.21875 0.679688 -0.242188 0.703125 -0.265625 Z M 0.703125 -0.265625 "/></g></g></g><g clip-rule="nonzero" clip-path="url(#6ff9607559)"><g style="fill:#4c489e;fill-opacity:1;"><g transform="translate(2.685215, 3.085184)"><path style="stroke:none" d="M 1.109375 -0.59375 C 1.109375 -0.539062 1.097656 -0.484375 1.078125 -0.421875 C 1.066406 -0.367188 1.046875 -0.320312 1.015625 -0.28125 C 0.992188 -0.238281 0.96875 -0.203125 0.9375 -0.171875 L 0.71875 -0.015625 C 0.675781 0.015625 0.613281 0.03125 0.53125 0.03125 C 0.46875 0.03125 0.414062 0.0195312 0.375 0 C 0.332031 -0.0078125 0.289062 -0.0234375 0.25 -0.046875 L 0.15625 0.03125 L 0.125 0.015625 C 0.132812 -0.0351562 0.140625 -0.078125 0.140625 -0.109375 C 0.140625 -0.148438 0.140625 -0.1875 0.140625 -0.21875 C 0.140625 -0.25 0.140625 -0.285156 0.140625 -0.328125 L 0.140625 -1.359375 C 0.140625 -1.390625 0.132812 -1.410156 0.125 -1.421875 C 0.125 -1.441406 0.113281 -1.453125 0.09375 -1.453125 L -0.03125 -1.453125 L -0.03125 -1.5 C 0.0195312 -1.507812 0.0664062 -1.519531 0.109375 -1.53125 C 0.148438 -1.539062 0.1875 -1.550781 0.21875 -1.5625 C 0.25 -1.570312 0.28125 -1.582031 0.3125 -1.59375 L 0.328125 -1.578125 L 0.328125 -0.8125 L 0.453125 -0.921875 C 0.472656 -0.953125 0.507812 -0.976562 0.5625 -1 C 0.613281 -1.019531 0.664062 -1.03125 0.71875 -1.03125 C 0.789062 -1.03125 0.859375 -1.007812 0.921875 -0.96875 C 0.984375 -0.9375 1.03125 -0.882812 1.0625 -0.8125 C 1.09375 -0.75 1.109375 -0.675781 1.109375 -0.59375 Z M 0.921875 -0.5 C 0.921875 -0.613281 0.894531 -0.707031 0.84375 -0.78125 C 0.789062 -0.851562 0.71875 -0.890625 0.625 -0.890625 C 0.53125 -0.890625 0.453125 -0.851562 0.390625 -0.78125 C 0.347656 -0.738281 0.328125 -0.703125 0.328125 -0.671875 L 0.328125 -0.203125 C 0.328125 -0.179688 0.34375 -0.160156 0.375 -0.140625 C 0.40625 -0.128906 0.441406 -0.113281 0.484375 -0.09375 C 0.523438 -0.0820312 0.566406 -0.078125 0.609375 -0.078125 C 0.671875 -0.078125 0.722656 -0.09375 0.765625 -0.125 C 0.816406 -0.164062 0.851562 -0.21875 0.875 -0.28125 C 0.90625 -0.34375 0.921875 -0.414062 0.921875 -0.5 Z M 0.921875 -0.5 "/></g></g></g><g clip-rule="nonzero" clip-path="url(#b65064681d)"><g style="fill:#4c489e;fill-opacity:1;"><g transform="translate(3.898961, 3.085184)"><path style="stroke:none" d="M 0.59375 0 C 0.5 0 0.40625 0 0.3125 0 C 0.226562 0 0.140625 0 0.046875 0 L 0.046875 -0.0625 L 0.140625 -0.0625 C 0.171875 -0.0625 0.191406 -0.0664062 0.203125 -0.078125 C 0.210938 -0.0859375 0.21875 -0.101562 0.21875 -0.125 C 0.226562 -0.144531 0.234375 -0.175781 0.234375 -0.21875 L 0.234375 -1.359375 C 0.234375 -1.390625 0.226562 -1.410156 0.21875 -1.421875 C 0.207031 -1.441406 0.191406 -1.453125 0.171875 -1.453125 L 0.046875 -1.453125 L 0.046875 -1.5 C 0.109375 -1.507812 0.15625 -1.519531 0.1875 -1.53125 C 0.226562 -1.539062 0.265625 -1.550781 0.296875 -1.5625 C 0.328125 -1.570312 0.359375 -1.582031 0.390625 -1.59375 L 0.40625 -1.578125 L 0.40625 -0.21875 C 0.40625 -0.175781 0.40625 -0.144531 0.40625 -0.125 C 0.414062 -0.101562 0.425781 -0.0859375 0.4375 -0.078125 C 0.445312 -0.0664062 0.460938 -0.0625 0.484375 -0.0625 L 0.59375 -0.0625 Z M 0.59375 0 "/></g></g></g><g clip-rule="nonzero" clip-path="url(#55d15d76ed)"><g style="fill:#4c489e;fill-opacity:1;"><g transform="translate(4.53766, 3.085184)"><path style="stroke:none" d="M 1.125 -0.515625 C 1.125 -0.410156 1.097656 -0.3125 1.046875 -0.21875 C 0.992188 -0.132812 0.925781 -0.0664062 0.84375 -0.015625 C 0.757812 0.0234375 0.660156 0.046875 0.546875 0.046875 C 0.453125 0.046875 0.367188 0.0234375 0.296875 -0.015625 C 0.222656 -0.0664062 0.164062 -0.128906 0.125 -0.203125 C 0.0820312 -0.285156 0.0625 -0.375 0.0625 -0.46875 C 0.0625 -0.582031 0.0820312 -0.679688 0.125 -0.765625 C 0.175781 -0.847656 0.242188 -0.910156 0.328125 -0.953125 C 0.410156 -1.003906 0.503906 -1.03125 0.609375 -1.03125 C 0.710938 -1.03125 0.800781 -1.003906 0.875 -0.953125 C 0.957031 -0.910156 1.019531 -0.851562 1.0625 -0.78125 C 1.101562 -0.707031 1.125 -0.617188 1.125 -0.515625 Z M 0.921875 -0.4375 C 0.921875 -0.539062 0.90625 -0.628906 0.875 -0.703125 C 0.84375 -0.773438 0.800781 -0.832031 0.75 -0.875 C 0.695312 -0.925781 0.640625 -0.953125 0.578125 -0.953125 C 0.472656 -0.953125 0.394531 -0.914062 0.34375 -0.84375 C 0.289062 -0.78125 0.265625 -0.679688 0.265625 -0.546875 C 0.265625 -0.441406 0.28125 -0.347656 0.3125 -0.265625 C 0.34375 -0.191406 0.382812 -0.132812 0.4375 -0.09375 C 0.5 -0.0507812 0.5625 -0.03125 0.625 -0.03125 C 0.71875 -0.03125 0.789062 -0.0664062 0.84375 -0.140625 C 0.894531 -0.210938 0.921875 -0.3125 0.921875 -0.4375 Z M 0.921875 -0.4375 "/></g></g></g></g></g><g clip-rule="nonzero" clip-path="url(#0eeb9a68ea)"><g clip-rule="nonzero" clip-path="url(#001ac608b6)"><path style=" stroke:none;fill-rule:nonzero;fill:url(#8d1922dbcc);" d="M 8.527344 3.398438 L 8.527344 23.101562 L 28.230469 23.101562 L 28.230469 3.398438 Z M 8.527344 3.398438 "/></g></g><g transform="matrix(1,0,0,1,17,7)"><g clip-path="url(#bdfc4e8376)"><g style="fill:#ffffff;fill-opacity:1;"><g transform="translate(0.509272, 15.602264)"><path style="stroke:none" d="M 0.5 0 L 0.5 -0.140625 L 0.796875 -0.140625 C 1.128906 -0.140625 1.382812 -0.210938 1.5625 -0.359375 C 1.75 -0.515625 1.84375 -0.773438 1.84375 -1.140625 L 1.84375 -9.078125 C 1.84375 -9.398438 1.75 -9.632812 1.5625 -9.78125 C 1.382812 -9.9375 1.128906 -10.015625 0.796875 -10.015625 L 0.5 -10.015625 L 0.5 -10.15625 L 4.59375 -10.15625 C 5.820312 -10.15625 6.726562 -9.890625 7.3125 -9.359375 C 7.90625 -8.828125 8.203125 -8.097656 8.203125 -7.171875 C 8.203125 -6.597656 8.078125 -6.066406 7.828125 -5.578125 C 7.578125 -5.085938 7.160156 -4.691406 6.578125 -4.390625 C 6.003906 -4.085938 5.238281 -3.9375 4.28125 -3.9375 L 3.5 -3.9375 L 3.5 -1.125 C 3.5 -0.769531 3.585938 -0.515625 3.765625 -0.359375 C 3.953125 -0.210938 4.210938 -0.140625 4.546875 -0.140625 L 4.9375 -0.140625 L 4.9375 0 Z M 3.5 -4.078125 L 4.140625 -4.078125 C 4.960938 -4.078125 5.546875 -4.304688 5.890625 -4.765625 C 6.242188 -5.222656 6.421875 -6 6.421875 -7.09375 C 6.421875 -8.132812 6.265625 -8.878906 5.953125 -9.328125 C 5.640625 -9.785156 5.101562 -10.015625 4.34375 -10.015625 L 3.5 -10.015625 Z M 3.5 -4.078125 "/></g></g></g></g><g transform="matrix(1,0,0,1,10,4)"><g clip-path="url(#187f20b1ba)"><g style="fill:#ffffff;fill-opacity:1;"><g transform="translate(0.860882, 14.318571)"><path style="stroke:none" d="M 4.8125 0.125 C 3.894531 0.125 3.128906 -0.0664062 2.515625 -0.453125 C 1.910156 -0.847656 1.457031 -1.394531 1.15625 -2.09375 C 0.863281 -2.800781 0.71875 -3.628906 0.71875 -4.578125 C 0.71875 -5.523438 0.867188 -6.34375 1.171875 -7.03125 C 1.472656 -7.726562 1.925781 -8.269531 2.53125 -8.65625 C 3.132812 -9.050781 3.894531 -9.25 4.8125 -9.25 C 5.6875 -9.25 6.425781 -9.050781 7.03125 -8.65625 C 7.632812 -8.269531 8.097656 -7.726562 8.421875 -7.03125 C 8.742188 -6.332031 8.90625 -5.507812 8.90625 -4.5625 C 8.90625 -3.625 8.742188 -2.800781 8.421875 -2.09375 C 8.097656 -1.394531 7.632812 -0.847656 7.03125 -0.453125 C 6.425781 -0.0664062 5.6875 0.125 4.8125 0.125 Z M 4.8125 0 C 5.675781 0 6.300781 -0.359375 6.6875 -1.078125 C 7.082031 -1.804688 7.28125 -2.96875 7.28125 -4.5625 C 7.28125 -6.164062 7.082031 -7.320312 6.6875 -8.03125 C 6.300781 -8.75 5.675781 -9.109375 4.8125 -9.109375 C 3.945312 -9.109375 3.316406 -8.75 2.921875 -8.03125 C 2.523438 -7.320312 2.328125 -6.164062 2.328125 -4.5625 C 2.328125 -2.96875 2.519531 -1.804688 2.90625 -1.078125 C 3.300781 -0.359375 3.9375 0 4.8125 0 Z M 4.8125 0 "/></g></g></g></g></g></svg>