<svg xmlns="http://www.w3.org/2000/svg" xmlns:xlink="http://www.w3.org/1999/xlink" width="60" zoomAndPan="magnify" viewBox="0 0 45 44.999999" height="60" preserveAspectRatio="xMidYMid meet" version="1.2"><defs><clipPath id="b1ca3b59f7"><path d="M 0.398438 2 L 6 2 L 6 8 L 0.398438 8 Z M 0.398438 2 "/></clipPath><clipPath id="64dd0b7d89"><path d="M 24 2 L 28.71875 2 L 28.71875 8 L 24 8 Z M 24 2 "/></clipPath><clipPath id="3e17ac8db6"><rect x="0" width="29" y="0" height="10"/></clipPath><clipPath id="6509c400cf"><rect x="0" width="9" y="0" height="5"/></clipPath><clipPath id="a6605aa1fe"><path d="M 0.332031 0.367188 L 25.644531 0.367188 L 25.644531 25.679688 L 0.332031 25.679688 Z M 0.332031 0.367188 "/></clipPath><clipPath id="cfc90f7ab6"><path d="M 18.417969 0.367188 L 0.332031 0.367188 L 0.332031 18.453125 C 0.332031 22.445312 3.566406 25.679688 7.554688 25.679688 L 25.644531 25.679688 L 25.644531 7.589844 C 25.644531 3.601562 22.410156 0.367188 18.417969 0.367188 Z M 18.417969 0.367188 "/></clipPath><linearGradient x1="-0.0004945" gradientTransform="matrix(0.050625,0,0,0.050625,0.331479,0.366544)" y1="499.999505" x2="499.999506" gradientUnits="userSpaceOnUse" y2="-0.0004945" id="36be1dcac0"><stop style="stop-color:#4c489e;stop-opacity:1;" offset="0"/><stop style="stop-color:#4c489e;stop-opacity:1;" offset="0.0625"/><stop style="stop-color:#4c489e;stop-opacity:1;" offset="0.078125"/><stop style="stop-color:#4c489e;stop-opacity:1;" offset="0.0859375"/><stop style="stop-color:#4d489e;stop-opacity:1;" offset="0.0898438"/><stop style="stop-color:#4e489e;stop-opacity:1;" offset="0.09375"/><stop style="stop-color:#4f499e;stop-opacity:1;" offset="0.0976563"/><stop style="stop-color:#50499e;stop-opacity:1;" offset="0.101563"/><stop style="stop-color:#51499e;stop-opacity:1;" offset="0.105469"/><stop style="stop-color:#52499e;stop-opacity:1;" offset="0.109375"/><stop style="stop-color:#52499e;stop-opacity:1;" offset="0.113281"/><stop style="stop-color:#53499e;stop-opacity:1;" offset="0.117188"/><stop style="stop-color:#544a9e;stop-opacity:1;" offset="0.121094"/><stop style="stop-color:#554a9e;stop-opacity:1;" offset="0.125"/><stop style="stop-color:#564a9f;stop-opacity:1;" offset="0.128906"/><stop style="stop-color:#574a9f;stop-opacity:1;" offset="0.132812"/><stop style="stop-color:#574a9f;stop-opacity:1;" offset="0.136719"/><stop style="stop-color:#584a9f;stop-opacity:1;" offset="0.140625"/><stop style="stop-color:#594b9f;stop-opacity:1;" offset="0.144531"/><stop style="stop-color:#5a4b9f;stop-opacity:1;" offset="0.148438"/><stop style="stop-color:#5b4b9f;stop-opacity:1;" offset="0.152344"/><stop style="stop-color:#5c4b9f;stop-opacity:1;" offset="0.15625"/><stop style="stop-color:#5c4b9f;stop-opacity:1;" offset="0.160156"/><stop style="stop-color:#5d4b9f;stop-opacity:1;" offset="0.164063"/><stop style="stop-color:#5e4b9f;stop-opacity:1;" offset="0.167969"/><stop style="stop-color:#5f4c9f;stop-opacity:1;" offset="0.171875"/><stop style="stop-color:#604c9f;stop-opacity:1;" offset="0.175781"/><stop style="stop-color:#614c9f;stop-opacity:1;" offset="0.179688"/><stop style="stop-color:#614c9f;stop-opacity:1;" offset="0.183594"/><stop style="stop-color:#624c9f;stop-opacity:1;" offset="0.1875"/><stop style="stop-color:#634c9f;stop-opacity:1;" offset="0.191406"/><stop style="stop-color:#644d9f;stop-opacity:1;" offset="0.195313"/><stop style="stop-color:#654d9f;stop-opacity:1;" offset="0.199219"/><stop style="stop-color:#664d9f;stop-opacity:1;" offset="0.203125"/><stop style="stop-color:#664d9f;stop-opacity:1;" offset="0.207031"/><stop style="stop-color:#674da0;stop-opacity:1;" offset="0.210938"/><stop style="stop-color:#684da0;stop-opacity:1;" offset="0.214844"/><stop style="stop-color:#694ea0;stop-opacity:1;" offset="0.21875"/><stop style="stop-color:#6a4ea0;stop-opacity:1;" offset="0.222656"/><stop style="stop-color:#6b4ea0;stop-opacity:1;" offset="0.226563"/><stop style="stop-color:#6b4ea0;stop-opacity:1;" offset="0.230469"/><stop style="stop-color:#6c4ea0;stop-opacity:1;" offset="0.234375"/><stop style="stop-color:#6d4ea0;stop-opacity:1;" offset="0.238281"/><stop style="stop-color:#6e4ea0;stop-opacity:1;" offset="0.242188"/><stop style="stop-color:#6f4fa0;stop-opacity:1;" offset="0.246094"/><stop style="stop-color:#704fa0;stop-opacity:1;" offset="0.25"/><stop style="stop-color:#704fa0;stop-opacity:1;" offset="0.253906"/><stop style="stop-color:#714fa0;stop-opacity:1;" offset="0.257812"/><stop style="stop-color:#724fa0;stop-opacity:1;" offset="0.261719"/><stop style="stop-color:#734fa0;stop-opacity:1;" offset="0.265625"/><stop style="stop-color:#7450a0;stop-opacity:1;" offset="0.269531"/><stop style="stop-color:#7550a0;stop-opacity:1;" offset="0.273438"/><stop style="stop-color:#7550a0;stop-opacity:1;" offset="0.277344"/><stop style="stop-color:#7650a0;stop-opacity:1;" offset="0.28125"/><stop style="stop-color:#7750a0;stop-opacity:1;" offset="0.285156"/><stop style="stop-color:#7850a0;stop-opacity:1;" offset="0.289062"/><stop style="stop-color:#7951a1;stop-opacity:1;" offset="0.292969"/><stop style="stop-color:#7a51a1;stop-opacity:1;" offset="0.296875"/><stop style="stop-color:#7b51a1;stop-opacity:1;" offset="0.300781"/><stop style="stop-color:#7b51a1;stop-opacity:1;" offset="0.304688"/><stop style="stop-color:#7c51a1;stop-opacity:1;" offset="0.308594"/><stop style="stop-color:#7d51a1;stop-opacity:1;" offset="0.3125"/><stop style="stop-color:#7e52a1;stop-opacity:1;" offset="0.316406"/><stop style="stop-color:#7f52a1;stop-opacity:1;" offset="0.320313"/><stop style="stop-color:#8052a1;stop-opacity:1;" offset="0.324219"/><stop style="stop-color:#8052a1;stop-opacity:1;" offset="0.328125"/><stop style="stop-color:#8152a1;stop-opacity:1;" offset="0.332031"/><stop style="stop-color:#8252a1;stop-opacity:1;" offset="0.335938"/><stop style="stop-color:#8352a1;stop-opacity:1;" offset="0.339844"/><stop style="stop-color:#8453a1;stop-opacity:1;" offset="0.34375"/><stop style="stop-color:#8553a1;stop-opacity:1;" offset="0.347656"/><stop style="stop-color:#8553a1;stop-opacity:1;" offset="0.351563"/><stop style="stop-color:#8653a1;stop-opacity:1;" offset="0.355469"/><stop style="stop-color:#8753a1;stop-opacity:1;" offset="0.359375"/><stop style="stop-color:#8853a1;stop-opacity:1;" offset="0.363281"/><stop style="stop-color:#8954a1;stop-opacity:1;" offset="0.367188"/><stop style="stop-color:#8a54a1;stop-opacity:1;" offset="0.371094"/><stop style="stop-color:#8a54a1;stop-opacity:1;" offset="0.375"/><stop style="stop-color:#8b54a2;stop-opacity:1;" offset="0.378906"/><stop style="stop-color:#8c54a2;stop-opacity:1;" offset="0.382812"/><stop style="stop-color:#8d54a2;stop-opacity:1;" offset="0.386719"/><stop style="stop-color:#8e55a2;stop-opacity:1;" offset="0.390625"/><stop style="stop-color:#8f55a2;stop-opacity:1;" offset="0.394531"/><stop style="stop-color:#8f55a2;stop-opacity:1;" offset="0.398438"/><stop style="stop-color:#9055a2;stop-opacity:1;" offset="0.402344"/><stop style="stop-color:#9155a2;stop-opacity:1;" offset="0.40625"/><stop style="stop-color:#9255a2;stop-opacity:1;" offset="0.410156"/><stop style="stop-color:#9356a2;stop-opacity:1;" offset="0.414062"/><stop style="stop-color:#9456a2;stop-opacity:1;" offset="0.417969"/><stop style="stop-color:#9456a2;stop-opacity:1;" offset="0.421875"/><stop style="stop-color:#9556a2;stop-opacity:1;" offset="0.425781"/><stop style="stop-color:#9656a2;stop-opacity:1;" offset="0.429687"/><stop style="stop-color:#9756a2;stop-opacity:1;" offset="0.433594"/><stop style="stop-color:#9856a2;stop-opacity:1;" offset="0.4375"/><stop style="stop-color:#9957a2;stop-opacity:1;" offset="0.441406"/><stop style="stop-color:#9957a2;stop-opacity:1;" offset="0.445312"/><stop style="stop-color:#9a57a2;stop-opacity:1;" offset="0.449219"/><stop style="stop-color:#9b57a2;stop-opacity:1;" offset="0.453125"/><stop style="stop-color:#9c57a2;stop-opacity:1;" offset="0.457031"/><stop style="stop-color:#9d57a3;stop-opacity:1;" offset="0.460938"/><stop style="stop-color:#9e58a3;stop-opacity:1;" offset="0.464844"/><stop style="stop-color:#9e58a3;stop-opacity:1;" offset="0.46875"/><stop style="stop-color:#9f58a3;stop-opacity:1;" offset="0.472656"/><stop style="stop-color:#a058a3;stop-opacity:1;" offset="0.476562"/><stop style="stop-color:#a158a3;stop-opacity:1;" offset="0.480469"/><stop style="stop-color:#a258a3;stop-opacity:1;" offset="0.484375"/><stop style="stop-color:#a359a3;stop-opacity:1;" offset="0.488281"/><stop style="stop-color:#a459a3;stop-opacity:1;" offset="0.492188"/><stop style="stop-color:#a459a3;stop-opacity:1;" offset="0.496094"/><stop style="stop-color:#a559a3;stop-opacity:1;" offset="0.5"/><stop style="stop-color:#a65aa2;stop-opacity:1;" offset="0.503906"/><stop style="stop-color:#a75aa2;stop-opacity:1;" offset="0.507812"/><stop style="stop-color:#a75ba1;stop-opacity:1;" offset="0.511719"/><stop style="stop-color:#a85ba0;stop-opacity:1;" offset="0.515625"/><stop style="stop-color:#a95ca0;stop-opacity:1;" offset="0.519531"/><stop style="stop-color:#aa5d9f;stop-opacity:1;" offset="0.523438"/><stop style="stop-color:#aa5d9e;stop-opacity:1;" offset="0.527344"/><stop style="stop-color:#ab5e9e;stop-opacity:1;" offset="0.53125"/><stop style="stop-color:#ac5e9d;stop-opacity:1;" offset="0.535156"/><stop style="stop-color:#ac5f9c;stop-opacity:1;" offset="0.539062"/><stop style="stop-color:#ad5f9c;stop-opacity:1;" offset="0.542969"/><stop style="stop-color:#ae609b;stop-opacity:1;" offset="0.546875"/><stop style="stop-color:#af619a;stop-opacity:1;" offset="0.550781"/><stop style="stop-color:#af619a;stop-opacity:1;" offset="0.554688"/><stop style="stop-color:#b06299;stop-opacity:1;" offset="0.558594"/><stop style="stop-color:#b16298;stop-opacity:1;" offset="0.5625"/><stop style="stop-color:#b26398;stop-opacity:1;" offset="0.566406"/><stop style="stop-color:#b26397;stop-opacity:1;" offset="0.570312"/><stop style="stop-color:#b36496;stop-opacity:1;" offset="0.574219"/><stop style="stop-color:#b46596;stop-opacity:1;" offset="0.578125"/><stop style="stop-color:#b46595;stop-opacity:1;" offset="0.582031"/><stop style="stop-color:#b56694;stop-opacity:1;" offset="0.585938"/><stop style="stop-color:#b66694;stop-opacity:1;" offset="0.589844"/><stop style="stop-color:#b76793;stop-opacity:1;" offset="0.59375"/><stop style="stop-color:#b76792;stop-opacity:1;" offset="0.597656"/><stop style="stop-color:#b86892;stop-opacity:1;" offset="0.601563"/><stop style="stop-color:#b96991;stop-opacity:1;" offset="0.605469"/><stop style="stop-color:#ba6990;stop-opacity:1;" offset="0.609375"/><stop style="stop-color:#ba6a90;stop-opacity:1;" offset="0.613281"/><stop style="stop-color:#bb6a8f;stop-opacity:1;" offset="0.617188"/><stop style="stop-color:#bc6b8e;stop-opacity:1;" offset="0.621094"/><stop style="stop-color:#bd6b8e;stop-opacity:1;" offset="0.625"/><stop style="stop-color:#bd6c8d;stop-opacity:1;" offset="0.628906"/><stop style="stop-color:#be6d8c;stop-opacity:1;" offset="0.632813"/><stop style="stop-color:#bf6d8c;stop-opacity:1;" offset="0.636719"/><stop style="stop-color:#bf6e8b;stop-opacity:1;" offset="0.640625"/><stop style="stop-color:#c06e8a;stop-opacity:1;" offset="0.644531"/><stop style="stop-color:#c16f8a;stop-opacity:1;" offset="0.648438"/><stop style="stop-color:#c26f89;stop-opacity:1;" offset="0.652344"/><stop style="stop-color:#c27088;stop-opacity:1;" offset="0.65625"/><stop style="stop-color:#c37188;stop-opacity:1;" offset="0.660156"/><stop style="stop-color:#c47187;stop-opacity:1;" offset="0.664063"/><stop style="stop-color:#c57286;stop-opacity:1;" offset="0.667969"/><stop style="stop-color:#c57286;stop-opacity:1;" offset="0.671875"/><stop style="stop-color:#c67385;stop-opacity:1;" offset="0.675781"/><stop style="stop-color:#c77384;stop-opacity:1;" offset="0.679688"/><stop style="stop-color:#c77484;stop-opacity:1;" offset="0.683594"/><stop style="stop-color:#c87583;stop-opacity:1;" offset="0.6875"/><stop style="stop-color:#c97582;stop-opacity:1;" offset="0.691406"/><stop style="stop-color:#ca7682;stop-opacity:1;" offset="0.695313"/><stop style="stop-color:#ca7681;stop-opacity:1;" offset="0.699219"/><stop style="stop-color:#cb7780;stop-opacity:1;" offset="0.703125"/><stop style="stop-color:#cc7780;stop-opacity:1;" offset="0.707031"/><stop style="stop-color:#cd787f;stop-opacity:1;" offset="0.710938"/><stop style="stop-color:#cd797e;stop-opacity:1;" offset="0.714844"/><stop style="stop-color:#ce797e;stop-opacity:1;" offset="0.71875"/><stop style="stop-color:#cf7a7d;stop-opacity:1;" offset="0.722656"/><stop style="stop-color:#d07a7c;stop-opacity:1;" offset="0.726563"/><stop style="stop-color:#d07b7c;stop-opacity:1;" offset="0.730469"/><stop style="stop-color:#d17b7b;stop-opacity:1;" offset="0.734375"/><stop style="stop-color:#d27c7a;stop-opacity:1;" offset="0.738281"/><stop style="stop-color:#d27d7a;stop-opacity:1;" offset="0.742188"/><stop style="stop-color:#d37d79;stop-opacity:1;" offset="0.746094"/><stop style="stop-color:#d47e78;stop-opacity:1;" offset="0.75"/><stop style="stop-color:#d57e78;stop-opacity:1;" offset="0.753906"/><stop style="stop-color:#d57f77;stop-opacity:1;" offset="0.757813"/><stop style="stop-color:#d67f76;stop-opacity:1;" offset="0.761719"/><stop style="stop-color:#d78076;stop-opacity:1;" offset="0.765625"/><stop style="stop-color:#d88175;stop-opacity:1;" offset="0.769531"/><stop style="stop-color:#d88174;stop-opacity:1;" offset="0.773438"/><stop style="stop-color:#d98274;stop-opacity:1;" offset="0.777344"/><stop style="stop-color:#da8273;stop-opacity:1;" offset="0.78125"/><stop style="stop-color:#da8372;stop-opacity:1;" offset="0.785156"/><stop style="stop-color:#db8372;stop-opacity:1;" offset="0.789063"/><stop style="stop-color:#dc8471;stop-opacity:1;" offset="0.792969"/><stop style="stop-color:#dd8570;stop-opacity:1;" offset="0.796875"/><stop style="stop-color:#dd8570;stop-opacity:1;" offset="0.800781"/><stop style="stop-color:#de866f;stop-opacity:1;" offset="0.804688"/><stop style="stop-color:#df866e;stop-opacity:1;" offset="0.808594"/><stop style="stop-color:#e0876e;stop-opacity:1;" offset="0.8125"/><stop style="stop-color:#e0876d;stop-opacity:1;" offset="0.816406"/><stop style="stop-color:#e1886c;stop-opacity:1;" offset="0.820313"/><stop style="stop-color:#e2896c;stop-opacity:1;" offset="0.824219"/><stop style="stop-color:#e2896b;stop-opacity:1;" offset="0.828125"/><stop style="stop-color:#e38a6a;stop-opacity:1;" offset="0.832031"/><stop style="stop-color:#e48a6a;stop-opacity:1;" offset="0.835938"/><stop style="stop-color:#e58b69;stop-opacity:1;" offset="0.839844"/><stop style="stop-color:#e58b68;stop-opacity:1;" offset="0.84375"/><stop style="stop-color:#e68c68;stop-opacity:1;" offset="0.847656"/><stop style="stop-color:#e78d67;stop-opacity:1;" offset="0.851563"/><stop style="stop-color:#e88d66;stop-opacity:1;" offset="0.855469"/><stop style="stop-color:#e88e66;stop-opacity:1;" offset="0.859375"/><stop style="stop-color:#e98e65;stop-opacity:1;" offset="0.863281"/><stop style="stop-color:#ea8f64;stop-opacity:1;" offset="0.867188"/><stop style="stop-color:#eb8f64;stop-opacity:1;" offset="0.871094"/><stop style="stop-color:#eb9063;stop-opacity:1;" offset="0.875"/><stop style="stop-color:#ec9162;stop-opacity:1;" offset="0.878906"/><stop style="stop-color:#ed9162;stop-opacity:1;" offset="0.882812"/><stop style="stop-color:#ed9261;stop-opacity:1;" offset="0.886719"/><stop style="stop-color:#ee9260;stop-opacity:1;" offset="0.890625"/><stop style="stop-color:#ef9360;stop-opacity:1;" offset="0.894531"/><stop style="stop-color:#f0935f;stop-opacity:1;" offset="0.898438"/><stop style="stop-color:#f0945e;stop-opacity:1;" offset="0.902344"/><stop style="stop-color:#f1945e;stop-opacity:1;" offset="0.90625"/><stop style="stop-color:#f2955d;stop-opacity:1;" offset="0.910156"/><stop style="stop-color:#f3965c;stop-opacity:1;" offset="0.914062"/><stop style="stop-color:#f3965c;stop-opacity:1;" offset="0.921875"/><stop style="stop-color:#f3965c;stop-opacity:1;" offset="0.9375"/><stop style="stop-color:#f3965c;stop-opacity:1;" offset="1"/></linearGradient><clipPath id="6be3e69c42"><path d="M 11 5 L 24 5 L 24 30.558594 L 11 30.558594 Z M 11 5 "/></clipPath><clipPath id="28a4f1de46"><rect x="0" width="13" y="0" height="26"/></clipPath><clipPath id="d70febd8a9"><rect x="0" width="13" y="0" height="23"/></clipPath><clipPath id="c3b82a9632"><rect x="0" width="27" y="0" height="31"/></clipPath></defs><g id="7915981319"><g transform="matrix(1,0,0,1,8,28)"><g clip-path="url(#3e17ac8db6)"><g clip-rule="nonzero" clip-path="url(#b1ca3b59f7)"><g style="fill:#4c489e;fill-opacity:1;"><g transform="translate(0.487445, 7.725664)"><path style="stroke:none" d="M 5.4375 -2.390625 C 5.4375 -1.867188 5.332031 -1.421875 5.125 -1.046875 C 4.914062 -0.671875 4.613281 -0.378906 4.21875 -0.171875 C 3.832031 0.0234375 3.363281 0.125 2.8125 0.125 C 2.019531 0.125 1.40625 -0.0820312 0.96875 -0.5 C 0.539062 -0.925781 0.328125 -1.523438 0.328125 -2.296875 C 0.328125 -2.828125 0.429688 -3.273438 0.640625 -3.640625 C 0.847656 -4.015625 1.148438 -4.300781 1.546875 -4.5 C 1.941406 -4.695312 2.414062 -4.796875 2.96875 -4.796875 C 3.75 -4.796875 4.351562 -4.582031 4.78125 -4.15625 C 5.21875 -3.738281 5.4375 -3.148438 5.4375 -2.390625 Z M 4.40625 -2.25 C 4.40625 -2.632812 4.351562 -2.984375 4.25 -3.296875 C 4.144531 -3.617188 4 -3.875 3.8125 -4.0625 C 3.570312 -4.289062 3.269531 -4.40625 2.90625 -4.40625 C 2.46875 -4.40625 2.113281 -4.273438 1.84375 -4.015625 C 1.519531 -3.691406 1.359375 -3.171875 1.359375 -2.453125 C 1.359375 -2.054688 1.410156 -1.695312 1.515625 -1.375 C 1.617188 -1.0625 1.765625 -0.8125 1.953125 -0.625 C 2.191406 -0.382812 2.492188 -0.265625 2.859375 -0.265625 C 3.367188 -0.265625 3.753906 -0.429688 4.015625 -0.765625 C 4.273438 -1.097656 4.40625 -1.59375 4.40625 -2.25 Z M 4.40625 -2.25 "/></g></g></g><g style="fill:#4c489e;fill-opacity:1;"><g transform="translate(6.243963, 7.725664)"><path style="stroke:none" d="M 5.96875 0.015625 C 5.738281 0.00390625 5.515625 0 5.296875 0 C 5.078125 0 4.859375 0.00390625 4.640625 0.015625 L 4.640625 -1.859375 C 4.640625 -2.390625 4.441406 -2.65625 4.046875 -2.65625 C 3.960938 -2.65625 3.875 -2.628906 3.78125 -2.578125 C 3.695312 -2.535156 3.628906 -2.476562 3.578125 -2.40625 C 3.523438 -2.34375 3.5 -2.269531 3.5 -2.1875 L 3.5 -0.6875 C 3.5 -0.507812 3.507812 -0.394531 3.53125 -0.34375 C 3.5625 -0.289062 3.632812 -0.257812 3.75 -0.25 L 3.984375 -0.234375 L 3.984375 0.015625 C 3.679688 0.00390625 3.378906 0 3.078125 0 C 2.785156 0 2.488281 0.00390625 2.1875 0.015625 L 2.1875 -0.234375 L 2.40625 -0.25 C 2.507812 -0.257812 2.578125 -0.289062 2.609375 -0.34375 C 2.640625 -0.394531 2.65625 -0.507812 2.65625 -0.6875 L 2.65625 -1.859375 C 2.65625 -2.390625 2.457031 -2.65625 2.0625 -2.65625 C 1.96875 -2.65625 1.878906 -2.628906 1.796875 -2.578125 C 1.710938 -2.535156 1.640625 -2.476562 1.578125 -2.40625 C 1.523438 -2.34375 1.5 -2.269531 1.5 -2.1875 L 1.5 -0.6875 C 1.5 -0.507812 1.507812 -0.394531 1.53125 -0.34375 C 1.5625 -0.289062 1.632812 -0.257812 1.75 -0.25 L 1.9375 -0.234375 L 1.9375 0.015625 C 1.644531 0.00390625 1.351562 0 1.0625 0 C 0.757812 0 0.460938 0.00390625 0.171875 0.015625 L 0.171875 -0.234375 L 0.40625 -0.25 C 0.507812 -0.257812 0.578125 -0.289062 0.609375 -0.34375 C 0.640625 -0.394531 0.65625 -0.507812 0.65625 -0.6875 L 0.65625 -2.203125 C 0.65625 -2.398438 0.644531 -2.523438 0.625 -2.578125 C 0.601562 -2.640625 0.550781 -2.675781 0.46875 -2.6875 L 0.171875 -2.703125 L 0.171875 -2.953125 C 0.296875 -2.960938 0.410156 -2.972656 0.515625 -2.984375 C 0.617188 -3.003906 0.738281 -3.035156 0.875 -3.078125 C 1.019531 -3.117188 1.210938 -3.175781 1.453125 -3.25 L 1.5 -3.21875 L 1.5 -2.6875 L 2.046875 -3.125 C 2.160156 -3.207031 2.328125 -3.25 2.546875 -3.25 C 2.785156 -3.25 2.972656 -3.203125 3.109375 -3.109375 C 3.253906 -3.023438 3.367188 -2.882812 3.453125 -2.6875 L 4 -3.125 C 4.113281 -3.207031 4.28125 -3.25 4.5 -3.25 C 4.75 -3.25 4.941406 -3.207031 5.078125 -3.125 C 5.222656 -3.050781 5.328125 -2.921875 5.390625 -2.734375 C 5.453125 -2.546875 5.484375 -2.289062 5.484375 -1.96875 L 5.484375 -0.6875 C 5.484375 -0.507812 5.5 -0.394531 5.53125 -0.34375 C 5.5625 -0.289062 5.628906 -0.257812 5.734375 -0.25 L 5.96875 -0.234375 Z M 5.96875 0.015625 "/></g></g><g style="fill:#4c489e;fill-opacity:1;"><g transform="translate(12.387475, 7.725664)"><path style="stroke:none" d="M 3.1875 -1.671875 C 2.988281 -1.628906 2.804688 -1.597656 2.640625 -1.578125 C 2.472656 -1.554688 2.289062 -1.546875 2.09375 -1.546875 L 1.1875 -1.546875 C 1.195312 -1.378906 1.210938 -1.242188 1.234375 -1.140625 C 1.253906 -1.046875 1.296875 -0.945312 1.359375 -0.84375 C 1.441406 -0.707031 1.5625 -0.59375 1.71875 -0.5 C 1.882812 -0.414062 2.050781 -0.375 2.21875 -0.375 C 2.363281 -0.375 2.492188 -0.390625 2.609375 -0.421875 C 2.734375 -0.460938 2.875 -0.523438 3.03125 -0.609375 L 3.109375 -0.515625 L 2.96875 -0.171875 C 2.8125 -0.0976562 2.675781 -0.0390625 2.5625 0 C 2.445312 0.0390625 2.335938 0.0703125 2.234375 0.09375 C 2.128906 0.113281 2.007812 0.125 1.875 0.125 C 1.351562 0.125 0.957031 -0.015625 0.6875 -0.296875 C 0.425781 -0.585938 0.296875 -1.007812 0.296875 -1.5625 C 0.296875 -1.894531 0.347656 -2.164062 0.453125 -2.375 C 0.554688 -2.59375 0.722656 -2.769531 0.953125 -2.90625 L 1.265625 -3.09375 C 1.453125 -3.195312 1.65625 -3.25 1.875 -3.25 C 2.269531 -3.25 2.585938 -3.140625 2.828125 -2.921875 C 3.066406 -2.703125 3.1875 -2.40625 3.1875 -2.03125 Z M 2.3125 -1.90625 C 2.3125 -2.25 2.265625 -2.492188 2.171875 -2.640625 C 2.078125 -2.785156 1.929688 -2.859375 1.734375 -2.859375 C 1.535156 -2.859375 1.382812 -2.785156 1.28125 -2.640625 C 1.1875 -2.492188 1.140625 -2.25 1.140625 -1.90625 L 1.375 -1.90625 C 1.5 -1.894531 1.578125 -1.890625 1.609375 -1.890625 C 1.640625 -1.890625 1.65625 -1.890625 1.65625 -1.890625 C 1.65625 -1.890625 1.679688 -1.890625 1.734375 -1.890625 C 1.804688 -1.890625 1.882812 -1.890625 1.96875 -1.890625 C 2.0625 -1.898438 2.140625 -1.90625 2.203125 -1.90625 C 2.273438 -1.90625 2.3125 -1.90625 2.3125 -1.90625 Z M 2.3125 -1.90625 "/></g></g><g style="fill:#4c489e;fill-opacity:1;"><g transform="translate(15.842768, 7.725664)"><path style="stroke:none" d="M 4.046875 0.015625 C 3.816406 0.00390625 3.585938 0 3.359375 0 C 3.148438 0 2.941406 0.00390625 2.734375 0.015625 L 2.734375 -1.859375 C 2.734375 -2.140625 2.679688 -2.34375 2.578125 -2.46875 C 2.484375 -2.59375 2.316406 -2.65625 2.078125 -2.65625 C 1.929688 -2.65625 1.796875 -2.609375 1.671875 -2.515625 C 1.554688 -2.421875 1.5 -2.3125 1.5 -2.1875 L 1.5 -0.6875 C 1.5 -0.507812 1.515625 -0.394531 1.546875 -0.34375 C 1.578125 -0.289062 1.644531 -0.257812 1.75 -0.25 L 1.984375 -0.234375 L 1.984375 0.015625 C 1.679688 0.00390625 1.375 0 1.0625 0 C 0.757812 0 0.460938 0.00390625 0.171875 0.015625 L 0.171875 -0.234375 L 0.40625 -0.25 C 0.507812 -0.257812 0.578125 -0.289062 0.609375 -0.34375 C 0.640625 -0.394531 0.65625 -0.507812 0.65625 -0.6875 L 0.65625 -2.203125 C 0.65625 -2.398438 0.644531 -2.523438 0.625 -2.578125 C 0.601562 -2.640625 0.550781 -2.675781 0.46875 -2.6875 L 0.171875 -2.703125 L 0.171875 -2.953125 C 0.296875 -2.960938 0.410156 -2.972656 0.515625 -2.984375 C 0.617188 -3.003906 0.738281 -3.035156 0.875 -3.078125 C 1.019531 -3.117188 1.210938 -3.175781 1.453125 -3.25 L 1.5 -3.21875 L 1.5 -2.6875 L 2.046875 -3.125 C 2.148438 -3.207031 2.3125 -3.25 2.53125 -3.25 C 2.882812 -3.25 3.148438 -3.15625 3.328125 -2.96875 C 3.421875 -2.863281 3.484375 -2.738281 3.515625 -2.59375 C 3.554688 -2.445312 3.578125 -2.238281 3.578125 -1.96875 L 3.578125 -0.6875 C 3.578125 -0.507812 3.59375 -0.394531 3.625 -0.34375 C 3.65625 -0.289062 3.722656 -0.257812 3.828125 -0.25 L 4.046875 -0.234375 Z M 3.375 -4.578125 C 3.289062 -4.273438 3.179688 -4.050781 3.046875 -3.90625 C 2.921875 -3.769531 2.757812 -3.703125 2.5625 -3.703125 C 2.476562 -3.703125 2.394531 -3.710938 2.3125 -3.734375 C 2.226562 -3.765625 2.117188 -3.8125 1.984375 -3.875 C 1.847656 -3.9375 1.738281 -3.976562 1.65625 -4 C 1.582031 -4.019531 1.515625 -4.03125 1.453125 -4.03125 C 1.304688 -4.03125 1.195312 -3.921875 1.125 -3.703125 L 0.859375 -3.703125 C 0.878906 -3.960938 0.960938 -4.171875 1.109375 -4.328125 C 1.265625 -4.492188 1.445312 -4.578125 1.65625 -4.578125 C 1.738281 -4.578125 1.816406 -4.5625 1.890625 -4.53125 C 1.972656 -4.507812 2.078125 -4.46875 2.203125 -4.40625 C 2.335938 -4.34375 2.441406 -4.296875 2.515625 -4.265625 C 2.585938 -4.242188 2.660156 -4.234375 2.734375 -4.234375 C 2.816406 -4.234375 2.878906 -4.253906 2.921875 -4.296875 C 2.960938 -4.347656 3.015625 -4.441406 3.078125 -4.578125 Z M 3.375 -4.578125 "/></g></g><g style="fill:#4c489e;fill-opacity:1;"><g transform="translate(20.065136, 7.725664)"><path style="stroke:none" d="M 4.03125 0.015625 C 3.789062 0.00390625 3.554688 0 3.328125 0 C 3.109375 0 2.890625 0.00390625 2.671875 0.015625 L 2.703125 -0.546875 L 2.1875 -0.046875 C 2.082031 0.0664062 1.921875 0.125 1.703125 0.125 C 1.367188 0.125 1.109375 0.03125 0.921875 -0.15625 C 0.742188 -0.34375 0.65625 -0.613281 0.65625 -0.96875 L 0.65625 -2.203125 C 0.65625 -2.398438 0.644531 -2.523438 0.625 -2.578125 C 0.601562 -2.640625 0.554688 -2.675781 0.484375 -2.6875 L 0.171875 -2.703125 L 0.171875 -2.953125 C 0.316406 -2.972656 0.429688 -2.988281 0.515625 -3 C 0.609375 -3.019531 0.6875 -3.035156 0.75 -3.046875 C 0.8125 -3.054688 0.878906 -3.070312 0.953125 -3.09375 L 1.4375 -3.25 L 1.5 -3.21875 L 1.5 -1.40625 C 1.5 -1.070312 1.539062 -0.835938 1.625 -0.703125 C 1.707031 -0.566406 1.847656 -0.5 2.046875 -0.5 C 2.234375 -0.5 2.390625 -0.5625 2.515625 -0.6875 C 2.640625 -0.8125 2.703125 -0.957031 2.703125 -1.125 L 2.703125 -2.203125 C 2.703125 -2.398438 2.691406 -2.523438 2.671875 -2.578125 C 2.648438 -2.640625 2.601562 -2.675781 2.53125 -2.6875 L 2.21875 -2.703125 L 2.21875 -2.953125 C 2.363281 -2.972656 2.476562 -2.988281 2.5625 -3 C 2.644531 -3.019531 2.71875 -3.035156 2.78125 -3.046875 C 2.851562 -3.054688 2.925781 -3.070312 3 -3.09375 L 3.484375 -3.25 L 3.546875 -3.21875 L 3.546875 -0.6875 C 3.546875 -0.507812 3.554688 -0.394531 3.578125 -0.34375 C 3.609375 -0.289062 3.679688 -0.257812 3.796875 -0.25 L 4.03125 -0.234375 Z M 4.03125 0.015625 "/></g></g><g clip-rule="nonzero" clip-path="url(#64dd0b7d89)"><g style="fill:#4c489e;fill-opacity:1;"><g transform="translate(24.287504, 7.725664)"><path style="stroke:none" d="M 4.125 0 L 2.9375 0 C 2.789062 -0.175781 2.675781 -0.3125 2.59375 -0.40625 C 2.519531 -0.5 2.457031 -0.578125 2.40625 -0.640625 C 2.351562 -0.703125 2.296875 -0.765625 2.234375 -0.828125 C 2.179688 -0.898438 2.101562 -0.988281 2 -1.09375 C 1.90625 -1.207031 1.773438 -1.363281 1.609375 -1.5625 L 1.53125 -1.5625 L 1.53125 -0.6875 C 1.53125 -0.507812 1.546875 -0.394531 1.578125 -0.34375 C 1.609375 -0.289062 1.675781 -0.257812 1.78125 -0.25 L 2.03125 -0.234375 L 2.03125 0.015625 C 1.71875 0.00390625 1.40625 0 1.09375 0 C 0.800781 0 0.503906 0.00390625 0.203125 0.015625 L 0.203125 -0.234375 L 0.4375 -0.25 C 0.539062 -0.257812 0.609375 -0.289062 0.640625 -0.34375 C 0.671875 -0.394531 0.6875 -0.507812 0.6875 -0.6875 L 0.6875 -3.921875 C 0.6875 -4.128906 0.675781 -4.257812 0.65625 -4.3125 C 0.632812 -4.375 0.585938 -4.40625 0.515625 -4.40625 L 0.140625 -4.421875 L 0.140625 -4.671875 C 0.347656 -4.691406 0.515625 -4.710938 0.640625 -4.734375 C 0.765625 -4.753906 0.878906 -4.785156 0.984375 -4.828125 L 1.484375 -4.96875 L 1.53125 -4.9375 L 1.53125 -1.71875 C 1.726562 -1.882812 1.878906 -2.015625 1.984375 -2.109375 C 2.085938 -2.210938 2.179688 -2.304688 2.265625 -2.390625 L 3 -3.171875 L 3.90625 -3.171875 L 3.90625 -2.90625 L 3.6875 -2.90625 C 3.570312 -2.90625 3.460938 -2.863281 3.359375 -2.78125 C 3.242188 -2.707031 3.128906 -2.617188 3.015625 -2.515625 C 2.910156 -2.421875 2.804688 -2.332031 2.703125 -2.25 C 2.609375 -2.175781 2.53125 -2.109375 2.46875 -2.046875 C 2.414062 -1.992188 2.390625 -1.96875 2.390625 -1.96875 L 3.75 -0.453125 C 3.863281 -0.316406 3.988281 -0.242188 4.125 -0.234375 Z M 4.125 0 "/></g></g></g></g></g><g transform="matrix(1,0,0,1,18,36)"><g clip-path="url(#6509c400cf)"><g style="fill:#4c489e;fill-opacity:1;"><g transform="translate(0.982573, 3.935822)"><path style="stroke:none" d="M 1.625 -1.515625 C 1.625 -1.398438 1.59375 -1.296875 1.53125 -1.203125 C 1.476562 -1.117188 1.398438 -1.046875 1.296875 -0.984375 C 1.191406 -0.929688 1.078125 -0.90625 0.953125 -0.90625 C 0.921875 -0.90625 0.894531 -0.90625 0.875 -0.90625 C 0.851562 -0.914062 0.820312 -0.921875 0.78125 -0.921875 L 0.765625 -1.03125 C 0.796875 -1.019531 0.820312 -1.007812 0.84375 -1 C 0.875 -1 0.90625 -1 0.9375 -1 C 1.050781 -1 1.144531 -1.039062 1.21875 -1.125 C 1.300781 -1.207031 1.34375 -1.3125 1.34375 -1.4375 C 1.34375 -1.5625 1.300781 -1.660156 1.21875 -1.734375 C 1.144531 -1.804688 1.035156 -1.84375 0.890625 -1.84375 C 0.835938 -1.84375 0.789062 -1.835938 0.75 -1.828125 C 0.707031 -1.828125 0.660156 -1.820312 0.609375 -1.8125 L 0.609375 -0.34375 C 0.609375 -0.269531 0.609375 -0.210938 0.609375 -0.171875 C 0.617188 -0.140625 0.632812 -0.117188 0.65625 -0.109375 C 0.675781 -0.0976562 0.707031 -0.0859375 0.75 -0.078125 L 0.890625 -0.078125 L 0.890625 0.015625 C 0.753906 0.00390625 0.613281 0 0.46875 0 C 0.332031 0 0.195312 0.00390625 0.0625 0.015625 L 0.0625 -0.078125 L 0.203125 -0.078125 C 0.242188 -0.0859375 0.273438 -0.0976562 0.296875 -0.109375 C 0.316406 -0.117188 0.328125 -0.140625 0.328125 -0.171875 C 0.335938 -0.210938 0.34375 -0.269531 0.34375 -0.34375 L 0.34375 -1.59375 C 0.34375 -1.664062 0.335938 -1.71875 0.328125 -1.75 C 0.316406 -1.789062 0.300781 -1.816406 0.28125 -1.828125 C 0.257812 -1.835938 0.226562 -1.847656 0.1875 -1.859375 L 0.0625 -1.859375 L 0.0625 -1.953125 C 0.238281 -1.941406 0.410156 -1.9375 0.578125 -1.9375 C 0.660156 -1.9375 0.738281 -1.9375 0.8125 -1.9375 C 0.894531 -1.945312 0.972656 -1.953125 1.046875 -1.953125 C 1.234375 -1.953125 1.375 -1.910156 1.46875 -1.828125 C 1.570312 -1.753906 1.625 -1.648438 1.625 -1.515625 Z M 1.625 -1.515625 "/></g></g><g style="fill:#4c489e;fill-opacity:1;"><g transform="translate(2.685708, 3.935822)"><path style="stroke:none" d="M 1.328125 0.015625 C 1.253906 0.00390625 1.179688 0 1.109375 0 C 1.035156 0 0.960938 0.00390625 0.890625 0.015625 L 0.90625 -0.234375 L 0.5625 0.015625 C 0.550781 0.015625 0.535156 0.015625 0.515625 0.015625 C 0.492188 0.0234375 0.46875 0.03125 0.4375 0.03125 C 0.332031 0.03125 0.25 0 0.1875 -0.0625 C 0.125 -0.125 0.09375 -0.207031 0.09375 -0.3125 C 0.09375 -0.4375 0.132812 -0.53125 0.21875 -0.59375 C 0.300781 -0.664062 0.4375 -0.722656 0.625 -0.765625 L 0.90625 -0.8125 C 0.90625 -0.9375 0.875 -1.023438 0.8125 -1.078125 C 0.757812 -1.140625 0.664062 -1.171875 0.53125 -1.171875 C 0.488281 -1.171875 0.453125 -1.164062 0.421875 -1.15625 C 0.398438 -1.15625 0.378906 -1.140625 0.359375 -1.109375 C 0.347656 -1.085938 0.332031 -1.054688 0.3125 -1.015625 L 0.28125 -0.9375 L 0.203125 -0.953125 L 0.203125 -1.140625 L 0.34375 -1.21875 C 0.457031 -1.28125 0.570312 -1.3125 0.6875 -1.3125 C 0.851562 -1.3125 0.96875 -1.269531 1.03125 -1.1875 C 1.101562 -1.101562 1.140625 -0.960938 1.140625 -0.765625 L 1.140625 -0.25 C 1.140625 -0.175781 1.144531 -0.128906 1.15625 -0.109375 C 1.164062 -0.0859375 1.1875 -0.078125 1.21875 -0.078125 L 1.328125 -0.078125 Z M 0.90625 -0.34375 L 0.90625 -0.71875 C 0.800781 -0.707031 0.710938 -0.691406 0.640625 -0.671875 C 0.566406 -0.648438 0.507812 -0.628906 0.46875 -0.609375 C 0.425781 -0.578125 0.390625 -0.539062 0.359375 -0.5 C 0.335938 -0.457031 0.328125 -0.40625 0.328125 -0.34375 C 0.328125 -0.289062 0.347656 -0.238281 0.390625 -0.1875 C 0.429688 -0.144531 0.484375 -0.125 0.546875 -0.125 C 0.578125 -0.125 0.613281 -0.132812 0.65625 -0.15625 C 0.707031 -0.175781 0.753906 -0.203125 0.796875 -0.234375 C 0.847656 -0.273438 0.882812 -0.3125 0.90625 -0.34375 Z M 0.90625 -0.34375 "/></g></g><g style="fill:#4c489e;fill-opacity:1;"><g transform="translate(4.095588, 3.935822)"><path style="stroke:none" d="M 1.421875 -0.765625 C 1.421875 -0.691406 1.410156 -0.617188 1.390625 -0.546875 C 1.378906 -0.484375 1.351562 -0.421875 1.3125 -0.359375 C 1.28125 -0.304688 1.242188 -0.265625 1.203125 -0.234375 L 0.921875 -0.03125 C 0.867188 0.0078125 0.789062 0.03125 0.6875 0.03125 C 0.613281 0.03125 0.546875 0.0195312 0.484375 0 C 0.429688 -0.0078125 0.378906 -0.03125 0.328125 -0.0625 L 0.203125 0.03125 L 0.15625 0.015625 C 0.164062 -0.046875 0.171875 -0.0976562 0.171875 -0.140625 C 0.179688 -0.191406 0.1875 -0.238281 0.1875 -0.28125 C 0.1875 -0.320312 0.1875 -0.375 0.1875 -0.4375 L 0.1875 -1.75 C 0.1875 -1.789062 0.179688 -1.816406 0.171875 -1.828125 C 0.160156 -1.847656 0.140625 -1.859375 0.109375 -1.859375 L -0.046875 -1.859375 L -0.046875 -1.9375 C 0.0234375 -1.945312 0.0859375 -1.957031 0.140625 -1.96875 C 0.191406 -1.976562 0.234375 -1.988281 0.265625 -2 C 0.304688 -2.007812 0.347656 -2.023438 0.390625 -2.046875 L 0.421875 -2.015625 L 0.421875 -1.03125 L 0.578125 -1.1875 C 0.609375 -1.226562 0.65625 -1.257812 0.71875 -1.28125 C 0.789062 -1.300781 0.859375 -1.3125 0.921875 -1.3125 C 1.015625 -1.3125 1.097656 -1.285156 1.171875 -1.234375 C 1.253906 -1.191406 1.316406 -1.128906 1.359375 -1.046875 C 1.398438 -0.960938 1.421875 -0.867188 1.421875 -0.765625 Z M 1.1875 -0.640625 C 1.1875 -0.796875 1.148438 -0.914062 1.078125 -1 C 1.003906 -1.09375 0.910156 -1.140625 0.796875 -1.140625 C 0.679688 -1.140625 0.582031 -1.09375 0.5 -1 C 0.445312 -0.945312 0.421875 -0.898438 0.421875 -0.859375 L 0.421875 -0.265625 C 0.421875 -0.242188 0.4375 -0.21875 0.46875 -0.1875 C 0.507812 -0.164062 0.554688 -0.144531 0.609375 -0.125 C 0.671875 -0.113281 0.726562 -0.109375 0.78125 -0.109375 C 0.851562 -0.109375 0.921875 -0.128906 0.984375 -0.171875 C 1.046875 -0.222656 1.09375 -0.285156 1.125 -0.359375 C 1.164062 -0.441406 1.1875 -0.535156 1.1875 -0.640625 Z M 1.1875 -0.640625 "/></g></g><g style="fill:#4c489e;fill-opacity:1;"><g transform="translate(5.654915, 3.935822)"><path style="stroke:none" d="M 0.765625 0.015625 C 0.640625 0.00390625 0.519531 0 0.40625 0 C 0.289062 0 0.175781 0.00390625 0.0625 0.015625 L 0.0625 -0.078125 L 0.1875 -0.078125 C 0.21875 -0.0859375 0.238281 -0.09375 0.25 -0.09375 C 0.269531 -0.101562 0.28125 -0.125 0.28125 -0.15625 C 0.289062 -0.1875 0.296875 -0.226562 0.296875 -0.28125 L 0.296875 -1.75 C 0.296875 -1.789062 0.289062 -1.816406 0.28125 -1.828125 C 0.269531 -1.847656 0.25 -1.859375 0.21875 -1.859375 L 0.0625 -1.859375 L 0.0625 -1.9375 C 0.132812 -1.945312 0.195312 -1.957031 0.25 -1.96875 C 0.300781 -1.976562 0.34375 -1.988281 0.375 -2 C 0.414062 -2.007812 0.457031 -2.023438 0.5 -2.046875 L 0.53125 -2.015625 L 0.53125 -0.28125 C 0.53125 -0.226562 0.53125 -0.1875 0.53125 -0.15625 C 0.539062 -0.125 0.550781 -0.101562 0.5625 -0.09375 C 0.570312 -0.09375 0.59375 -0.0859375 0.625 -0.078125 L 0.765625 -0.078125 Z M 0.765625 0.015625 "/></g></g><g style="fill:#4c489e;fill-opacity:1;"><g transform="translate(6.475466, 3.935822)"><path style="stroke:none" d="M 1.453125 -0.671875 C 1.453125 -0.523438 1.414062 -0.394531 1.34375 -0.28125 C 1.28125 -0.175781 1.191406 -0.09375 1.078125 -0.03125 C 0.972656 0.03125 0.847656 0.0625 0.703125 0.0625 C 0.578125 0.0625 0.46875 0.0351562 0.375 -0.015625 C 0.289062 -0.078125 0.222656 -0.15625 0.171875 -0.25 C 0.117188 -0.351562 0.09375 -0.472656 0.09375 -0.609375 C 0.09375 -0.753906 0.117188 -0.878906 0.171875 -0.984375 C 0.234375 -1.085938 0.316406 -1.164062 0.421875 -1.21875 C 0.523438 -1.28125 0.644531 -1.3125 0.78125 -1.3125 C 0.914062 -1.3125 1.03125 -1.285156 1.125 -1.234375 C 1.226562 -1.179688 1.304688 -1.101562 1.359375 -1 C 1.421875 -0.90625 1.453125 -0.796875 1.453125 -0.671875 Z M 1.1875 -0.5625 C 1.1875 -0.6875 1.164062 -0.796875 1.125 -0.890625 C 1.082031 -0.992188 1.023438 -1.070312 0.953125 -1.125 C 0.890625 -1.1875 0.816406 -1.21875 0.734375 -1.21875 C 0.609375 -1.21875 0.507812 -1.171875 0.4375 -1.078125 C 0.375 -0.992188 0.34375 -0.867188 0.34375 -0.703125 C 0.34375 -0.566406 0.363281 -0.445312 0.40625 -0.34375 C 0.445312 -0.25 0.5 -0.171875 0.5625 -0.109375 C 0.632812 -0.0546875 0.71875 -0.03125 0.8125 -0.03125 C 0.925781 -0.03125 1.015625 -0.078125 1.078125 -0.171875 C 1.148438 -0.273438 1.1875 -0.40625 1.1875 -0.5625 Z M 1.1875 -0.5625 "/></g></g></g></g><g transform="matrix(1,0,0,1,10,4)"><g clip-path="url(#c3b82a9632)"><g clip-rule="nonzero" clip-path="url(#a6605aa1fe)"><g clip-rule="nonzero" clip-path="url(#cfc90f7ab6)"><path style=" stroke:none;fill-rule:nonzero;fill:url(#36be1dcac0);" d="M 0.332031 0.367188 L 0.332031 25.679688 L 25.644531 25.679688 L 25.644531 0.367188 Z M 0.332031 0.367188 "/></g></g><g clip-rule="nonzero" clip-path="url(#6be3e69c42)"><g transform="matrix(1,0,0,1,11,5)"><g id="0caffc2b00" clip-path="url(#28a4f1de46)"><g style="fill:#ffffff;fill-opacity:1;"><g transform="translate(0.869552, 20.037628)"><path style="stroke:none" d="M 0.640625 0 L 0.640625 -0.1875 L 1.015625 -0.1875 C 1.441406 -0.1875 1.773438 -0.28125 2.015625 -0.46875 C 2.253906 -0.664062 2.375 -1 2.375 -1.46875 L 2.375 -11.65625 C 2.375 -12.082031 2.253906 -12.390625 2.015625 -12.578125 C 1.773438 -12.765625 1.441406 -12.859375 1.015625 -12.859375 L 0.640625 -12.859375 L 0.640625 -13.046875 L 5.90625 -13.046875 C 7.488281 -13.046875 8.65625 -12.703125 9.40625 -12.015625 C 10.164062 -11.335938 10.546875 -10.398438 10.546875 -9.203125 C 10.546875 -8.472656 10.382812 -7.796875 10.0625 -7.171875 C 9.738281 -6.546875 9.203125 -6.035156 8.453125 -5.640625 C 7.710938 -5.253906 6.726562 -5.0625 5.5 -5.0625 L 4.5 -5.0625 L 4.5 -1.4375 C 4.5 -0.988281 4.613281 -0.664062 4.84375 -0.46875 C 5.082031 -0.28125 5.414062 -0.1875 5.84375 -0.1875 L 6.34375 -0.1875 L 6.34375 0 Z M 4.5 -5.25 L 5.3125 -5.25 C 6.375 -5.25 7.128906 -5.539062 7.578125 -6.125 C 8.023438 -6.71875 8.25 -7.710938 8.25 -9.109375 C 8.25 -10.453125 8.046875 -11.410156 7.640625 -11.984375 C 7.242188 -12.566406 6.5625 -12.859375 5.59375 -12.859375 L 4.5 -12.859375 Z M 4.5 -5.25 "/></g></g></g></g></g><g transform="matrix(1,0,0,1,3,2)"><g id="376c8064b4" clip-path="url(#d70febd8a9)"><g style="fill:#ffffff;fill-opacity:1;"><g transform="translate(0.328217, 17.534271)"><path style="stroke:none" d="M 6.171875 0.15625 C 4.992188 0.15625 4.015625 -0.09375 3.234375 -0.59375 C 2.453125 -1.09375 1.867188 -1.796875 1.484375 -2.703125 C 1.109375 -3.609375 0.921875 -4.671875 0.921875 -5.890625 C 0.921875 -7.097656 1.113281 -8.148438 1.5 -9.046875 C 1.882812 -9.941406 2.46875 -10.640625 3.25 -11.140625 C 4.03125 -11.640625 5.015625 -11.890625 6.203125 -11.890625 C 7.316406 -11.890625 8.265625 -11.640625 9.046875 -11.140625 C 9.828125 -10.640625 10.421875 -9.9375 10.828125 -9.03125 C 11.234375 -8.132812 11.4375 -7.082031 11.4375 -5.875 C 11.4375 -4.65625 11.234375 -3.59375 10.828125 -2.6875 C 10.421875 -1.789062 9.828125 -1.09375 9.046875 -0.59375 C 8.265625 -0.09375 7.304688 0.15625 6.171875 0.15625 Z M 6.171875 0 C 7.285156 0 8.09375 -0.460938 8.59375 -1.390625 C 9.101562 -2.316406 9.359375 -3.8125 9.359375 -5.875 C 9.359375 -7.925781 9.101562 -9.410156 8.59375 -10.328125 C 8.09375 -11.253906 7.296875 -11.71875 6.203125 -11.71875 C 5.085938 -11.71875 4.269531 -11.253906 3.75 -10.328125 C 3.238281 -9.410156 2.984375 -7.925781 2.984375 -5.875 C 2.984375 -3.8125 3.234375 -2.316406 3.734375 -1.390625 C 4.242188 -0.460938 5.054688 0 6.171875 0 Z M 6.171875 0 "/></g></g></g></g></g></g></g></svg>