<?xml version="1.0" encoding="UTF-8" standalone="no" ?>
<!DOCTYPE svg PUBLIC "-//W3C//DTD SVG 1.1//EN" "http://www.w3.org/Graphics/SVG/1.1/DTD/svg11.dtd">
<svg xmlns="http://www.w3.org/2000/svg" xmlns:xlink="http://www.w3.org/1999/xlink" version="1.1" width="1280" height="1024" viewBox="0 0 1280 1024" xml:space="preserve">
<desc>Created with Fabric.js 5.3.0</desc>
<defs>
</defs>
<g transform="matrix(1 0 0 1 640 512)" id="background-logo"  >
<rect style="stroke: none; stroke-width: 0; stroke-dasharray: none; stroke-linecap: butt; stroke-dashoffset: 0; stroke-linejoin: miter; stroke-miterlimit: 4; fill: rgb(255,255,255); fill-opacity: 0; fill-rule: nonzero; opacity: 1;"  paint-order="stroke"  x="-640" y="-512" rx="0" ry="0" width="1280" height="1024" />
</g>
<g transform="matrix(4.099711334280803 0 0 4.099711334280803 639.3092105263161 410.96241528576485)" id="logo-logo"  >
<g style=""  paint-order="stroke"   >
		<g transform="matrix(1.458283762425747 0 0 1.4582837624257468 0.00000335405235318831 0)"  >
<linearGradient id="SVGID_43_447243" gradientUnits="userSpaceOnUse" gradientTransform="matrix(1 0 0 1 4.5076905000000025 -2.49999985158e-8)"  x1="0" y1="0" x2="0" y2="100">
<stop offset="0%" style="stop-color:rgb(23,234,217);stop-opacity: 1"/>
<stop offset="100%" style="stop-color:rgb(96,120,234);stop-opacity: 1"/>
</linearGradient>
<path style="stroke: none; stroke-width: 1; stroke-dasharray: none; stroke-linecap: butt; stroke-dashoffset: 0; stroke-linejoin: miter; stroke-miterlimit: 4; fill: url(#SVGID_43_447243); fill-rule: nonzero; opacity: 1;"  paint-order="stroke"  transform=" translate(-50.00000000000001, -50.00000000000001)" d="M 87.3151855 19.013916 L 58.177124 2.19104 C 53.1171264 -0.7303466999999997 46.8828735 -0.7303466999999997 41.822876 2.19104 L 12.6848145 19.013916 C 9.589172399999999 20.801147399999998 7.2259522 23.518127399999997 5.8535767 26.6943359 L 29.384765700000003 26.6943359 C 32.029296900000006 26.6943359 34.4619141 28.1440429 35.7207032 30.470214799999997 C 36.979492300000004 32.7963867 36.862304800000004 35.6254882 35.4150391 37.839843699999996 C 33.4423828 40.8583984 32.3994141 44.371582 32.3994141 48 C 32.3994141 58.2568359 40.7431641 66.6005859 51 66.6005859 C 61.2568359 66.6005859 69.6005859 58.2568359 69.6005859 48 C 69.6005859 37.7431641 61.2568359 29.3989258 51 29.3989258 C 47.0214844 29.3989258 43.7958984 26.173339900000002 43.7958984 22.1948242 C 43.7958984 18.216308499999997 47.0214844 14.9907227 51 14.9907227 C 69.20117189999999 14.9907227 84.0087891 29.7988282 84.0087891 48 C 84.0087891 66.2011718 69.2011719 81.0087891 51 81.0087891 C 32.798828099999994 81.0087891 17.9912109 66.2011719 17.9912109 48 C 17.9912109 45.6640625 18.2353515 43.3544922 18.7148437 41.1025391 L 5.7089844 41.1025391 C 5.2987671 41.1025391 4.8991699 41.0603028 4.507690500000001 40.9944458 L 4.507690500000001 66.822876 C 4.507690500000001 72.66571049999999 7.6247559 78.06469729999999 12.6848145 80.98608399999999 L 41.822876 97.80896 C 46.8828736 100.7303467 53.1171265 100.7303467 58.177124 97.80896 L 87.3151855 80.986084 C 92.3752441 78.0646973 95.4923095 72.6657105 95.4923095 66.82287600000001 L 95.4923095 33.177124 C 95.4923096 27.3342896 92.3752441 21.9353027 87.3151855 19.013916 z" stroke-linecap="round" />
</g>
		<g transform="matrix(1.458283762425747 0 0 1.4582837624257468 0 -0.0000012395412056776)"  >
<linearGradient id="SVGID_44_447244" gradientUnits="userSpaceOnUse" gradientTransform="matrix(1 0 0 1 4.507671899999998 0.00001742500000290192)"  x1="0" y1="0" x2="0" y2="100">
<stop offset="0%" style="stop-color:rgb(48,35,174);stop-opacity: 1"/>
<stop offset="100%" style="stop-color:rgb(200,109,215);stop-opacity: 1"/>
</linearGradient>
<path style="stroke: none; stroke-width: 1; stroke-dasharray: none; stroke-linecap: butt; stroke-dashoffset: 0; stroke-linejoin: miter; stroke-miterlimit: 4; fill: url(#SVGID_44_447244); fill-rule: nonzero; opacity: 1;"  paint-order="stroke"  transform=" translate(-49.9999977000002, -49.99999915)" d="M 87.3151779 19.0139408 L 58.1771545 2.1910231 C 53.1170692 -0.7303178000000004 46.8829307 -0.7303178000000004 41.822845400000006 2.1910231 L 12.6848249 19.0139408 C 8.9576826 21.1658497 6.297020900000001 24.6665935 5.147447500000001 28.6941547 L 28.3852252 28.6941547 C 31.030071200000002 28.6941547 33.4629706 30.144388199999998 34.721809300000004 32.4706688 C 35.980648 34.797596 35.86246860000001 37.62677 34.4148063 39.8406563 C 32.4417686 42.8586578 31.3987312 46.3712044 31.3987312 50 C 31.3987312 60.2569656 39.7430343 68.6012726 50 68.6012726 C 60.2569657 68.6012726 68.6012726 60.2569656 68.6012726 50 C 68.6012726 39.7436752 60.2569657 31.399374 50 31.399374 C 46.0218124 31.399374 42.79636 28.173919700000003 42.79636 24.1950912 C 42.79636 20.216262699999998 46.0218124 16.9908085 50 16.9908085 C 68.2017822 16.9908085 83.0085526 31.7988625 83.0085526 50.0000019 C 83.0085526 68.2017841 68.2017823 83.0085545 50 83.0085545 C 31.798217699999995 83.0085545 16.9914494 68.2017822 16.9914494 50 C 16.9914494 47.6640816 17.2355099 45.3538589 17.7146397 43.1027184 L 4.7087808 43.1027184 C 4.640861500000001 43.1027184 4.575109500000001 43.094452000000004 4.5076719 43.0926056 L 4.5076719 66.8228378 C 4.5076719 72.6656799 7.6247426 78.0646362 12.6848245 80.9860611 L 41.8228441 97.80897519999999 C 46.882929399999995 100.7303161 53.117067899999995 100.7303161 58.17715319999999 97.80897519999999 L 87.3151766 80.9860611 C 92.3752581 78.0646362 95.4923235 72.6656799 95.4923235 66.8228378 L 95.4923235 33.1771622 C 95.4923248 27.3343201 92.3752594 21.9353619 87.3151779 19.0139408 z" stroke-linecap="round" />
</g>
</g>
</g>
<g transform="matrix(1.9211538461538462 0 0 1.9211538461538462 639.5953820850206 776.3509991523906)" id="text-logo"  >
<g style=""  paint-order="stroke"   >
		<g transform="matrix(1 0 0 1 0 0)" id="text-logo-path-0"  >
<path style="stroke: rgb(255,255,255); stroke-width: 0; stroke-dasharray: none; stroke-linecap: butt; stroke-dashoffset: 0; stroke-linejoin: miter; stroke-miterlimit: 4; fill: rgb(255,255,255); fill-rule: nonzero; opacity: 1;"  paint-order="stroke"  transform=" translate(-173, 20.15)" d="M 40.3 -16.7 C 40.3 -23 36.9 -28.9 31.3 -31.8 C 28.2 -33.4 24.6 -33.9 21.2 -33.9 C 10.8 -33.9 2 -27.7 2 -16.7 C 2 -10.4 5.5 -4.5 11.1 -1.5 C 14.2 0.1 17.8 0.6 21.2 0.6 C 31.5 0.6 40.3 -5.7 40.3 -16.7 Z M 32.9 -16.7 C 32.9 -9.9 27.9 -5.1 21.2 -5.1 C 14.5 -5.1 9.5 -9.9 9.5 -16.7 C 9.5 -23.5 14.5 -28.2 21.2 -28.2 C 27.9 -28.2 32.9 -23.5 32.9 -16.7 Z M 97.1 0 L 97.1 -0.8 C 96.2 -1.1 95.6 -1.6 95.6 -2.6 L 95.6 -30.8 C 95.6 -31.8 96.2 -32.3 97.1 -32.6 L 97.1 -33.4 L 84.5 -33.4 L 84.5 -32.6 C 85.3 -32.5 85.8 -32 85.8 -31.3 C 85.8 -30.9 85.4 -30.3 85.1 -29.8 L 76 -13.3 L 66.9 -30.1 C 66.7 -30.5 66.5 -30.8 66.5 -31.3 C 66.5 -31.9 67.1 -32.4 67.7 -32.6 L 67.7 -33.4 L 54.8 -33.4 L 54.8 -32.6 C 55.7 -32.3 56.4 -31.8 56.4 -30.8 L 56.4 -2.6 C 56.4 -1.6 55.7 -1.1 54.8 -0.8 L 54.8 0 L 64.6 0 L 64.6 -0.8 C 63.7 -1.1 63.1 -1.6 63.1 -2.6 L 63.1 -23.1 L 75.3 -0.5 L 88.3 -23.1 L 88.3 -2.6 C 88.3 -1.6 87.7 -1.1 86.7 -0.8 L 86.7 0 Z M 144.1 1.6 L 144.1 -7.1 L 143.4 -7.1 C 143.1 -6.2 142.6 -5.5 141.6 -5.5 L 120.1 -5.5 L 120.1 -14.7 L 133.7 -14.7 C 134.7 -14.7 135.2 -14 135.4 -13.1 L 136.2 -13.1 L 136.2 -21.5 L 135.4 -21.5 C 135.2 -20.6 134.7 -20 133.7 -20 L 120.1 -20 L 120.1 -27.9 L 141 -27.9 C 142 -27.9 142.5 -27.2 142.8 -26.3 L 143.6 -26.3 L 143.6 -34.9 L 142.8 -34.9 C 142.5 -34 142 -33.4 141 -33.4 L 111.3 -33.4 L 111.3 -32.6 C 112.2 -32.3 112.9 -31.9 112.9 -30.8 L 112.9 -2.6 C 112.9 -1.1 111.3 -0.8 111.3 -0.8 L 111.3 0 L 141.6 0 C 142.6 0 143.1 0.7 143.4 1.6 Z M 187.2 -39.6 L 183.3 -41.9 L 182.9 -41.3 C 183.2 -41.1 183.5 -40.8 183.5 -40.5 C 183.5 -39.8 182.6 -39.3 182 -39.3 C 179 -39.3 176.4 -41.7 173.3 -41.7 C 170.6 -41.7 169.1 -38.5 168 -38.5 L 167.5 -38.5 L 167.2 -38.1 L 171.2 -35.8 L 171.5 -36.3 C 171.2 -36.5 171 -36.8 171 -37.1 C 171 -37.7 171.9 -38.3 172.6 -38.3 C 175.3 -38.3 178.2 -35.8 181.2 -35.8 C 183 -35.8 184.6 -37.3 185.7 -38.7 C 185.9 -38.9 186.1 -39.1 186.4 -39.1 C 186.5 -39.1 186.7 -39.1 186.9 -39 Z M 196 0 L 196 -0.8 C 195.1 -1.1 194.4 -1.6 194.4 -2.6 L 194.4 -30.8 C 194.4 -31.8 195.1 -32.3 196 -32.6 L 196 -33.4 L 186.2 -33.4 L 186.2 -32.6 C 187.1 -32.3 187.8 -31.8 187.8 -30.8 L 187.8 -11 L 169.4 -30.2 C 169 -30.5 168.7 -30.9 168.7 -31.5 C 168.7 -32.1 169.2 -32.4 169.8 -32.6 L 169.8 -33.4 L 158.4 -33.4 L 158.4 -32.6 C 159.3 -32.3 160 -31.8 160 -30.8 L 160 -2.6 C 160 -1.6 159.3 -1.1 158.4 -0.8 L 158.4 0 L 168.2 0 L 168.2 -0.8 C 167.3 -1.1 166.7 -1.6 166.7 -2.6 L 166.7 -22.9 L 185.3 -3.6 C 185.8 -3.1 186.5 -2.6 186.5 -1.8 C 186.5 -1.2 186 -0.9 185.5 -0.8 L 185.5 0 Z M 246.4 -32.6 L 246.4 -33.4 L 236.5 -33.4 L 236.5 -32.6 C 237.4 -32.3 238.1 -31.8 238.1 -30.8 L 238.1 -13.4 C 238.1 -6.8 234.9 -5.1 228.6 -5.1 C 225.8 -5.1 222.6 -5.5 220.6 -7.6 C 219.2 -9 219.1 -11.2 219.1 -13.1 L 219.1 -30.8 C 219.1 -31.8 219.7 -32.3 220.6 -32.6 L 220.6 -33.4 L 210.2 -33.4 L 210.2 -32.6 C 211.1 -32.3 211.8 -31.8 211.8 -30.8 L 211.8 -12.1 C 211.8 -1.4 219.1 0.6 228.3 0.6 C 237.7 0.6 244.8 -1.4 244.8 -12.1 L 244.8 -30.8 C 244.8 -31.8 245.4 -32.3 246.4 -32.6 Z M 297 0 L 297 -0.8 C 294.9 -1.1 293.7 -2.9 292.4 -4.4 L 279.6 -19.8 L 290.9 -29 C 292.4 -30.2 294.3 -32.3 296.2 -32.6 L 296.2 -33.4 L 282.5 -33.4 L 282.5 -32.6 C 283.1 -32.5 283.9 -32.3 283.9 -31.5 C 283.9 -31 283.3 -30.6 283 -30.4 L 269.2 -19.2 L 269.2 -30.8 C 269.2 -31.8 269.9 -32.3 270.8 -32.6 L 270.8 -33.4 L 260.4 -33.4 L 260.4 -32.6 C 261.3 -32.3 262 -31.8 262 -30.8 L 262 -2.6 C 262 -1.6 261.3 -1.1 260.4 -0.8 L 260.4 0 L 270.8 0 L 270.8 -0.8 C 269.9 -1.1 269.2 -1.6 269.2 -2.6 L 269.2 -11.5 L 274.3 -15.6 L 284.1 -3.5 C 284.5 -3 285.3 -2.4 285.3 -1.7 C 285.3 -1.1 284.4 -0.9 284 -0.8 L 284 0 Z M 344 -23.5 C 344 -26.4 342.9 -29.4 340.5 -31.2 C 337.8 -33.2 334.2 -33.4 330.9 -33.4 L 310.1 -33.4 L 310.1 -32.6 C 311 -32.3 311.7 -31.8 311.7 -30.8 L 311.7 -2.6 C 311.7 -1.1 310.1 -0.8 310.1 -0.8 L 310.1 0 L 320.5 0 L 320.5 -0.8 C 319.6 -1.1 318.9 -1.6 318.9 -2.6 L 318.9 -13.6 L 330.9 -13.6 C 334.2 -13.6 337.7 -13.7 340.5 -15.7 C 342.9 -17.5 344 -20.6 344 -23.5 Z M 336.6 -23.5 C 336.6 -19.7 333.1 -19 330.1 -19 L 318.9 -19 L 318.9 -27.9 L 330.6 -27.9 C 333.7 -27.9 336.6 -27.2 336.6 -23.5 Z" stroke-linecap="round" />
</g>
</g>
</g>
<g transform="matrix(1.9211538461538462 0 0 1.9211538461538462 640.0257205465593 886.2469153640533)" id="tagline-7aa4ea28-c25b-403a-83a5-a3b056a3f021-logo"  >
<g style=""  paint-order="stroke"   >
		<g transform="matrix(1 0 0 1 0 0)" id="tagline-7aa4ea28-c25b-403a-83a5-a3b056a3f021-logo-path-0"  >
<path style="stroke: rgb(255,255,255); stroke-width: 0; stroke-dasharray: none; stroke-linecap: butt; stroke-dashoffset: 0; stroke-linejoin: miter; stroke-miterlimit: 4; fill: rgb(255,255,255); fill-rule: nonzero; opacity: 1;"  paint-order="stroke"  transform=" translate(-223.45000000000002, 5.454512023581565)" d="M 7.22 -1.26 C 4.39 -1.26 2.16 -3.49 2.16 -6.32 C 2.16 -9.11 4.39 -11.34 7.22 -11.34 C 9.99 -11.34 12.24 -9.11 12.24 -6.32 C 12.24 -3.49 9.99 -1.26 7.22 -1.26 Z M 7.22 0 C 10.67 0 13.5 -2.81 13.5 -6.32 C 13.5 -9.79 10.67 -12.6 7.22 -12.6 C 3.71 -12.6 0.9 -9.79 0.9 -6.32 C 0.9 -2.81 3.71 0 7.22 0 Z M 29.23 -0.58 L 29.23 -11.84 C 29.23 -12.65 28.15 -12.91 27.77 -12.24 L 23.65 -5.45 L 19.53 -12.24 C 19.15 -12.91 18.07 -12.65 18.07 -11.84 L 18.07 -0.58 C 18.07 -0.22 18.36 0.05 18.7 0.05 C 19.06 0.07 19.33 -0.22 19.33 -0.58 L 19.33 -10.13 L 23.02 -4.07 C 23.29 -3.56 24.01 -3.58 24.28 -4.07 L 27.97 -10.13 L 27.97 -0.58 C 27.97 -0.22 28.26 0.05 28.6 0.05 C 28.96 0.07 29.23 -0.22 29.23 -0.58 Z M 33.91 -11.77 L 37.75 -5.92 L 37.75 -0.58 C 37.75 -0.22 38.03 0.05 38.38 0.05 C 38.74 0.07 39.01 -0.22 39.01 -0.58 L 39.01 -5.98 L 42.82 -11.77 C 42.88 -11.86 42.93 -11.99 42.93 -12.13 C 42.93 -12.46 42.64 -12.76 42.3 -12.76 C 42.08 -12.76 41.89 -12.64 41.78 -12.47 L 38.36 -7.29 L 34.96 -12.47 C 34.85 -12.64 34.65 -12.76 34.43 -12.76 C 34.11 -12.76 33.8 -12.47 33.8 -12.13 C 33.8 -12.01 33.84 -11.88 33.91 -11.77 Z M 48.76 -0.58 L 48.73 -10.3 L 56.18 -0.31 C 56.65 0.29 57.58 -0.04 57.58 -0.77 L 57.58 -12.04 C 57.58 -12.38 57.29 -12.67 56.95 -12.67 C 56.59 -12.65 56.32 -12.38 56.32 -12.04 L 56.32 -2.21 L 48.78 -12.33 C 48.35 -12.91 47.47 -12.55 47.47 -11.84 L 47.5 -0.56 C 47.5 -0.23 47.79 0.07 48.13 0.07 C 48.46 0.07 48.76 -0.23 48.76 -0.58 Z M 63.41 -0.58 L 63.41 -5.67 L 68.36 -5.67 C 68.71 -5.67 68.99 -5.96 68.99 -6.3 C 68.98 -6.66 68.71 -6.93 68.36 -6.93 L 63.41 -6.93 L 63.41 -11.34 L 69.62 -11.34 C 69.97 -11.34 70.25 -11.63 70.25 -11.97 C 70.24 -12.33 69.97 -12.6 69.62 -12.6 L 62.87 -12.6 C 62.48 -12.6 62.15 -12.28 62.15 -11.88 L 62.15 -0.58 C 62.15 -0.22 62.44 0.05 62.78 0.05 C 63.14 0.07 63.41 -0.22 63.41 -0.58 Z M 82.3 -1.26 L 76.09 -1.26 L 76.09 -12.04 C 76.09 -12.38 75.8 -12.67 75.46 -12.67 C 75.1 -12.65 74.83 -12.38 74.83 -12.04 L 74.83 -0.72 C 74.83 -0.32 75.15 0 75.55 0 L 82.3 0 C 82.64 0 82.93 -0.29 82.93 -0.63 C 82.91 -0.99 82.64 -1.26 82.3 -1.26 Z M 94 -1.26 C 91.17 -1.26 88.94 -3.49 88.94 -6.32 C 88.94 -9.11 91.17 -11.34 94 -11.34 C 96.77 -11.34 99.02 -9.11 99.02 -6.32 C 99.02 -3.49 96.77 -1.26 94 -1.26 Z M 94 0 C 97.45 0 100.28 -2.81 100.28 -6.32 C 100.28 -9.79 97.45 -12.6 94 -12.6 C 90.49 -12.6 87.68 -9.79 87.68 -6.32 C 87.68 -2.81 90.49 0 94 0 Z M 104.87 -11.88 L 108.32 -0.56 C 108.52 0.14 109.53 0.22 109.8 -0.5 L 113.04 -8.93 L 116.08 -0.52 C 116.35 0.2 117.29 0.2 117.54 -0.52 L 121.23 -11.88 C 121.36 -12.29 121.05 -12.69 120.62 -12.69 C 120.35 -12.69 120.1 -12.49 120.02 -12.24 L 116.78 -2.29 L 113.78 -10.58 C 113.51 -11.29 112.57 -11.29 112.32 -10.6 L 109.12 -2.27 L 106.09 -12.22 C 106.02 -12.47 105.77 -12.69 105.48 -12.69 C 105.08 -12.69 104.76 -12.28 104.87 -11.88 Z M 133.83 1.22 L 133.83 -12.04 C 133.83 -12.38 133.54 -12.67 133.2 -12.67 C 132.84 -12.65 132.57 -12.38 132.57 -12.04 L 132.57 1.22 C 132.57 1.58 132.86 1.85 133.2 1.85 C 133.56 1.87 133.83 1.58 133.83 1.22 Z M 145.24 -1.67 C 145.96 -0.65 147.22 0 148.64 0 C 150.84 0 152.68 -1.64 152.68 -3.71 C 152.68 -6.16 150.77 -6.84 149.35 -7.38 C 147.96 -7.88 146.66 -8.26 146.66 -9.47 C 146.66 -10.48 147.6 -11.34 148.84 -11.34 C 149.65 -11.34 150.34 -10.98 150.73 -10.44 C 150.84 -10.28 151.02 -10.17 151.24 -10.17 C 151.58 -10.17 151.87 -10.46 151.87 -10.8 C 151.87 -10.94 151.81 -11.07 151.74 -11.16 C 151.13 -12.02 150.05 -12.6 148.84 -12.6 C 146.95 -12.6 145.4 -11.2 145.4 -9.47 C 145.4 -7.31 147.53 -6.7 148.91 -6.19 C 150.34 -5.65 151.42 -5.26 151.42 -3.71 C 151.42 -2.36 150.19 -1.26 148.64 -1.26 C 147.62 -1.26 146.75 -1.73 146.29 -2.39 C 146.18 -2.54 145.98 -2.66 145.76 -2.66 C 145.42 -2.66 145.13 -2.38 145.13 -2.03 C 145.13 -1.91 145.17 -1.78 145.24 -1.67 Z M 163.75 -1.26 C 160.92 -1.26 158.69 -3.49 158.69 -6.32 C 158.69 -9.11 160.92 -11.34 163.75 -11.34 C 166.52 -11.34 168.77 -9.11 168.77 -6.32 C 168.77 -3.49 166.52 -1.26 163.75 -1.26 Z M 163.75 0 C 167.2 0 170.03 -2.81 170.03 -6.32 C 170.03 -9.79 167.2 -12.6 163.75 -12.6 C 160.24 -12.6 157.43 -9.79 157.43 -6.32 C 157.43 -2.81 160.24 0 163.75 0 Z M 182.07 -1.26 L 175.86 -1.26 L 175.86 -12.04 C 175.86 -12.38 175.57 -12.67 175.23 -12.67 C 174.87 -12.65 174.6 -12.38 174.6 -12.04 L 174.6 -0.72 C 174.6 -0.32 174.92 0 175.32 0 L 182.07 0 C 182.41 0 182.7 -0.29 182.7 -0.63 C 182.68 -0.99 182.41 -1.26 182.07 -1.26 Z M 194.65 -12.04 L 194.65 -4.34 C 194.65 -2.63 193.27 -1.26 191.61 -1.26 C 189.92 -1.26 188.53 -2.63 188.53 -4.34 L 188.53 -12.04 C 188.53 -12.38 188.24 -12.67 187.9 -12.67 C 187.54 -12.65 187.27 -12.38 187.27 -12.04 L 187.27 -4.34 C 187.27 -1.94 189.23 0 191.61 0 C 193.95 0 195.91 -1.94 195.91 -4.34 L 195.91 -12.04 C 195.91 -12.38 195.62 -12.67 195.28 -12.67 C 194.92 -12.65 194.65 -12.38 194.65 -12.04 Z M 210.02 -2.43 C 209.16 -1.69 208.03 -1.26 206.8 -1.26 C 203.98 -1.26 201.74 -3.49 201.74 -6.32 C 201.74 -9.11 203.98 -11.34 206.8 -11.34 C 207.77 -11.34 208.67 -11.07 209.47 -10.58 C 209.57 -10.51 209.66 -10.49 209.79 -10.49 C 210.13 -10.49 210.42 -10.76 210.42 -11.12 C 210.42 -11.34 210.29 -11.56 210.11 -11.66 C 209.14 -12.26 208.01 -12.6 206.8 -12.6 C 203.29 -12.6 200.48 -9.79 200.48 -6.32 C 200.48 -2.81 203.29 0 206.8 0 C 208.33 0 209.74 -0.54 210.85 -1.48 C 210.98 -1.58 211.07 -1.76 211.07 -1.96 C 211.07 -2.29 210.78 -2.57 210.44 -2.57 C 210.29 -2.57 210.15 -2.54 210.02 -2.43 Z M 216.27 -11.34 L 217.33 -11.34 L 217.33 -1.26 L 216.27 -1.26 C 215.91 -1.26 215.64 -0.97 215.64 -0.63 C 215.62 -0.27 215.91 0 216.27 0 L 219.65 0 C 220 0 220.28 -0.29 220.28 -0.63 C 220.27 -0.99 220 -1.26 219.65 -1.26 L 218.59 -1.26 L 218.59 -11.34 L 219.65 -11.34 C 220 -11.34 220.28 -11.63 220.28 -11.97 C 220.27 -12.33 220 -12.6 219.65 -12.6 L 216.27 -12.6 C 215.91 -12.6 215.64 -12.31 215.64 -11.97 C 215.62 -11.61 215.91 -11.34 216.27 -11.34 Z M 231.35 -1.26 C 228.53 -1.26 226.3 -3.49 226.3 -6.32 C 226.3 -9.11 228.53 -11.34 231.35 -11.34 C 234.13 -11.34 236.38 -9.11 236.38 -6.32 C 236.38 -3.49 234.13 -1.26 231.35 -1.26 Z M 231.35 0 C 234.81 0 237.64 -2.81 237.64 -6.32 C 237.64 -9.79 234.81 -12.6 231.35 -12.6 C 227.84 -12.6 225.04 -9.79 225.04 -6.32 C 225.04 -2.81 227.84 0 231.35 0 Z M 243.47 -0.58 L 243.43 -10.3 L 250.88 -0.31 C 251.35 0.29 252.29 -0.04 252.29 -0.77 L 252.29 -12.04 C 252.29 -12.38 252 -12.67 251.66 -12.67 C 251.3 -12.65 251.03 -12.38 251.03 -12.04 L 251.03 -2.21 L 243.49 -12.33 C 243.05 -12.91 242.17 -12.55 242.17 -11.84 L 242.21 -0.56 C 242.21 -0.23 242.5 0.07 242.84 0.07 C 243.16 0.07 243.47 -0.23 243.47 -0.58 Z M 264.33 -1.26 L 258.12 -1.26 L 258.12 -5.67 L 263.07 -5.67 C 263.41 -5.67 263.7 -5.96 263.7 -6.3 C 263.68 -6.66 263.41 -6.93 263.07 -6.93 L 258.12 -6.93 L 258.12 -11.34 L 264.33 -11.34 C 264.67 -11.34 264.96 -11.63 264.96 -11.97 C 264.94 -12.33 264.67 -12.6 264.33 -12.6 L 257.58 -12.6 C 257.18 -12.6 256.86 -12.28 256.86 -11.88 L 256.86 -0.72 C 256.86 -0.32 257.18 0 257.58 0 L 264.33 0 C 264.67 0 264.96 -0.29 264.96 -0.63 C 264.94 -0.99 264.67 -1.26 264.33 -1.26 Z M 269.64 -1.67 C 270.36 -0.65 271.62 0 273.04 0 C 275.24 0 277.07 -1.64 277.07 -3.71 C 277.07 -6.16 275.17 -6.84 273.74 -7.38 C 272.36 -7.88 271.06 -8.26 271.06 -9.47 C 271.06 -10.48 272 -11.34 273.24 -11.34 C 274.05 -11.34 274.73 -10.98 275.13 -10.44 C 275.24 -10.28 275.42 -10.17 275.63 -10.17 C 275.98 -10.17 276.26 -10.46 276.26 -10.8 C 276.26 -10.94 276.21 -11.07 276.14 -11.16 C 275.53 -12.02 274.45 -12.6 273.24 -12.6 C 271.35 -12.6 269.8 -11.2 269.8 -9.47 C 269.8 -7.31 271.93 -6.7 273.31 -6.19 C 274.73 -5.65 275.81 -5.26 275.81 -3.71 C 275.81 -2.36 274.59 -1.26 273.04 -1.26 C 272.02 -1.26 271.15 -1.73 270.68 -2.39 C 270.58 -2.54 270.38 -2.66 270.16 -2.66 C 269.82 -2.66 269.53 -2.38 269.53 -2.03 C 269.53 -1.91 269.57 -1.78 269.64 -1.67 Z M 289.01 -11.34 L 290.07 -11.34 L 290.07 -1.26 L 289.01 -1.26 C 288.65 -1.26 288.38 -0.97 288.38 -0.63 C 288.36 -0.27 288.65 0 289.01 0 L 292.39 0 C 292.73 0 293.02 -0.29 293.02 -0.63 C 293 -0.99 292.73 -1.26 292.39 -1.26 L 291.33 -1.26 L 291.33 -11.34 L 292.39 -11.34 C 292.73 -11.34 293.02 -11.63 293.02 -11.97 C 293 -12.33 292.73 -12.6 292.39 -12.6 L 289.01 -12.6 C 288.65 -12.6 288.38 -12.31 288.38 -11.97 C 288.36 -11.61 288.65 -11.34 289.01 -11.34 Z M 298.85 -0.58 L 298.82 -10.3 L 306.27 -0.31 C 306.74 0.29 307.67 -0.04 307.67 -0.77 L 307.67 -12.04 C 307.67 -12.38 307.39 -12.67 307.04 -12.67 C 306.68 -12.65 306.41 -12.38 306.41 -12.04 L 306.41 -2.21 L 298.87 -12.33 C 298.44 -12.91 297.56 -12.55 297.56 -11.84 L 297.59 -0.56 C 297.59 -0.23 297.88 0.07 298.22 0.07 C 298.55 0.07 298.85 -0.23 298.85 -0.58 Z M 313.51 -0.58 L 313.51 -5.67 L 318.46 -5.67 C 318.8 -5.67 319.09 -5.96 319.09 -6.3 C 319.07 -6.66 318.8 -6.93 318.46 -6.93 L 313.51 -6.93 L 313.51 -11.34 L 319.72 -11.34 C 320.06 -11.34 320.35 -11.63 320.35 -11.97 C 320.33 -12.33 320.06 -12.6 319.72 -12.6 L 312.97 -12.6 C 312.57 -12.6 312.25 -12.28 312.25 -11.88 L 312.25 -0.58 C 312.25 -0.22 312.53 0.05 312.88 0.05 C 313.24 0.07 313.51 -0.22 313.51 -0.58 Z M 331.42 -1.26 C 328.59 -1.26 326.36 -3.49 326.36 -6.32 C 326.36 -9.11 328.59 -11.34 331.42 -11.34 C 334.19 -11.34 336.44 -9.11 336.44 -6.32 C 336.44 -3.49 334.19 -1.26 331.42 -1.26 Z M 331.42 0 C 334.87 0 337.7 -2.81 337.7 -6.32 C 337.7 -9.79 334.87 -12.6 331.42 -12.6 C 327.91 -12.6 325.1 -9.79 325.1 -6.32 C 325.1 -2.81 327.91 0 331.42 0 Z M 343.53 -0.58 L 343.53 -5.09 L 346.57 -5.09 L 346.63 -5.09 L 348.98 -0.34 C 349.07 -0.16 349.31 0 349.54 0 C 349.88 0 350.17 -0.29 350.17 -0.63 C 350.17 -0.72 350.14 -0.85 350.1 -0.92 L 347.9 -5.35 C 349.31 -5.9 350.3 -7.27 350.3 -8.87 C 350.3 -10.91 348.61 -12.6 346.57 -12.6 L 342.99 -12.6 C 342.59 -12.6 342.27 -12.28 342.27 -11.88 L 342.27 -0.58 C 342.27 -0.22 342.56 0.05 342.9 0.05 C 343.26 0.07 343.53 -0.22 343.53 -0.58 Z M 343.53 -6.35 L 343.53 -11.34 L 346.57 -11.34 C 347.92 -11.34 349.04 -10.22 349.04 -8.87 C 349.04 -7.49 347.92 -6.35 346.57 -6.35 Z M 366.03 -0.58 L 366.03 -11.84 C 366.03 -12.65 364.95 -12.91 364.57 -12.24 L 360.45 -5.45 L 356.33 -12.24 C 355.95 -12.91 354.87 -12.65 354.87 -11.84 L 354.87 -0.58 C 354.87 -0.22 355.16 0.05 355.5 0.05 C 355.86 0.07 356.13 -0.22 356.13 -0.58 L 356.13 -10.13 L 359.82 -4.07 C 360.09 -3.56 360.81 -3.58 361.08 -4.07 L 364.77 -10.13 L 364.77 -0.58 C 364.77 -0.22 365.06 0.05 365.4 0.05 C 365.76 0.07 366.03 -0.22 366.03 -0.58 Z M 380.95 -0.77 L 376.51 -12.11 C 376.25 -12.74 375.37 -12.78 375.1 -12.11 L 370.66 -0.77 C 370.62 -0.68 370.6 -0.61 370.6 -0.52 C 370.6 -0.2 370.89 0.11 371.23 0.11 C 371.48 0.11 371.74 -0.07 371.83 -0.29 L 373.36 -4.23 L 378.23 -4.23 L 379.78 -0.29 C 379.89 -0.04 380.11 0.11 380.38 0.11 C 380.7 0.11 381.01 -0.18 381.01 -0.52 C 381.01 -0.59 380.99 -0.68 380.95 -0.77 Z M 373.86 -5.49 L 375.8 -10.48 L 377.75 -5.49 Z M 376.25 -11.63 L 376.25 -11.65 Z M 390.69 -0.58 L 390.69 -11.34 L 393.91 -11.34 C 394.25 -11.34 394.54 -11.63 394.54 -11.97 C 394.52 -12.33 394.25 -12.6 393.91 -12.6 L 386.21 -12.6 C 385.85 -12.6 385.58 -12.31 385.58 -11.97 C 385.56 -11.61 385.85 -11.34 386.21 -11.34 L 389.43 -11.34 L 389.43 -0.58 C 389.43 -0.22 389.72 0.05 390.06 0.05 C 390.42 0.07 390.69 -0.22 390.69 -0.58 Z M 399.74 -11.34 L 400.81 -11.34 L 400.81 -1.26 L 399.74 -1.26 C 399.38 -1.26 399.11 -0.97 399.11 -0.63 C 399.1 -0.27 399.38 0 399.74 0 L 403.13 0 C 403.47 0 403.76 -0.29 403.76 -0.63 C 403.74 -0.99 403.47 -1.26 403.13 -1.26 L 402.07 -1.26 L 402.07 -11.34 L 403.13 -11.34 C 403.47 -11.34 403.76 -11.63 403.76 -11.97 C 403.74 -12.33 403.47 -12.6 403.13 -12.6 L 399.74 -12.6 C 399.38 -12.6 399.11 -12.31 399.11 -11.97 C 399.1 -11.61 399.38 -11.34 399.74 -11.34 Z M 417.87 -2.43 C 417.01 -1.69 415.87 -1.26 414.65 -1.26 C 411.82 -1.26 409.59 -3.49 409.59 -6.32 C 409.59 -9.11 411.82 -11.34 414.65 -11.34 C 415.62 -11.34 416.52 -11.07 417.31 -10.58 C 417.42 -10.51 417.51 -10.49 417.64 -10.49 C 417.98 -10.49 418.27 -10.76 418.27 -11.12 C 418.27 -11.34 418.14 -11.56 417.96 -11.66 C 416.99 -12.26 415.85 -12.6 414.65 -12.6 C 411.14 -12.6 408.33 -9.79 408.33 -6.32 C 408.33 -2.81 411.14 0 414.65 0 C 416.18 0 417.58 -0.54 418.7 -1.48 C 418.82 -1.58 418.91 -1.76 418.91 -1.96 C 418.91 -2.29 418.63 -2.57 418.28 -2.57 C 418.14 -2.57 418 -2.54 417.87 -2.43 Z M 433.84 -0.77 L 429.39 -12.11 C 429.14 -12.74 428.26 -12.78 427.99 -12.11 L 423.54 -0.77 C 423.5 -0.68 423.49 -0.61 423.49 -0.52 C 423.49 -0.2 423.77 0.11 424.12 0.11 C 424.37 0.11 424.62 -0.07 424.71 -0.29 L 426.24 -4.23 L 431.12 -4.23 L 432.67 -0.29 C 432.77 -0.04 432.99 0.11 433.26 0.11 C 433.58 0.11 433.89 -0.18 433.89 -0.52 C 433.89 -0.59 433.87 -0.68 433.84 -0.77 Z M 426.74 -5.49 L 428.69 -10.48 L 430.63 -5.49 Z M 429.14 -11.63 L 429.14 -11.65 Z M 438.57 -1.67 C 439.29 -0.65 440.55 0 441.97 0 C 444.17 0 446 -1.64 446 -3.71 C 446 -6.16 444.1 -6.84 442.67 -7.38 C 441.29 -7.88 439.99 -8.26 439.99 -9.47 C 439.99 -10.48 440.93 -11.34 442.17 -11.34 C 442.98 -11.34 443.66 -10.98 444.06 -10.44 C 444.17 -10.28 444.35 -10.17 444.56 -10.17 C 444.91 -10.17 445.19 -10.46 445.19 -10.8 C 445.19 -10.94 445.14 -11.07 445.07 -11.16 C 444.46 -12.02 443.38 -12.6 442.17 -12.6 C 440.28 -12.6 438.73 -11.2 438.73 -9.47 C 438.73 -7.31 440.86 -6.7 442.24 -6.19 C 443.66 -5.65 444.74 -5.26 444.74 -3.71 C 444.74 -2.36 443.52 -1.26 441.97 -1.26 C 440.95 -1.26 440.08 -1.73 439.61 -2.39 C 439.51 -2.54 439.31 -2.66 439.09 -2.66 C 438.75 -2.66 438.46 -2.38 438.46 -2.03 C 438.46 -1.91 438.5 -1.78 438.57 -1.67 Z" stroke-linecap="round" />
</g>
</g>
</g>
<g transform="matrix(3.349959056055982 0 0 3.349959056055982 620.6290943944022 919.0078537928981)" id="shape-be06c6c6-23fe-400d-b36b-7c3225808f2d"  >
<g style=""  paint-order="stroke"   >
		<g transform="matrix(1 0 0 1 0 0)" id="Layer_1"  >
<linearGradient id="SVGID_10_9_9_447246" gradientUnits="userSpaceOnUse" gradientTransform="matrix(1 0 0 1 0 0)"  x1="0" y1="0" x2="0" y2="2">
<stop offset="0%" style="stop-color:rgb(113,23,234);stop-opacity: 1"/>
<stop offset="100%" style="stop-color:rgb(234,96,96);stop-opacity: 1"/>
</linearGradient>
<path style="stroke: none; stroke-width: 1; stroke-dasharray: none; stroke-linecap: butt; stroke-dashoffset: 0; stroke-linejoin: miter; stroke-miterlimit: 4; fill: url(#SVGID_10_9_9_447246); fill-rule: nonzero; opacity: 1;"  paint-order="stroke"  transform=" translate(-100, -1)" d="M 0 1 C 0 1 0.8 1 2.2 0.9 C 3.7 0.9 5.800000000000001 0.8 8.5 0.8 C 14 0.7000000000000001 21.8 0.5 31.2 0.4 C 35.9 0.30000000000000004 41 0.30000000000000004 46.3 0.2 C 51.699999999999996 0.2 57.3 0.1 63.199999999999996 0.1 C 69.1 0.1 75.2 0 81.3 0 C 87.5 0 93.7 0 100 0 C 106.2 0 112.5 0 118.7 0 C 124.9 0 130.9 0.1 136.8 0.1 C 148.5 0.2 159.5 0.30000000000000004 168.8 0.4 C 178.20000000000002 0.5 186 0.7 191.5 0.8 C 194.2 0.8 196.4 0.9 197.9 0.9 C 199.2 1 200 1 200 1 C 200 1 199.2 1 197.8 1.1 C 196.3 1.1 194.20000000000002 1.2000000000000002 191.5 1.2000000000000002 C 186 1.3000000000000003 178.2 1.5000000000000002 168.8 1.6 C 159.4 1.7000000000000002 148.5 1.8 136.8 1.9000000000000001 C 130.9 1.9000000000000001 124.9 2 118.70000000000002 2 C 112.50000000000001 2 106.30000000000001 2 100.00000000000001 2 C 93.70000000000002 2 87.50000000000001 2 81.30000000000001 2 C 75.10000000000001 2 69.10000000000001 1.9 63.20000000000001 1.9 C 57.30000000000001 1.9 51.70000000000001 1.7999999999999998 46.30000000000001 1.7999999999999998 C 41 1.7 35.9 1.6 31.3 1.6 C 21.9 1.5 14.1 1.3 8.6 1.2 C 5.8999999999999995 1.2 3.6999999999999993 1.0999999999999999 2.3 1.0999999999999999 C 0.8 1 0 1 0 1 z" stroke-linecap="round" />
</g>
</g>
</g>
</svg>