<svg xmlns="http://www.w3.org/2000/svg" xmlns:xlink="http://www.w3.org/1999/xlink" width="100" zoomAndPan="magnify" viewBox="0 0 75 74.999997" height="100" preserveAspectRatio="xMidYMid meet" version="1.2"><defs><clipPath id="5441f5f715"><path d="M 41 4 L 47.960938 4 L 47.960938 13 L 41 13 Z M 41 4 "/></clipPath><clipPath id="e3ac04a939"><rect x="0" width="48" y="0" height="16"/></clipPath><clipPath id="f83abf2682"><path d="M 0.441406 2 L 4 2 L 4 6 L 0.441406 6 Z M 0.441406 2 "/></clipPath><clipPath id="502da15ff5"><path d="M 9 3 L 12.441406 3 L 12.441406 6 L 9 6 Z M 9 3 "/></clipPath><clipPath id="16c1621794"><rect x="0" width="13" y="0" height="8"/></clipPath><clipPath id="90e7092b26"><path d="M 1.082031 0.816406 L 52.699219 0.816406 L 52.699219 52.429688 L 1.082031 52.429688 Z M 1.082031 0.816406 "/></clipPath><clipPath id="7b49593daa"><path d="M 37.964844 0.816406 L 1.082031 0.816406 L 1.082031 37.699219 C 1.082031 45.832031 7.679688 52.429688 15.8125 52.429688 L 52.699219 52.429688 L 52.699219 15.546875 C 52.699219 7.410156 46.101562 0.816406 37.964844 0.816406 Z M 37.964844 0.816406 "/></clipPath><linearGradient x1="-0.0004945" gradientTransform="matrix(0.103228,0,0,0.103228,1.083505,0.814891)" y1="499.999505" x2="499.999505" gradientUnits="userSpaceOnUse" y2="-0.0004945" id="22646c7473"><stop style="stop-color:#4c489e;stop-opacity:1;" offset="0"/><stop style="stop-color:#4c489e;stop-opacity:1;" offset="0.0625"/><stop style="stop-color:#4c489e;stop-opacity:1;" offset="0.078125"/><stop style="stop-color:#4c489e;stop-opacity:1;" offset="0.0859375"/><stop style="stop-color:#4d489e;stop-opacity:1;" offset="0.0898438"/><stop style="stop-color:#4e489e;stop-opacity:1;" offset="0.09375"/><stop style="stop-color:#4f499e;stop-opacity:1;" offset="0.0976562"/><stop style="stop-color:#50499e;stop-opacity:1;" offset="0.101562"/><stop style="stop-color:#51499e;stop-opacity:1;" offset="0.105469"/><stop style="stop-color:#52499e;stop-opacity:1;" offset="0.109375"/><stop style="stop-color:#52499e;stop-opacity:1;" offset="0.113281"/><stop style="stop-color:#53499e;stop-opacity:1;" offset="0.117188"/><stop style="stop-color:#544a9e;stop-opacity:1;" offset="0.121094"/><stop style="stop-color:#554a9e;stop-opacity:1;" offset="0.125"/><stop style="stop-color:#564a9f;stop-opacity:1;" offset="0.128906"/><stop style="stop-color:#574a9f;stop-opacity:1;" offset="0.132812"/><stop style="stop-color:#574a9f;stop-opacity:1;" offset="0.136719"/><stop style="stop-color:#584a9f;stop-opacity:1;" offset="0.140625"/><stop style="stop-color:#594b9f;stop-opacity:1;" offset="0.144531"/><stop style="stop-color:#5a4b9f;stop-opacity:1;" offset="0.148438"/><stop style="stop-color:#5b4b9f;stop-opacity:1;" offset="0.152344"/><stop style="stop-color:#5c4b9f;stop-opacity:1;" offset="0.15625"/><stop style="stop-color:#5c4b9f;stop-opacity:1;" offset="0.160156"/><stop style="stop-color:#5d4b9f;stop-opacity:1;" offset="0.164063"/><stop style="stop-color:#5e4b9f;stop-opacity:1;" offset="0.167969"/><stop style="stop-color:#5f4c9f;stop-opacity:1;" offset="0.171875"/><stop style="stop-color:#604c9f;stop-opacity:1;" offset="0.175781"/><stop style="stop-color:#614c9f;stop-opacity:1;" offset="0.179688"/><stop style="stop-color:#614c9f;stop-opacity:1;" offset="0.183594"/><stop style="stop-color:#624c9f;stop-opacity:1;" offset="0.1875"/><stop style="stop-color:#634c9f;stop-opacity:1;" offset="0.191406"/><stop style="stop-color:#644d9f;stop-opacity:1;" offset="0.195312"/><stop style="stop-color:#654d9f;stop-opacity:1;" offset="0.199219"/><stop style="stop-color:#664d9f;stop-opacity:1;" offset="0.203125"/><stop style="stop-color:#664d9f;stop-opacity:1;" offset="0.207031"/><stop style="stop-color:#674da0;stop-opacity:1;" offset="0.210938"/><stop style="stop-color:#684da0;stop-opacity:1;" offset="0.214844"/><stop style="stop-color:#694ea0;stop-opacity:1;" offset="0.21875"/><stop style="stop-color:#6a4ea0;stop-opacity:1;" offset="0.222656"/><stop style="stop-color:#6b4ea0;stop-opacity:1;" offset="0.226562"/><stop style="stop-color:#6b4ea0;stop-opacity:1;" offset="0.230469"/><stop style="stop-color:#6c4ea0;stop-opacity:1;" offset="0.234375"/><stop style="stop-color:#6d4ea0;stop-opacity:1;" offset="0.238281"/><stop style="stop-color:#6e4ea0;stop-opacity:1;" offset="0.242188"/><stop style="stop-color:#6f4fa0;stop-opacity:1;" offset="0.246094"/><stop style="stop-color:#704fa0;stop-opacity:1;" offset="0.25"/><stop style="stop-color:#704fa0;stop-opacity:1;" offset="0.253906"/><stop style="stop-color:#714fa0;stop-opacity:1;" offset="0.257812"/><stop style="stop-color:#724fa0;stop-opacity:1;" offset="0.261719"/><stop style="stop-color:#734fa0;stop-opacity:1;" offset="0.265625"/><stop style="stop-color:#7450a0;stop-opacity:1;" offset="0.269531"/><stop style="stop-color:#7550a0;stop-opacity:1;" offset="0.273438"/><stop style="stop-color:#7550a0;stop-opacity:1;" offset="0.277344"/><stop style="stop-color:#7650a0;stop-opacity:1;" offset="0.28125"/><stop style="stop-color:#7750a0;stop-opacity:1;" offset="0.285156"/><stop style="stop-color:#7850a0;stop-opacity:1;" offset="0.289062"/><stop style="stop-color:#7951a1;stop-opacity:1;" offset="0.292969"/><stop style="stop-color:#7a51a1;stop-opacity:1;" offset="0.296875"/><stop style="stop-color:#7b51a1;stop-opacity:1;" offset="0.300781"/><stop style="stop-color:#7b51a1;stop-opacity:1;" offset="0.304688"/><stop style="stop-color:#7c51a1;stop-opacity:1;" offset="0.308594"/><stop style="stop-color:#7d51a1;stop-opacity:1;" offset="0.3125"/><stop style="stop-color:#7e52a1;stop-opacity:1;" offset="0.316406"/><stop style="stop-color:#7f52a1;stop-opacity:1;" offset="0.320312"/><stop style="stop-color:#8052a1;stop-opacity:1;" offset="0.324219"/><stop style="stop-color:#8052a1;stop-opacity:1;" offset="0.328125"/><stop style="stop-color:#8152a1;stop-opacity:1;" offset="0.332031"/><stop style="stop-color:#8252a1;stop-opacity:1;" offset="0.335937"/><stop style="stop-color:#8352a1;stop-opacity:1;" offset="0.339844"/><stop style="stop-color:#8453a1;stop-opacity:1;" offset="0.34375"/><stop style="stop-color:#8553a1;stop-opacity:1;" offset="0.347656"/><stop style="stop-color:#8553a1;stop-opacity:1;" offset="0.351562"/><stop style="stop-color:#8653a1;stop-opacity:1;" offset="0.355469"/><stop style="stop-color:#8753a1;stop-opacity:1;" offset="0.359375"/><stop style="stop-color:#8853a1;stop-opacity:1;" offset="0.363281"/><stop style="stop-color:#8954a1;stop-opacity:1;" offset="0.367188"/><stop style="stop-color:#8a54a1;stop-opacity:1;" offset="0.371094"/><stop style="stop-color:#8a54a1;stop-opacity:1;" offset="0.375"/><stop style="stop-color:#8b54a2;stop-opacity:1;" offset="0.378906"/><stop style="stop-color:#8c54a2;stop-opacity:1;" offset="0.382812"/><stop style="stop-color:#8d54a2;stop-opacity:1;" offset="0.386719"/><stop style="stop-color:#8e55a2;stop-opacity:1;" offset="0.390625"/><stop style="stop-color:#8f55a2;stop-opacity:1;" offset="0.394531"/><stop style="stop-color:#8f55a2;stop-opacity:1;" offset="0.398438"/><stop style="stop-color:#9055a2;stop-opacity:1;" offset="0.402344"/><stop style="stop-color:#9155a2;stop-opacity:1;" offset="0.40625"/><stop style="stop-color:#9255a2;stop-opacity:1;" offset="0.410156"/><stop style="stop-color:#9356a2;stop-opacity:1;" offset="0.414063"/><stop style="stop-color:#9456a2;stop-opacity:1;" offset="0.417969"/><stop style="stop-color:#9456a2;stop-opacity:1;" offset="0.421875"/><stop style="stop-color:#9556a2;stop-opacity:1;" offset="0.425781"/><stop style="stop-color:#9656a2;stop-opacity:1;" offset="0.429688"/><stop style="stop-color:#9756a2;stop-opacity:1;" offset="0.433594"/><stop style="stop-color:#9856a2;stop-opacity:1;" offset="0.4375"/><stop style="stop-color:#9957a2;stop-opacity:1;" offset="0.441406"/><stop style="stop-color:#9957a2;stop-opacity:1;" offset="0.445312"/><stop style="stop-color:#9a57a2;stop-opacity:1;" offset="0.449219"/><stop style="stop-color:#9b57a2;stop-opacity:1;" offset="0.453125"/><stop style="stop-color:#9c57a2;stop-opacity:1;" offset="0.457031"/><stop style="stop-color:#9d57a3;stop-opacity:1;" offset="0.460937"/><stop style="stop-color:#9e58a3;stop-opacity:1;" offset="0.464844"/><stop style="stop-color:#9e58a3;stop-opacity:1;" offset="0.46875"/><stop style="stop-color:#9f58a3;stop-opacity:1;" offset="0.472656"/><stop style="stop-color:#a058a3;stop-opacity:1;" offset="0.476562"/><stop style="stop-color:#a158a3;stop-opacity:1;" offset="0.480469"/><stop style="stop-color:#a258a3;stop-opacity:1;" offset="0.484375"/><stop style="stop-color:#a359a3;stop-opacity:1;" offset="0.488281"/><stop style="stop-color:#a459a3;stop-opacity:1;" offset="0.492188"/><stop style="stop-color:#a459a3;stop-opacity:1;" offset="0.496094"/><stop style="stop-color:#a559a3;stop-opacity:1;" offset="0.5"/><stop style="stop-color:#a65aa2;stop-opacity:1;" offset="0.503906"/><stop style="stop-color:#a75aa2;stop-opacity:1;" offset="0.507812"/><stop style="stop-color:#a75ba1;stop-opacity:1;" offset="0.511719"/><stop style="stop-color:#a85ba0;stop-opacity:1;" offset="0.515625"/><stop style="stop-color:#a95ca0;stop-opacity:1;" offset="0.519531"/><stop style="stop-color:#aa5d9f;stop-opacity:1;" offset="0.523438"/><stop style="stop-color:#aa5d9e;stop-opacity:1;" offset="0.527344"/><stop style="stop-color:#ab5e9e;stop-opacity:1;" offset="0.53125"/><stop style="stop-color:#ac5e9d;stop-opacity:1;" offset="0.535156"/><stop style="stop-color:#ac5f9c;stop-opacity:1;" offset="0.539062"/><stop style="stop-color:#ad5f9c;stop-opacity:1;" offset="0.542969"/><stop style="stop-color:#ae609b;stop-opacity:1;" offset="0.546875"/><stop style="stop-color:#af619a;stop-opacity:1;" offset="0.550781"/><stop style="stop-color:#af619a;stop-opacity:1;" offset="0.554688"/><stop style="stop-color:#b06299;stop-opacity:1;" offset="0.558594"/><stop style="stop-color:#b16298;stop-opacity:1;" offset="0.5625"/><stop style="stop-color:#b26398;stop-opacity:1;" offset="0.566406"/><stop style="stop-color:#b26397;stop-opacity:1;" offset="0.570312"/><stop style="stop-color:#b36496;stop-opacity:1;" offset="0.574219"/><stop style="stop-color:#b46596;stop-opacity:1;" offset="0.578125"/><stop style="stop-color:#b46595;stop-opacity:1;" offset="0.582031"/><stop style="stop-color:#b56694;stop-opacity:1;" offset="0.585938"/><stop style="stop-color:#b66694;stop-opacity:1;" offset="0.589844"/><stop style="stop-color:#b76793;stop-opacity:1;" offset="0.59375"/><stop style="stop-color:#b76792;stop-opacity:1;" offset="0.597656"/><stop style="stop-color:#b86892;stop-opacity:1;" offset="0.601563"/><stop style="stop-color:#b96991;stop-opacity:1;" offset="0.605469"/><stop style="stop-color:#ba6990;stop-opacity:1;" offset="0.609375"/><stop style="stop-color:#ba6a90;stop-opacity:1;" offset="0.613281"/><stop style="stop-color:#bb6a8f;stop-opacity:1;" offset="0.617188"/><stop style="stop-color:#bc6b8e;stop-opacity:1;" offset="0.621094"/><stop style="stop-color:#bd6b8e;stop-opacity:1;" offset="0.625"/><stop style="stop-color:#bd6c8d;stop-opacity:1;" offset="0.628906"/><stop style="stop-color:#be6d8c;stop-opacity:1;" offset="0.632812"/><stop style="stop-color:#bf6d8c;stop-opacity:1;" offset="0.636719"/><stop style="stop-color:#bf6e8b;stop-opacity:1;" offset="0.640625"/><stop style="stop-color:#c06e8a;stop-opacity:1;" offset="0.644531"/><stop style="stop-color:#c16f8a;stop-opacity:1;" offset="0.648437"/><stop style="stop-color:#c26f89;stop-opacity:1;" offset="0.652344"/><stop style="stop-color:#c27088;stop-opacity:1;" offset="0.65625"/><stop style="stop-color:#c37188;stop-opacity:1;" offset="0.660156"/><stop style="stop-color:#c47187;stop-opacity:1;" offset="0.664062"/><stop style="stop-color:#c57286;stop-opacity:1;" offset="0.667969"/><stop style="stop-color:#c57286;stop-opacity:1;" offset="0.671875"/><stop style="stop-color:#c67385;stop-opacity:1;" offset="0.675781"/><stop style="stop-color:#c77384;stop-opacity:1;" offset="0.679688"/><stop style="stop-color:#c77484;stop-opacity:1;" offset="0.683594"/><stop style="stop-color:#c87583;stop-opacity:1;" offset="0.6875"/><stop style="stop-color:#c97582;stop-opacity:1;" offset="0.691406"/><stop style="stop-color:#ca7682;stop-opacity:1;" offset="0.695312"/><stop style="stop-color:#ca7681;stop-opacity:1;" offset="0.699219"/><stop style="stop-color:#cb7780;stop-opacity:1;" offset="0.703125"/><stop style="stop-color:#cc7780;stop-opacity:1;" offset="0.707031"/><stop style="stop-color:#cd787f;stop-opacity:1;" offset="0.710938"/><stop style="stop-color:#cd797e;stop-opacity:1;" offset="0.714844"/><stop style="stop-color:#ce797e;stop-opacity:1;" offset="0.71875"/><stop style="stop-color:#cf7a7d;stop-opacity:1;" offset="0.722656"/><stop style="stop-color:#d07a7c;stop-opacity:1;" offset="0.726562"/><stop style="stop-color:#d07b7c;stop-opacity:1;" offset="0.730469"/><stop style="stop-color:#d17b7b;stop-opacity:1;" offset="0.734375"/><stop style="stop-color:#d27c7a;stop-opacity:1;" offset="0.738281"/><stop style="stop-color:#d27d7a;stop-opacity:1;" offset="0.742188"/><stop style="stop-color:#d37d79;stop-opacity:1;" offset="0.746094"/><stop style="stop-color:#d47e78;stop-opacity:1;" offset="0.75"/><stop style="stop-color:#d57e78;stop-opacity:1;" offset="0.753906"/><stop style="stop-color:#d57f77;stop-opacity:1;" offset="0.757812"/><stop style="stop-color:#d67f76;stop-opacity:1;" offset="0.761719"/><stop style="stop-color:#d78076;stop-opacity:1;" offset="0.765625"/><stop style="stop-color:#d88175;stop-opacity:1;" offset="0.769531"/><stop style="stop-color:#d88174;stop-opacity:1;" offset="0.773438"/><stop style="stop-color:#d98274;stop-opacity:1;" offset="0.777344"/><stop style="stop-color:#da8273;stop-opacity:1;" offset="0.78125"/><stop style="stop-color:#da8372;stop-opacity:1;" offset="0.785156"/><stop style="stop-color:#db8372;stop-opacity:1;" offset="0.789062"/><stop style="stop-color:#dc8471;stop-opacity:1;" offset="0.792969"/><stop style="stop-color:#dd8570;stop-opacity:1;" offset="0.796875"/><stop style="stop-color:#dd8570;stop-opacity:1;" offset="0.800781"/><stop style="stop-color:#de866f;stop-opacity:1;" offset="0.804688"/><stop style="stop-color:#df866e;stop-opacity:1;" offset="0.808594"/><stop style="stop-color:#e0876e;stop-opacity:1;" offset="0.8125"/><stop style="stop-color:#e0876d;stop-opacity:1;" offset="0.816406"/><stop style="stop-color:#e1886c;stop-opacity:1;" offset="0.820312"/><stop style="stop-color:#e2896c;stop-opacity:1;" offset="0.824219"/><stop style="stop-color:#e2896b;stop-opacity:1;" offset="0.828125"/><stop style="stop-color:#e38a6a;stop-opacity:1;" offset="0.832031"/><stop style="stop-color:#e48a6a;stop-opacity:1;" offset="0.835938"/><stop style="stop-color:#e58b69;stop-opacity:1;" offset="0.839844"/><stop style="stop-color:#e58b68;stop-opacity:1;" offset="0.84375"/><stop style="stop-color:#e68c68;stop-opacity:1;" offset="0.847656"/><stop style="stop-color:#e78d67;stop-opacity:1;" offset="0.851563"/><stop style="stop-color:#e88d66;stop-opacity:1;" offset="0.855469"/><stop style="stop-color:#e88e66;stop-opacity:1;" offset="0.859375"/><stop style="stop-color:#e98e65;stop-opacity:1;" offset="0.863281"/><stop style="stop-color:#ea8f64;stop-opacity:1;" offset="0.867188"/><stop style="stop-color:#eb8f64;stop-opacity:1;" offset="0.871094"/><stop style="stop-color:#eb9063;stop-opacity:1;" offset="0.875"/><stop style="stop-color:#ec9162;stop-opacity:1;" offset="0.878906"/><stop style="stop-color:#ed9162;stop-opacity:1;" offset="0.882812"/><stop style="stop-color:#ed9261;stop-opacity:1;" offset="0.886719"/><stop style="stop-color:#ee9260;stop-opacity:1;" offset="0.890625"/><stop style="stop-color:#ef9360;stop-opacity:1;" offset="0.894531"/><stop style="stop-color:#f0935f;stop-opacity:1;" offset="0.898438"/><stop style="stop-color:#f0945e;stop-opacity:1;" offset="0.902344"/><stop style="stop-color:#f1945e;stop-opacity:1;" offset="0.90625"/><stop style="stop-color:#f2955d;stop-opacity:1;" offset="0.910156"/><stop style="stop-color:#f3965c;stop-opacity:1;" offset="0.914062"/><stop style="stop-color:#f3965c;stop-opacity:1;" offset="0.921875"/><stop style="stop-color:#f3965c;stop-opacity:1;" offset="0.9375"/><stop style="stop-color:#f3965c;stop-opacity:1;" offset="1"/></linearGradient><clipPath id="4541cec28e"><path d="M 24 11 L 48 11 L 48 62.078125 L 24 62.078125 Z M 24 11 "/></clipPath><clipPath id="6bfa1d5e4b"><rect x="0" width="24" y="0" height="52"/></clipPath><clipPath id="9b9737752b"><rect x="0" width="26" y="0" height="46"/></clipPath><clipPath id="7fa637c4fc"><rect x="0" width="55" y="0" height="63"/></clipPath></defs><g id="ef24e1c151"><g transform="matrix(1,0,0,1,13,50)"><g clip-path="url(#e3ac04a939)"><g style="fill:#4c489e;fill-opacity:1;"><g transform="translate(1.145743, 12.784846)"><path style="stroke:none" d="M 9.0625 -3.984375 C 9.0625 -3.109375 8.890625 -2.359375 8.546875 -1.734375 C 8.203125 -1.117188 7.703125 -0.640625 7.046875 -0.296875 C 6.390625 0.0351562 5.601562 0.203125 4.6875 0.203125 C 3.363281 0.203125 2.34375 -0.144531 1.625 -0.84375 C 0.90625 -1.550781 0.546875 -2.546875 0.546875 -3.828125 C 0.546875 -4.703125 0.71875 -5.453125 1.0625 -6.078125 C 1.414062 -6.703125 1.921875 -7.175781 2.578125 -7.5 C 3.234375 -7.832031 4.023438 -8 4.953125 -8 C 6.253906 -8 7.265625 -7.644531 7.984375 -6.9375 C 8.703125 -6.238281 9.0625 -5.253906 9.0625 -3.984375 Z M 7.328125 -3.75 C 7.328125 -4.394531 7.238281 -4.984375 7.0625 -5.515625 C 6.894531 -6.046875 6.65625 -6.460938 6.34375 -6.765625 C 5.945312 -7.160156 5.445312 -7.359375 4.84375 -7.359375 C 4.113281 -7.359375 3.523438 -7.140625 3.078125 -6.703125 C 2.535156 -6.160156 2.265625 -5.289062 2.265625 -4.09375 C 2.265625 -3.425781 2.347656 -2.828125 2.515625 -2.296875 C 2.691406 -1.773438 2.9375 -1.359375 3.25 -1.046875 C 3.644531 -0.648438 4.148438 -0.453125 4.765625 -0.453125 C 5.609375 -0.453125 6.242188 -0.726562 6.671875 -1.28125 C 7.109375 -1.84375 7.328125 -2.664062 7.328125 -3.75 Z M 7.328125 -3.75 "/></g></g><g style="fill:#4c489e;fill-opacity:1;"><g transform="translate(10.739939, 12.784846)"><path style="stroke:none" d="M 9.953125 0.03125 C 9.578125 0.0078125 9.203125 0 8.828125 0 C 8.472656 0 8.113281 0.0078125 7.75 0.03125 L 7.75 -3.09375 C 7.75 -3.988281 7.421875 -4.4375 6.765625 -4.4375 C 6.609375 -4.4375 6.457031 -4.394531 6.3125 -4.3125 C 6.175781 -4.238281 6.0625 -4.140625 5.96875 -4.015625 C 5.875 -3.898438 5.828125 -3.78125 5.828125 -3.65625 L 5.828125 -1.15625 C 5.828125 -0.84375 5.851562 -0.644531 5.90625 -0.5625 C 5.957031 -0.476562 6.066406 -0.429688 6.234375 -0.421875 L 6.640625 -0.390625 L 6.640625 0.03125 C 6.140625 0.0078125 5.640625 0 5.140625 0 C 4.648438 0 4.15625 0.0078125 3.65625 0.03125 L 3.65625 -0.390625 L 4 -0.421875 C 4.1875 -0.429688 4.300781 -0.476562 4.34375 -0.5625 C 4.394531 -0.644531 4.421875 -0.84375 4.421875 -1.15625 L 4.421875 -3.09375 C 4.421875 -3.988281 4.09375 -4.4375 3.4375 -4.4375 C 3.28125 -4.4375 3.128906 -4.394531 2.984375 -4.3125 C 2.847656 -4.238281 2.734375 -4.140625 2.640625 -4.015625 C 2.546875 -3.898438 2.5 -3.78125 2.5 -3.65625 L 2.5 -1.15625 C 2.5 -0.84375 2.519531 -0.644531 2.5625 -0.5625 C 2.613281 -0.476562 2.726562 -0.429688 2.90625 -0.421875 L 3.21875 -0.390625 L 3.21875 0.03125 C 2.738281 0.0078125 2.253906 0 1.765625 0 C 1.273438 0 0.78125 0.0078125 0.28125 0.03125 L 0.28125 -0.390625 L 0.671875 -0.421875 C 0.847656 -0.429688 0.960938 -0.476562 1.015625 -0.5625 C 1.066406 -0.644531 1.09375 -0.84375 1.09375 -1.15625 L 1.09375 -3.671875 C 1.09375 -4.015625 1.070312 -4.234375 1.03125 -4.328125 C 1 -4.421875 0.921875 -4.472656 0.796875 -4.484375 L 0.28125 -4.515625 L 0.28125 -4.921875 C 0.488281 -4.941406 0.675781 -4.960938 0.84375 -4.984375 C 1.019531 -5.015625 1.226562 -5.0625 1.46875 -5.125 C 1.707031 -5.195312 2.03125 -5.296875 2.4375 -5.421875 L 2.5 -5.359375 L 2.5 -4.484375 L 3.421875 -5.203125 C 3.609375 -5.347656 3.878906 -5.421875 4.234375 -5.421875 C 4.640625 -5.421875 4.960938 -5.347656 5.203125 -5.203125 C 5.441406 -5.054688 5.625 -4.816406 5.75 -4.484375 L 6.671875 -5.203125 C 6.867188 -5.347656 7.148438 -5.421875 7.515625 -5.421875 C 7.921875 -5.421875 8.242188 -5.351562 8.484375 -5.21875 C 8.722656 -5.082031 8.894531 -4.859375 9 -4.546875 C 9.101562 -4.242188 9.15625 -3.828125 9.15625 -3.296875 L 9.15625 -1.15625 C 9.15625 -0.84375 9.175781 -0.644531 9.21875 -0.5625 C 9.269531 -0.476562 9.382812 -0.429688 9.5625 -0.421875 L 9.953125 -0.390625 Z M 9.953125 0.03125 "/></g></g><g style="fill:#4c489e;fill-opacity:1;"><g transform="translate(20.979125, 12.784846)"><path style="stroke:none" d="M 5.3125 -2.796875 C 4.976562 -2.722656 4.671875 -2.664062 4.390625 -2.625 C 4.117188 -2.582031 3.816406 -2.5625 3.484375 -2.5625 L 1.984375 -2.5625 C 1.992188 -2.289062 2.019531 -2.070312 2.0625 -1.90625 C 2.101562 -1.738281 2.171875 -1.578125 2.265625 -1.421875 C 2.410156 -1.179688 2.613281 -0.988281 2.875 -0.84375 C 3.132812 -0.695312 3.410156 -0.625 3.703125 -0.625 C 3.929688 -0.625 4.144531 -0.65625 4.34375 -0.71875 C 4.550781 -0.78125 4.789062 -0.882812 5.0625 -1.03125 L 5.1875 -0.859375 L 4.9375 -0.296875 C 4.695312 -0.171875 4.476562 -0.0703125 4.28125 0 C 4.09375 0.0703125 3.90625 0.125 3.71875 0.15625 C 3.539062 0.1875 3.34375 0.203125 3.125 0.203125 C 2.257812 0.203125 1.601562 -0.0351562 1.15625 -0.515625 C 0.707031 -0.992188 0.484375 -1.691406 0.484375 -2.609375 C 0.484375 -3.160156 0.570312 -3.613281 0.75 -3.96875 C 0.925781 -4.320312 1.203125 -4.613281 1.578125 -4.84375 L 2.125 -5.15625 C 2.414062 -5.332031 2.75 -5.421875 3.125 -5.421875 C 3.789062 -5.421875 4.320312 -5.234375 4.71875 -4.859375 C 5.113281 -4.492188 5.3125 -4.003906 5.3125 -3.390625 Z M 3.84375 -3.171875 C 3.84375 -3.742188 3.765625 -4.15625 3.609375 -4.40625 C 3.460938 -4.65625 3.222656 -4.78125 2.890625 -4.78125 C 2.554688 -4.78125 2.304688 -4.65625 2.140625 -4.40625 C 1.984375 -4.15625 1.90625 -3.742188 1.90625 -3.171875 L 2.28125 -3.171875 C 2.5 -3.160156 2.628906 -3.148438 2.671875 -3.140625 C 2.722656 -3.140625 2.75 -3.140625 2.75 -3.140625 C 2.757812 -3.140625 2.800781 -3.140625 2.875 -3.140625 C 3.007812 -3.140625 3.148438 -3.144531 3.296875 -3.15625 C 3.453125 -3.164062 3.582031 -3.171875 3.6875 -3.171875 C 3.789062 -3.171875 3.84375 -3.171875 3.84375 -3.171875 Z M 3.84375 -3.171875 "/></g></g><g style="fill:#4c489e;fill-opacity:1;"><g transform="translate(26.737948, 12.784846)"><path style="stroke:none" d="M 6.765625 0.03125 C 6.367188 0.0078125 5.976562 0 5.59375 0 C 5.25 0 4.90625 0.0078125 4.5625 0.03125 L 4.5625 -3.109375 C 4.5625 -3.566406 4.472656 -3.898438 4.296875 -4.109375 C 4.128906 -4.328125 3.859375 -4.4375 3.484375 -4.4375 C 3.222656 -4.4375 2.992188 -4.351562 2.796875 -4.1875 C 2.597656 -4.03125 2.5 -3.851562 2.5 -3.65625 L 2.5 -1.15625 C 2.5 -0.84375 2.523438 -0.644531 2.578125 -0.5625 C 2.628906 -0.476562 2.738281 -0.429688 2.90625 -0.421875 L 3.3125 -0.390625 L 3.3125 0.03125 C 2.800781 0.0078125 2.285156 0 1.765625 0 C 1.273438 0 0.78125 0.0078125 0.28125 0.03125 L 0.28125 -0.390625 L 0.671875 -0.421875 C 0.847656 -0.429688 0.960938 -0.476562 1.015625 -0.5625 C 1.066406 -0.644531 1.09375 -0.84375 1.09375 -1.15625 L 1.09375 -3.671875 C 1.09375 -4.015625 1.070312 -4.234375 1.03125 -4.328125 C 1 -4.421875 0.921875 -4.472656 0.796875 -4.484375 L 0.28125 -4.515625 L 0.28125 -4.921875 C 0.488281 -4.941406 0.675781 -4.960938 0.84375 -4.984375 C 1.019531 -5.015625 1.226562 -5.0625 1.46875 -5.125 C 1.707031 -5.195312 2.03125 -5.296875 2.4375 -5.421875 L 2.5 -5.359375 L 2.5 -4.484375 L 3.421875 -5.203125 C 3.597656 -5.347656 3.863281 -5.421875 4.21875 -5.421875 C 4.800781 -5.421875 5.25 -5.257812 5.5625 -4.9375 C 5.71875 -4.78125 5.820312 -4.578125 5.875 -4.328125 C 5.9375 -4.085938 5.96875 -3.742188 5.96875 -3.296875 L 5.96875 -1.15625 C 5.96875 -0.84375 5.988281 -0.644531 6.03125 -0.5625 C 6.082031 -0.476562 6.195312 -0.429688 6.375 -0.421875 L 6.765625 -0.390625 Z M 5.625 -7.625 C 5.488281 -7.125 5.3125 -6.753906 5.09375 -6.515625 C 4.882812 -6.285156 4.609375 -6.171875 4.265625 -6.171875 C 4.140625 -6.171875 4.003906 -6.191406 3.859375 -6.234375 C 3.722656 -6.273438 3.539062 -6.347656 3.3125 -6.453125 C 3.09375 -6.566406 2.914062 -6.640625 2.78125 -6.671875 C 2.644531 -6.703125 2.523438 -6.71875 2.421875 -6.71875 C 2.179688 -6.71875 2.003906 -6.539062 1.890625 -6.1875 L 1.421875 -6.1875 C 1.472656 -6.613281 1.625 -6.957031 1.875 -7.21875 C 2.125 -7.488281 2.421875 -7.625 2.765625 -7.625 C 2.890625 -7.625 3.019531 -7.601562 3.15625 -7.5625 C 3.289062 -7.53125 3.46875 -7.457031 3.6875 -7.34375 C 3.90625 -7.25 4.078125 -7.179688 4.203125 -7.140625 C 4.328125 -7.097656 4.441406 -7.078125 4.546875 -7.078125 C 4.679688 -7.078125 4.785156 -7.113281 4.859375 -7.1875 C 4.941406 -7.257812 5.035156 -7.40625 5.140625 -7.625 Z M 5.625 -7.625 "/></g></g><g style="fill:#4c489e;fill-opacity:1;"><g transform="translate(33.775228, 12.784846)"><path style="stroke:none" d="M 6.71875 0.03125 C 6.320312 0.0078125 5.929688 0 5.546875 0 C 5.191406 0 4.828125 0.0078125 4.453125 0.03125 L 4.515625 -0.921875 L 3.640625 -0.0625 C 3.460938 0.113281 3.195312 0.203125 2.84375 0.203125 C 2.28125 0.203125 1.847656 0.046875 1.546875 -0.265625 C 1.253906 -0.578125 1.109375 -1.023438 1.109375 -1.609375 L 1.109375 -3.671875 C 1.109375 -4.015625 1.085938 -4.234375 1.046875 -4.328125 C 1.015625 -4.421875 0.9375 -4.472656 0.8125 -4.484375 L 0.28125 -4.515625 L 0.28125 -4.921875 C 0.53125 -4.953125 0.722656 -4.976562 0.859375 -5 C 1.003906 -5.03125 1.128906 -5.054688 1.234375 -5.078125 C 1.347656 -5.097656 1.46875 -5.128906 1.59375 -5.171875 L 2.390625 -5.421875 L 2.515625 -5.359375 L 2.515625 -2.34375 C 2.515625 -1.789062 2.578125 -1.398438 2.703125 -1.171875 C 2.835938 -0.953125 3.070312 -0.84375 3.40625 -0.84375 C 3.71875 -0.84375 3.976562 -0.941406 4.1875 -1.140625 C 4.40625 -1.347656 4.515625 -1.59375 4.515625 -1.875 L 4.515625 -3.671875 C 4.515625 -4.015625 4.492188 -4.234375 4.453125 -4.328125 C 4.421875 -4.421875 4.34375 -4.472656 4.21875 -4.484375 L 3.703125 -4.515625 L 3.703125 -4.921875 C 3.929688 -4.953125 4.117188 -4.976562 4.265625 -5 C 4.410156 -5.03125 4.535156 -5.054688 4.640625 -5.078125 C 4.753906 -5.097656 4.875 -5.128906 5 -5.171875 L 5.796875 -5.421875 L 5.921875 -5.359375 L 5.921875 -1.15625 C 5.921875 -0.84375 5.941406 -0.644531 5.984375 -0.5625 C 6.035156 -0.476562 6.148438 -0.429688 6.328125 -0.421875 L 6.71875 -0.390625 Z M 6.71875 0.03125 "/></g></g><g clip-rule="nonzero" clip-path="url(#5441f5f715)"><g style="fill:#4c489e;fill-opacity:1;"><g transform="translate(40.812508, 12.784846)"><path style="stroke:none" d="M 6.875 0 L 4.890625 0 C 4.648438 -0.289062 4.460938 -0.515625 4.328125 -0.671875 C 4.203125 -0.835938 4.09375 -0.96875 4 -1.0625 C 3.914062 -1.164062 3.828125 -1.269531 3.734375 -1.375 C 3.640625 -1.488281 3.507812 -1.640625 3.34375 -1.828125 C 3.1875 -2.015625 2.960938 -2.273438 2.671875 -2.609375 L 2.5625 -2.609375 L 2.5625 -1.15625 C 2.5625 -0.84375 2.582031 -0.644531 2.625 -0.5625 C 2.675781 -0.476562 2.789062 -0.429688 2.96875 -0.421875 L 3.375 -0.390625 L 3.375 0.03125 C 2.863281 0.0078125 2.34375 0 1.8125 0 C 1.320312 0 0.828125 0.0078125 0.328125 0.03125 L 0.328125 -0.390625 L 0.734375 -0.421875 C 0.910156 -0.429688 1.023438 -0.476562 1.078125 -0.5625 C 1.128906 -0.644531 1.15625 -0.84375 1.15625 -1.15625 L 1.15625 -6.546875 C 1.15625 -6.878906 1.132812 -7.09375 1.09375 -7.1875 C 1.0625 -7.28125 0.984375 -7.332031 0.859375 -7.34375 L 0.234375 -7.375 L 0.234375 -7.796875 C 0.578125 -7.835938 0.851562 -7.875 1.0625 -7.90625 C 1.269531 -7.9375 1.460938 -7.976562 1.640625 -8.03125 L 2.46875 -8.296875 L 2.5625 -8.21875 L 2.5625 -2.875 C 2.882812 -3.144531 3.132812 -3.363281 3.3125 -3.53125 C 3.488281 -3.695312 3.644531 -3.847656 3.78125 -3.984375 L 5.015625 -5.28125 L 6.5 -5.28125 L 6.5 -4.84375 L 6.15625 -4.84375 C 5.96875 -4.84375 5.78125 -4.773438 5.59375 -4.640625 C 5.40625 -4.503906 5.21875 -4.359375 5.03125 -4.203125 C 4.84375 -4.046875 4.671875 -3.898438 4.515625 -3.765625 C 4.359375 -3.628906 4.226562 -3.515625 4.125 -3.421875 C 4.03125 -3.335938 3.984375 -3.296875 3.984375 -3.296875 L 6.234375 -0.765625 C 6.441406 -0.535156 6.65625 -0.410156 6.875 -0.390625 Z M 6.875 0 "/></g></g></g></g></g><g transform="matrix(1,0,0,1,31,64)"><g clip-path="url(#16c1621794)"><g clip-rule="nonzero" clip-path="url(#f83abf2682)"><g style="fill:#4c489e;fill-opacity:1;"><g transform="translate(0.637621, 5.801775)"><path style="stroke:none" d="M 2.734375 -2.53125 C 2.734375 -2.34375 2.679688 -2.171875 2.578125 -2.015625 C 2.472656 -1.867188 2.335938 -1.75 2.171875 -1.65625 C 2.003906 -1.570312 1.8125 -1.53125 1.59375 -1.53125 C 1.539062 -1.53125 1.492188 -1.53125 1.453125 -1.53125 C 1.421875 -1.53125 1.375 -1.535156 1.3125 -1.546875 L 1.265625 -1.71875 C 1.328125 -1.695312 1.378906 -1.679688 1.421875 -1.671875 C 1.460938 -1.671875 1.507812 -1.671875 1.5625 -1.671875 C 1.757812 -1.671875 1.921875 -1.738281 2.046875 -1.875 C 2.179688 -2.007812 2.25 -2.179688 2.25 -2.390625 C 2.25 -2.617188 2.179688 -2.789062 2.046875 -2.90625 C 1.921875 -3.019531 1.734375 -3.078125 1.484375 -3.078125 C 1.398438 -3.078125 1.320312 -3.070312 1.25 -3.0625 C 1.175781 -3.050781 1.097656 -3.035156 1.015625 -3.015625 L 1.015625 -0.5625 C 1.015625 -0.4375 1.019531 -0.34375 1.03125 -0.28125 C 1.039062 -0.226562 1.0625 -0.191406 1.09375 -0.171875 C 1.125 -0.160156 1.175781 -0.148438 1.25 -0.140625 L 1.484375 -0.125 L 1.484375 0.015625 C 1.253906 0.00390625 1.023438 0 0.796875 0 C 0.566406 0 0.335938 0.00390625 0.109375 0.015625 L 0.109375 -0.125 L 0.328125 -0.140625 C 0.398438 -0.148438 0.453125 -0.160156 0.484375 -0.171875 C 0.523438 -0.191406 0.546875 -0.226562 0.546875 -0.28125 C 0.554688 -0.34375 0.5625 -0.4375 0.5625 -0.5625 L 0.5625 -2.671875 C 0.5625 -2.785156 0.554688 -2.875 0.546875 -2.9375 C 0.535156 -3 0.507812 -3.039062 0.46875 -3.0625 C 0.4375 -3.082031 0.382812 -3.09375 0.3125 -3.09375 L 0.109375 -3.109375 L 0.109375 -3.25 C 0.398438 -3.238281 0.6875 -3.234375 0.96875 -3.234375 C 1.101562 -3.234375 1.234375 -3.234375 1.359375 -3.234375 C 1.492188 -3.242188 1.628906 -3.25 1.765625 -3.25 C 2.054688 -3.25 2.289062 -3.179688 2.46875 -3.046875 C 2.644531 -2.921875 2.734375 -2.75 2.734375 -2.53125 Z M 2.734375 -2.53125 "/></g></g></g><g style="fill:#4c489e;fill-opacity:1;"><g transform="translate(3.476179, 5.801775)"><path style="stroke:none" d="M 2.21875 0.015625 C 2.101562 0.00390625 1.984375 0 1.859375 0 C 1.742188 0 1.625 0.00390625 1.5 0.015625 L 1.53125 -0.390625 L 0.9375 0.015625 C 0.925781 0.0234375 0.898438 0.0351562 0.859375 0.046875 C 0.828125 0.0546875 0.789062 0.0625 0.75 0.0625 C 0.5625 0.0625 0.414062 0.0078125 0.3125 -0.09375 C 0.207031 -0.195312 0.15625 -0.335938 0.15625 -0.515625 C 0.15625 -0.722656 0.222656 -0.882812 0.359375 -1 C 0.503906 -1.125 0.738281 -1.210938 1.0625 -1.265625 L 1.53125 -1.359375 C 1.519531 -1.566406 1.460938 -1.71875 1.359375 -1.8125 C 1.265625 -1.90625 1.109375 -1.953125 0.890625 -1.953125 C 0.816406 -1.953125 0.757812 -1.945312 0.71875 -1.9375 C 0.675781 -1.925781 0.640625 -1.898438 0.609375 -1.859375 C 0.578125 -1.828125 0.546875 -1.773438 0.515625 -1.703125 L 0.453125 -1.5625 L 0.34375 -1.59375 L 0.34375 -1.890625 L 0.59375 -2.046875 C 0.757812 -2.148438 0.945312 -2.203125 1.15625 -2.203125 C 1.425781 -2.203125 1.617188 -2.128906 1.734375 -1.984375 C 1.847656 -1.847656 1.90625 -1.609375 1.90625 -1.265625 L 1.90625 -0.40625 C 1.90625 -0.289062 1.910156 -0.21875 1.921875 -0.1875 C 1.941406 -0.15625 1.976562 -0.140625 2.03125 -0.140625 L 2.21875 -0.125 Z M 1.53125 -0.578125 L 1.53125 -1.203125 C 1.34375 -1.179688 1.1875 -1.148438 1.0625 -1.109375 C 0.9375 -1.078125 0.847656 -1.046875 0.796875 -1.015625 C 0.722656 -0.972656 0.664062 -0.910156 0.625 -0.828125 C 0.582031 -0.753906 0.5625 -0.675781 0.5625 -0.59375 C 0.5625 -0.488281 0.59375 -0.398438 0.65625 -0.328125 C 0.726562 -0.253906 0.8125 -0.21875 0.90625 -0.21875 C 0.96875 -0.21875 1.035156 -0.234375 1.109375 -0.265625 C 1.191406 -0.296875 1.269531 -0.335938 1.34375 -0.390625 C 1.414062 -0.453125 1.476562 -0.515625 1.53125 -0.578125 Z M 1.53125 -0.578125 "/></g></g><g style="fill:#4c489e;fill-opacity:1;"><g transform="translate(5.82598, 5.801775)"><path style="stroke:none" d="M 2.390625 -1.265625 C 2.390625 -1.148438 2.375 -1.035156 2.34375 -0.921875 C 2.3125 -0.804688 2.265625 -0.695312 2.203125 -0.59375 C 2.148438 -0.5 2.085938 -0.429688 2.015625 -0.390625 L 1.546875 -0.046875 C 1.453125 0.0234375 1.316406 0.0625 1.140625 0.0625 C 1.015625 0.0625 0.90625 0.046875 0.8125 0.015625 C 0.71875 -0.015625 0.625 -0.0546875 0.53125 -0.109375 L 0.34375 0.0625 L 0.265625 0.03125 C 0.285156 -0.0820312 0.296875 -0.175781 0.296875 -0.25 C 0.304688 -0.320312 0.3125 -0.394531 0.3125 -0.46875 C 0.3125 -0.539062 0.3125 -0.625 0.3125 -0.71875 L 0.3125 -2.921875 C 0.3125 -2.992188 0.300781 -3.039062 0.28125 -3.0625 C 0.269531 -3.09375 0.238281 -3.109375 0.1875 -3.109375 L -0.078125 -3.109375 L -0.078125 -3.234375 C 0.0546875 -3.253906 0.160156 -3.269531 0.234375 -3.28125 C 0.316406 -3.300781 0.390625 -3.320312 0.453125 -3.34375 C 0.523438 -3.363281 0.59375 -3.390625 0.65625 -3.421875 L 0.703125 -3.375 L 0.703125 -1.734375 L 0.96875 -2 C 1.03125 -2.0625 1.113281 -2.109375 1.21875 -2.140625 C 1.320312 -2.179688 1.425781 -2.203125 1.53125 -2.203125 C 1.695312 -2.203125 1.84375 -2.160156 1.96875 -2.078125 C 2.101562 -2.003906 2.207031 -1.894531 2.28125 -1.75 C 2.351562 -1.613281 2.390625 -1.453125 2.390625 -1.265625 Z M 1.984375 -1.078125 C 1.984375 -1.328125 1.921875 -1.523438 1.796875 -1.671875 C 1.679688 -1.828125 1.523438 -1.90625 1.328125 -1.90625 C 1.128906 -1.90625 0.960938 -1.832031 0.828125 -1.6875 C 0.742188 -1.59375 0.703125 -1.515625 0.703125 -1.453125 L 0.703125 -0.4375 C 0.703125 -0.40625 0.734375 -0.367188 0.796875 -0.328125 C 0.859375 -0.285156 0.9375 -0.25 1.03125 -0.21875 C 1.125 -0.195312 1.210938 -0.1875 1.296875 -0.1875 C 1.429688 -0.1875 1.550781 -0.222656 1.65625 -0.296875 C 1.757812 -0.367188 1.835938 -0.472656 1.890625 -0.609375 C 1.953125 -0.742188 1.984375 -0.898438 1.984375 -1.078125 Z M 1.984375 -1.078125 "/></g></g><g style="fill:#4c489e;fill-opacity:1;"><g transform="translate(8.424857, 5.801775)"><path style="stroke:none" d="M 1.28125 0.015625 C 1.082031 0.00390625 0.882812 0 0.6875 0 C 0.488281 0 0.289062 0.00390625 0.09375 0.015625 L 0.09375 -0.125 L 0.3125 -0.140625 C 0.363281 -0.140625 0.398438 -0.144531 0.421875 -0.15625 C 0.453125 -0.175781 0.46875 -0.207031 0.46875 -0.25 C 0.476562 -0.300781 0.484375 -0.378906 0.484375 -0.484375 L 0.484375 -2.921875 C 0.484375 -2.992188 0.472656 -3.039062 0.453125 -3.0625 C 0.441406 -3.09375 0.414062 -3.109375 0.375 -3.109375 L 0.109375 -3.109375 L 0.109375 -3.234375 C 0.234375 -3.253906 0.335938 -3.269531 0.421875 -3.28125 C 0.503906 -3.300781 0.578125 -3.320312 0.640625 -3.34375 C 0.703125 -3.363281 0.769531 -3.390625 0.84375 -3.421875 L 0.890625 -3.375 L 0.890625 -0.484375 C 0.890625 -0.378906 0.890625 -0.300781 0.890625 -0.25 C 0.898438 -0.207031 0.914062 -0.175781 0.9375 -0.15625 C 0.96875 -0.144531 1.007812 -0.140625 1.0625 -0.140625 L 1.28125 -0.125 Z M 1.28125 0.015625 "/></g></g><g clip-rule="nonzero" clip-path="url(#502da15ff5)"><g style="fill:#4c489e;fill-opacity:1;"><g transform="translate(9.792442, 5.801775)"><path style="stroke:none" d="M 2.421875 -1.109375 C 2.421875 -0.878906 2.363281 -0.671875 2.25 -0.484375 C 2.144531 -0.304688 2 -0.164062 1.8125 -0.0625 C 1.625 0.0390625 1.410156 0.09375 1.171875 0.09375 C 0.972656 0.09375 0.796875 0.046875 0.640625 -0.046875 C 0.484375 -0.140625 0.363281 -0.269531 0.28125 -0.4375 C 0.195312 -0.601562 0.15625 -0.796875 0.15625 -1.015625 C 0.15625 -1.253906 0.203125 -1.460938 0.296875 -1.640625 C 0.398438 -1.816406 0.535156 -1.953125 0.703125 -2.046875 C 0.878906 -2.148438 1.082031 -2.203125 1.3125 -2.203125 C 1.53125 -2.203125 1.722656 -2.15625 1.890625 -2.0625 C 2.054688 -1.96875 2.1875 -1.835938 2.28125 -1.671875 C 2.375 -1.515625 2.421875 -1.328125 2.421875 -1.109375 Z M 1.984375 -0.9375 C 1.984375 -1.15625 1.945312 -1.347656 1.875 -1.515625 C 1.8125 -1.679688 1.722656 -1.8125 1.609375 -1.90625 C 1.492188 -2 1.367188 -2.046875 1.234375 -2.046875 C 1.023438 -2.046875 0.863281 -1.972656 0.75 -1.828125 C 0.644531 -1.679688 0.59375 -1.46875 0.59375 -1.1875 C 0.59375 -0.957031 0.625 -0.757812 0.6875 -0.59375 C 0.75 -0.425781 0.835938 -0.296875 0.953125 -0.203125 C 1.066406 -0.109375 1.203125 -0.0625 1.359375 -0.0625 C 1.546875 -0.0625 1.695312 -0.140625 1.8125 -0.296875 C 1.925781 -0.453125 1.984375 -0.664062 1.984375 -0.9375 Z M 1.984375 -0.9375 "/></g></g></g></g></g><g transform="matrix(1,0,0,1,8,2)"><g clip-path="url(#7fa637c4fc)"><g clip-rule="nonzero" clip-path="url(#90e7092b26)"><g clip-rule="nonzero" clip-path="url(#7b49593daa)"><path style=" stroke:none;fill-rule:nonzero;fill:url(#22646c7473);" d="M 1.082031 0.816406 L 1.082031 52.429688 L 52.699219 52.429688 L 52.699219 0.816406 Z M 1.082031 0.816406 "/></g></g><g clip-rule="nonzero" clip-path="url(#4541cec28e)"><g transform="matrix(1,0,0,1,24,11)"><g id="f960124e5e" clip-path="url(#6bfa1d5e4b)"><g style="fill:#ffffff;fill-opacity:1;"><g transform="translate(0.610369, 40.120797)"><path style="stroke:none" d="M 1.296875 0 L 1.296875 -0.375 L 2.078125 -0.375 C 2.953125 -0.375 3.628906 -0.570312 4.109375 -0.96875 C 4.597656 -1.363281 4.84375 -2.035156 4.84375 -2.984375 L 4.84375 -23.75 C 4.84375 -24.625 4.597656 -25.253906 4.109375 -25.640625 C 3.628906 -26.023438 2.953125 -26.21875 2.078125 -26.21875 L 1.296875 -26.21875 L 1.296875 -26.578125 L 12.03125 -26.578125 C 15.25 -26.578125 17.628906 -25.882812 19.171875 -24.5 C 20.710938 -23.113281 21.484375 -21.203125 21.484375 -18.765625 C 21.484375 -17.273438 21.15625 -15.890625 20.5 -14.609375 C 19.84375 -13.335938 18.753906 -12.300781 17.234375 -11.5 C 15.722656 -10.707031 13.710938 -10.3125 11.203125 -10.3125 L 9.15625 -10.3125 L 9.15625 -2.9375 C 9.15625 -2.019531 9.394531 -1.363281 9.875 -0.96875 C 10.363281 -0.570312 11.046875 -0.375 11.921875 -0.375 L 12.921875 -0.375 L 12.921875 0 Z M 9.15625 -10.6875 L 10.828125 -10.6875 C 12.992188 -10.6875 14.535156 -11.285156 15.453125 -12.484375 C 16.367188 -13.691406 16.828125 -15.722656 16.828125 -18.578125 C 16.828125 -21.304688 16.414062 -23.257812 15.59375 -24.4375 C 14.78125 -25.625 13.378906 -26.21875 11.390625 -26.21875 L 9.15625 -26.21875 Z M 9.15625 -10.6875 "/></g></g></g></g></g><g transform="matrix(1,0,0,1,7,4)"><g id="ec89f95119" clip-path="url(#9b9737752b)"><g style="fill:#ffffff;fill-opacity:1;"><g transform="translate(0.194044, 35.899105)"><path style="stroke:none" d="M 12.59375 0.328125 C 10.1875 0.328125 8.1875 -0.179688 6.59375 -1.203125 C 5 -2.222656 3.8125 -3.65625 3.03125 -5.5 C 2.257812 -7.351562 1.875 -9.519531 1.875 -12 C 1.875 -14.46875 2.269531 -16.613281 3.0625 -18.4375 C 3.851562 -20.257812 5.039062 -21.675781 6.625 -22.6875 C 8.21875 -23.707031 10.21875 -24.21875 12.625 -24.21875 C 14.894531 -24.21875 16.828125 -23.707031 18.421875 -22.6875 C 20.015625 -21.675781 21.226562 -20.253906 22.0625 -18.421875 C 22.894531 -16.585938 23.3125 -14.429688 23.3125 -11.953125 C 23.3125 -9.484375 22.894531 -7.328125 22.0625 -5.484375 C 21.226562 -3.648438 20.015625 -2.222656 18.421875 -1.203125 C 16.828125 -0.179688 14.882812 0.328125 12.59375 0.328125 Z M 12.59375 0 C 14.863281 0 16.507812 -0.941406 17.53125 -2.828125 C 18.5625 -4.722656 19.078125 -7.765625 19.078125 -11.953125 C 19.078125 -16.140625 18.5625 -19.175781 17.53125 -21.0625 C 16.507812 -22.945312 14.875 -23.890625 12.625 -23.890625 C 10.351562 -23.890625 8.691406 -22.945312 7.640625 -21.0625 C 6.597656 -19.175781 6.078125 -16.140625 6.078125 -11.953125 C 6.078125 -7.765625 6.59375 -4.722656 7.625 -2.828125 C 8.664062 -0.941406 10.320312 0 12.59375 0 Z M 12.59375 0 "/></g></g></g></g></g></g></g></svg>