<?xml version="1.0" standalone="no"?>
<!DOCTYPE svg PUBLIC "-//W3C//DTD SVG 20010904//EN"
 "http://www.w3.org/TR/2001/REC-SVG-20010904/DTD/svg10.dtd">
<svg version="1.0" xmlns="http://www.w3.org/2000/svg"
 width="1280.000000pt" height="1024.000000pt" viewBox="0 0 1280.000000 1024.000000"
 preserveAspectRatio="xMidYMid meet">

<g transform="translate(0.000000,1024.000000) scale(0.100000,-0.100000)"
fill="#000000" stroke="none">
<path d="M6285 9113 c-142 -18 -274 -64 -425 -151 -631 -362 -1735 -1002
-1770 -1025 -72 -49 -203 -185 -256 -267 -45 -69 -113 -218 -114 -247 0 -10
145 -13 693 -13 401 0 717 -4 752 -10 89 -14 194 -70 251 -133 71 -78 107
-163 112 -264 6 -110 -7 -156 -83 -293 -114 -207 -157 -366 -157 -580 0 -342
147 -650 413 -864 100 -80 287 -176 404 -206 438 -113 897 44 1170 400 48 63
108 167 148 257 79 178 102 441 57 649 -60 274 -238 535 -471 690 -168 111
-346 169 -571 184 -94 7 -154 16 -190 30 -203 77 -318 281 -274 488 38 181
186 321 359 340 99 11 311 -4 447 -32 535 -108 1004 -435 1292 -899 357 -574
393 -1314 93 -1903 -214 -419 -521 -720 -935 -918 -702 -335 -1553 -213 -2140
306 -503 445 -753 1135 -645 1783 8 50 15 93 15 98 0 4 -178 7 -395 7 l-395 0
1 -432 c1 -238 5 -597 9 -798 7 -358 7 -367 33 -453 63 -206 180 -379 339
-500 40 -30 289 -179 553 -331 l480 -276 1309 0 1308 0 412 236 c583 336 588
339 688 433 143 136 241 303 285 491 17 70 18 159 18 1235 l0 1160 -28 90
c-82 269 -235 458 -489 608 -309 181 -1716 991 -1764 1015 -155 78 -371 116
-539 95z"/>
<path d="M4035 1070 c-231 -4 -517 -8 -635 -9 -128 -1 -207 -6 -194 -11 30
-12 1799 -30 2962 -30 1152 0 2995 17 3032 28 14 4 -101 10 -255 13 -433 10
-4438 17 -4910 9z"/>
</g>
</svg>
